<?xml version="1.0" encoding="UTF-8" standalone="no"?><!DOCTYPE svg PUBLIC "-//W3C//DTD SVG 1.1//EN" "http://www.w3.org/Graphics/SVG/1.1/DTD/svg11.dtd"><svg width="100%" height="100%" viewBox="0 0 523 289" version="1.1" xmlns="http://www.w3.org/2000/svg" xmlns:xlink="http://www.w3.org/1999/xlink" xml:space="preserve" xmlns:serif="http://www.serif.com/" style="fill-rule:evenodd;clip-rule:evenodd;stroke-linejoin:round;stroke-miterlimit:2;"><g id="Fondo"><path d="M276.823,1.868c6.07,-1.671 6.013,-1.766 6.556,-1.805c13.105,-0.948 7.505,8.057 -15.672,85.873c-4.296,14.424 -9.698,24.488 -5.553,21.961c9.025,-5.502 19.679,-8.116 24.518,-10.948c0.8,-0.219 1.601,-0.439 2.401,-0.658l2.154,-1.301c1.606,-0.601 5.845,-2.186 19.821,-8.156c0.68,-0.284 0.521,0.008 1.062,-0.217c0.184,-0.077 0,0 2.262,-1.041c5.156,-2.576 4.795,-2.82 10.389,-4.694c4.028,-1.658 4.092,-1.136 7.624,-3.468c37.352,-15.775 37.321,-15.883 38.875,-16.977c1.096,-0.412 2.193,-0.823 3.289,-1.235c1.321,-0.575 1.214,-0.533 1.321,-0.575c2.301,-0.903 2.189,-0.636 4.307,-1.467c0.996,-0.402 8.994,-3.628 12.174,-5.666c0.742,-0.371 1.484,-0.742 2.226,-1.113c2.084,-0.243 1.829,-0.485 3.489,-1.684c3.377,-0.475 34.242,-14.961 35.698,-15.702c0.596,-0.096 0.391,0.114 0.958,-0.154c30.28,-14.314 30.839,-12.947 33.444,-14.241c1.661,0.127 1.525,0.005 3.134,-0.495c19.291,0.401 21.916,1.746 31.797,23.607c-0.159,1.711 -0.012,1.567 0.515,3.127l-0.069,2.23c0.14,1.112 0.28,2.223 0.42,3.335c0.448,3.797 3.581,30.352 -31.399,36.03c-2.522,0.573 -2.405,0.339 -4.646,1.57c-0.792,0.202 -7.977,2.031 -9.835,2.765c-2.584,1.022 -79.45,22.559 -85.882,23.867l-4.419,1.995c-5.5,0.95 -7.002,1.585 -7.577,1.828c-2.545,1.077 -27.719,7.921 -30.138,8.579c-5.077,1.067 -4.856,0.95 -6.59,1.479c-5.736,2.375 -58.285,15.658 -71.364,20.4c-1.686,-0.115 -1.538,-0 -3.161,0.517c-13.588,3.618 -13.612,3.505 -14.679,4.076c-2.05,-0.046 -3.878,0.418 -4.207,0.501c-9.694,2.734 -10.033,5.424 -18.93,0.911c-0.425,-1.414 -0.318,-1.281 -1.32,-2.129c-0.791,-2.878 -0.841,-2.701 -1.003,-5.669c0.591,-1.596 0.706,-1.428 0.535,-3.124c0.713,-1.097 0.326,-1.091 6.898,-14.83c1.066,-1.931 0.863,-1.866 2.001,-3.927c1.034,-3.273 0.998,-3.159 17.198,-39.304c0.976,-1.591 0.971,-1.431 1.262,-3.297c10.705,-21.296 10.066,-21.567 11.132,-23.34c0.376,-1.107 0.753,-2.213 1.129,-3.32l0.311,-0.747c0.568,-0.735 1.592,-2.062 4.958,-10.496c0.62,-0.871 0.431,-0.834 0.715,-1.848c0,-0 0.605,-1.274 0.658,-1.385c2.635,-5.404 2.591,-5.345 2.901,-5.757c7.176,-9.52 -13.18,3.65 -27.303,8.06l-3.268,1.396c-38.495,16.504 -38.601,16.067 -41.489,18.26c-2.061,-0.026 -1.898,-0.05 -2.061,-0.026c-1.138,0.17 -0.838,0.518 -2.013,0.694c-1.208,1.005 -18.785,7.851 -25.641,10.896c-0.8,0.229 -1.6,0.459 -2.4,0.688l-2.153,1.269c-2.901,1.011 -30.764,10.723 -35.539,14.563c-2.379,0.153 -2.257,0.193 -4.361,1.395c-16.331,6.15 -43.555,19.732 -47.697,16.103c-7.105,-6.224 3.217,-9.31 6.525,-11.87c1.307,-0.258 1.221,-0.102 2.256,-0.819c0.562,-0.392 28.035,-12.789 31.05,-14.806c1.114,-0.366 2.228,-0.732 3.341,-1.098c2.96,-1.567 2.9,-1.411 3.142,-1.552c30.771,-15.235 31.13,-14.505 33.587,-16.197c1.255,-0.259 1.189,-0.078 2.263,-0.821l1.001,-0.387c1.197,-0.998 4.118,-1.999 4.494,-2.128c1.312,-0.76 10.834,-6.279 16.823,-8.724c32.754,-13.373 31.713,-15.253 64.336,-29.109c2.484,-0.782 2.341,-0.749 4.433,-2.247c1.424,-0.502 2.849,-1.004 4.273,-1.506c1.606,-1.332 5.001,-2.499 5.714,-2.967c1.109,-0.377 2.217,-0.754 3.326,-1.131c3.003,-1.567 2.928,-1.386 3.173,-1.524c19.668,-9.167 19.683,-9.125 20.232,-9.503c0.756,-0.264 1.513,-0.528 2.269,-0.793Z" style="fill:#fe0b1e;fill-opacity:0.99;"/><path d="M184.051,208.089c1.827,-8.347 20.88,-40.561 31.222,0.388c0.54,1.4 1.08,2.799 1.62,4.199c0.066,0.339 0.132,0.678 0.198,1.017c0.527,2.434 0.595,2.235 1.712,4.632c0.82,1.339 9.96,30.909 11.806,34.705c1.408,5.019 1.507,4.938 1.564,5.383c0.609,4.804 13.742,-17.093 20.09,-23.456c0.4,-0.707 0.801,-1.413 1.201,-2.12c13.79,-12.007 26.783,-47.912 48.803,-43.344c4.434,0.92 5.941,2.598 1.458,56.586c-0.567,2.87 -0.554,2.71 -0.376,5.538c-1.231,6.824 -0.658,6.712 -0.858,22.254l-0.092,3.349c-0.218,5.267 1.045,6.156 -1.267,6.546c-1.118,0.188 -18.352,0.195 -19.948,0.196c-1.96,-1.176 -1.903,-1.181 -2.497,-3.449l0.03,-1.073c0.272,-5.183 0.388,-5.081 0.376,-5.523c2.881,-24.444 2.014,-24.354 4.507,-49.015c0.533,-5.278 -3.529,2.349 -4.438,3.535c-39.576,51.681 -39.213,51.88 -43.557,55.482c-1.857,0.02 -3.714,0.04 -5.57,0.06c-10.586,-0.192 -10.854,0.771 -13.397,-1.145c-0.34,-2.377 -0.273,-2.241 -1.167,-4.481c-0.785,-1.905 -0.756,-1.743 -1.672,-3.565c0.133,-1.651 0.047,-1.494 -0.536,-3.115c-2.427,-7.884 -12.864,-39.026 -14.22,-44.611c-1.173,-8.331 -2.349,1.013 -2.376,1.225c-0.851,1.845 -6.465,14.024 -9.447,23.573c-3.04,9.734 -6.166,12.85 -9.857,25.117c-2.635,8.757 -5.048,6.952 -14.04,6.791l-3.332,0.185c-6.742,-0.202 -12.188,2.429 -8.733,-3.33c0.655,-1.092 4.753,-7.923 6.858,-14.364c2.971,-9.093 19.623,-44.342 21.424,-48.154c1.074,-1.996 0.842,-1.951 1.545,-4.276c1.966,-2.737 1.756,-2.589 2.964,-5.738Z" style="fill:#fe091c;fill-opacity:0.99;"/><path d="M57.702,198.114c1.857,0.007 3.714,0.015 5.571,0.022l1.104,0.003l4.46,0.014c42.423,3.211 29.548,48.659 -2.256,52.338c-2.731,0.316 -1.365,2.506 19.612,28.226c6.109,7.49 -2.249,5.137 -11.805,5.232c-1.484,-0.002 -2.967,-0.004 -4.451,-0.006l-1.109,-0.004c-1.418,-0.093 -2.835,-0.186 -4.253,-0.279c-0.17,-0.214 -0.196,-0.519 -0.366,-0.733c-1.78,-2.245 -1.585,-2.211 -3.242,-4.524c-1.096,-1.306 -1.017,-1.211 -2.175,-2.282c-0.221,-0.553 -1.533,-3.839 -3.809,-6.396c-3.388,-4.472 -9.041,-11.694 -9.662,-13.513c-0.92,-1.343 -0.779,-1.163 -1.877,-2.474c-0.769,-0.831 -13.13,-8.238 -14.574,5.692c-0.871,2.194 -0.952,2.012 -0.535,4.113c-4.543,6.02 -1.418,17.686 -7.308,20.427c-1.857,-0.003 -3.713,-0.007 -5.57,-0.01l-8.89,-0.02c-1.798,0.209 -3.596,0.419 -5.394,0.628c-1.1,-0.844 -1.02,-0.767 -1.1,-0.844c-1.165,-1.133 12.086,-57.144 13.255,-62.086c0.648,-3.223 0.548,-3.163 0.62,-3.432c1.988,-6.848 3.474,-17.312 3.689,-18.832c0.27,-1.904 9.975,-1.293 40.064,-1.259Zm-3.332,14.67c2.324,0.397 2.111,0.456 4.447,0.152c0.788,0.159 1.577,0.319 2.365,0.478l0.999,0.356c2.097,0.748 1.954,0.688 4.279,0.416c1.996,1.981 2.131,1.756 2.299,1.927c0.098,2.265 0.513,1.954 2.198,3.325c0.199,19.891 -12.451,19.179 -35.474,18.804c-1.604,-0.026 -1.005,-1.005 2.547,-19.887c1.899,-10.095 6.077,-5.418 16.34,-5.57Z" style="fill:#fe091c;fill-opacity:0.99;"/><path d="M382.308,200.041c1.147,0.099 2.293,0.197 3.44,0.296c7.923,3.794 5.224,8.335 11.225,23.446c0.631,2.993 0.66,2.711 2.106,5.615c0.237,0.818 0.475,1.636 0.712,2.455c0.451,2.326 0.582,2.089 1.351,4.259c2.506,7.586 1.696,7.637 5.235,14.622c-0.128,1.707 0.008,1.562 0.555,3.106c0.788,1.891 0.753,1.726 1.673,3.565c-0.133,1.632 -0.047,1.478 0.54,3.11c0.812,1.932 0.787,1.78 1.685,3.562c-0.128,1.644 -0.044,1.487 0.532,3.11c0.856,1.995 4.432,14.389 4.795,15.647c-0.405,0.238 -0.397,0.184 -3.782,1.123l-6.666,-0.011c-1.854,-0.028 -3.709,-0.055 -5.563,-0.083c-4.162,0.086 -4.097,0.012 -4.452,0.044c-1.713,-1.298 -1.385,-1.31 -2.325,-3.314c-0.412,-1.472 -0.824,-2.944 -1.236,-4.416l-0.44,-0.306c-2.03,-6.484 -1.768,-6.69 -2.781,-7.459c-3.042,-2.32 -3.461,-0.882 -18.738,-0.809l-3.427,0.002l-7.688,0.029l-3.385,-0l-3.383,-0.032c-1.193,0.282 -5.155,1.22 -10.765,10.9c-4.145,7.152 -5.482,5.946 -13.643,5.458c-1.483,-0.029 -2.966,-0.057 -4.45,-0.086c-4.301,-0.191 -4.015,-0.859 -5.772,-2.358c5.714,-7.757 5.466,-7.743 11.09,-15.55c1.638,-2.041 1.565,-1.95 2.476,-4.308c4.028,-4.199 15.105,-20.607 16.348,-22.448c25.7,-38.069 26.636,-38.367 34.734,-39.17Zm-0.728,39.346c-1.314,1.947 -1.458,2.37 0.593,3.43c0.738,2.577 1.475,5.154 2.213,7.731c-2.065,2.839 -1.867,2.852 -2.061,3.076c-20.529,0.11 -20.397,0.128 -22.171,0.119c-3.495,-0.017 -0.545,-1.85 3.292,-7.669c0.396,-0.73 0.792,-1.46 1.188,-2.189c0.346,-0.718 0.201,-0.619 0.652,-1.353c10.824,-17.591 12.291,-19.859 12.542,-17.526c0.919,8.548 2.895,11.728 3.752,14.38Zm0,0c0.014,0.278 0.101,2.029 0.593,3.43c-2.051,-1.06 -1.907,-1.483 -0.593,-3.43Zm2.806,11.161c0.968,2.292 0.252,2.387 -2.061,3.076c0.194,-0.224 -0.004,-0.238 2.061,-3.076Z" style="fill:#fe0a1c;fill-opacity:0.98;"/><path d="M503.532,198.073c2.232,0.027 4.464,0.053 6.696,0.08l3.329,0.016c1.138,0.28 2.276,0.559 3.415,0.839l1.052,0.195c1.125,0.04 2.249,0.079 3.374,0.119c2.004,5.249 -0.535,5.106 -3.089,15.721c-0.51,1.049 -0.391,0.92 -1.445,4.284c-0.701,-0.215 -0.513,0.116 -1.066,-0.054c-0.185,-0.057 0,0 -2.272,-0.845c-3.397,-1.396 -3.192,-1.232 -6.717,-2.142c-15.908,-2.223 -23.604,-0.975 -25.628,-0.646c-1.066,0.174 -2.132,0.348 -3.198,0.522c-3.684,0.703 -3.565,0.55 -4.452,1.021c-1.046,0.183 -2.091,0.366 -3.137,0.549c-0.136,0.079 0.014,0.239 -1.488,1.287c-2.814,0.974 -2.537,1.255 -5.184,2.802c-1.457,0.982 -1.275,0.826 -2.322,2.177c-7.699,6.743 -22.633,32.092 6.604,43.013c0.329,0.089 2.143,0.582 4.223,0.53c2.645,0.461 15.501,2.699 33.527,-1.491c1.6,1.314 1.218,1.378 1.828,3.168c-1.209,3.537 -1.036,3.387 -1.773,6.887c-0.427,1.475 -0.853,2.95 -1.28,4.425c-3.09,2.602 -2.951,2.67 -4.318,3.38c-1.495,0.326 -2.99,0.653 -4.486,0.979l-4.411,0.229l-5.473,0.255c-1.901,0.073 -3.802,0.145 -5.703,0.218l-5.439,-0.095c-2.255,-0.109 -4.51,-0.217 -6.765,-0.326l-2.192,-0.043l-1.109,-0.036c-1.515,-0.273 -3.029,-0.546 -4.544,-0.818c-1.259,-0.368 -1.108,-0.289 -6.587,-1.389c-2.748,-1.245 -2.54,-1.244 -5.61,-2.207c-5.772,-3.202 -5.636,-3.099 -11.103,-6.686c-0.766,-1.595 -0.733,-1.542 -2.305,-2.285c-1.715,-2.789 -1.629,-2.65 -3.436,-5.406c-0.784,-1.497 -0.619,-1.369 -1.64,-2.524c-4.008,-5.739 -6.868,-26.557 4.506,-41.92c0.454,-0.613 0.268,-0.577 0.636,-1.369c1.894,-1.502 1.765,-1.278 3.418,-3.294c1.331,-1.122 1.165,-0.961 2.152,-2.344c4.123,-3.272 3.786,-3.397 8.095,-6.279c2.88,-1.344 2.838,-0.944 5.154,-2.825c0.751,-0.336 1.501,-0.671 2.252,-1.007c1.271,-0.806 3.164,-1.9 3.441,-2.061c2.593,-0.672 2.421,-0.63 4.659,-1.753c2.216,0.11 2.007,0.099 4.292,-0.181l2.13,-0.603c14.424,-1.417 14.223,-2.276 33.387,-2.068Z" style="fill:#fe0a1c;fill-opacity:0.99;"/><path d="M121.559,205.054c0.924,-1.608 1.793,-5.128 1.906,-5.587c0.534,-2.163 19.168,-1.418 22.09,-1.412c4.759,0.011 -0.514,11.706 -3.159,25.824c-0.452,3.92 -0.543,3.869 -0.53,4.208c-7.025,27.193 -5.539,27.388 -12.032,54.614c-0.431,1.805 -18.435,1.337 -23.222,1.259c-3.538,-0.058 0.326,-8.852 1.998,-17.9c1.118,-2.733 1.909,-7.227 2.022,-7.867c1.206,-12.561 5.109,-24.527 5.784,-26.597c0.054,-0.734 0.109,-1.467 0.163,-2.201c0.496,-1.644 0.608,-1.508 0.49,-3.163c2.179,-6.195 1.25,-6.2 3.047,-12.364c1.505,-4.371 1.591,-4.245 1.442,-8.815Z" style="fill:#fe0a1c;fill-opacity:0.99;"/><path d="M467.935,285.171c2.255,0.109 4.51,0.217 6.765,0.326c-1.936,1.89 -3.255,5.188 -6.765,-0.326Z" style="fill:#e2212c;fill-opacity:0.07;"/><path d="M505.271,279.3c1.399,4.933 -0.308,6.205 -5.059,4.611c1.367,-0.71 1.228,-0.778 4.318,-3.38l0.741,-1.231Z" style="fill:#db2e37;fill-opacity:0.04;"/><path d="M110.633,258.193c-0.113,0.64 -0.904,5.134 -2.022,7.867c-0.626,-2.111 -2.654,-5.363 2.022,-7.867Z" style="fill:#ef1926;fill-opacity:0.08;"/><path d="M218.246,125.244c-1.138,2.061 -0.935,1.996 -2.001,3.927c-0.117,-0.397 -3.668,-12.495 0.34,-5.162c0.659,1.205 1.559,1.159 1.661,1.236Z" style="fill:#d91f2a;fill-opacity:0.04;"/><path d="M121.559,205.054c0.149,4.57 0.063,4.444 -1.442,8.815c-0.374,-0.609 -2.063,-3.363 1.442,-8.815Z" style="fill:#c3121a;fill-opacity:0.17;"/><path d="M317.661,281.518c1.757,1.499 1.472,2.167 5.772,2.358l-1.206,0.715c-8.128,1.914 -4.822,-2.714 -4.566,-3.073Z" style="fill:#e61e27;fill-opacity:0.18;"/><path d="M181.209,208.662c1.683,-0.244 1.507,-0.082 2.842,-0.573c-1.208,3.15 -0.998,3.001 -2.964,5.738l-0.365,-2.221c0.162,-0.981 0.325,-1.963 0.487,-2.944Z" style="fill:#eb1923;fill-opacity:0.07;"/><path d="M388.911,268.413c1.014,0.769 0.751,0.975 2.781,7.459c-2.672,-3.307 -2.113,-3.436 -2.781,-7.459Z" style="fill:#d81523;fill-opacity:0.07;"/><path d="M278.687,280.513c0.594,2.268 0.536,2.273 2.497,3.449c-0.324,0.104 -8.205,2.619 -2.497,-3.449Z" style="fill:#e5202b;fill-opacity:0.1;"/><path d="M54.983,269.725c2.276,2.557 3.588,5.843 3.809,6.396c-2.886,-2.836 -4.104,-2.35 -3.809,-6.396Z" style="fill:#e31520;fill-opacity:0.11;"/><path d="M472.564,86.434c-0.587,1.539 -0.288,4.623 -4.646,1.57c2.241,-1.231 2.124,-0.996 4.646,-1.57Z" style="fill:#d11c27;fill-opacity:0.04;"/><path d="M217.091,213.693c1.023,0.382 5.019,-0.337 1.712,4.632c-1.117,-2.397 -1.185,-2.197 -1.712,-4.632Z" style="fill:#d71520;fill-opacity:0.04;"/><path d="M231.206,43.81c1.387,6.564 -3.078,1.607 -3.268,1.396l3.268,-1.396Z" style="fill:#de1b29;fill-opacity:0.04;"/><path d="M451.243,205.26c0.709,0.162 1.419,0.324 2.128,0.486c-2.316,1.881 -2.274,1.481 -5.154,2.825c0.079,-0.199 -0.094,-0.152 0.772,-2.558c0.751,-0.251 1.503,-0.502 2.254,-0.753Z" style="fill:#e81b25;fill-opacity:0.1;"/><path d="M303.725,246.078c1.532,2.94 2.148,3.367 -0.376,5.538c-0.178,-2.828 -0.191,-2.668 0.376,-5.538Z" style="fill:#f81c2f;fill-opacity:0.05;"/><path d="M506.809,216.287c3.525,0.91 3.32,0.746 6.717,2.142c-3.493,-0.806 -3.705,0.041 -6.717,-2.142Z" style="fill:#db1721;fill-opacity:0.2;"/><path d="M485.842,285.374l-0.267,0.398c-0.308,0.485 -0.617,0.97 -0.925,1.455c-0.384,0.007 -2.25,0.042 -4.511,-1.635c1.901,-0.073 3.802,-0.145 5.703,-0.218Z" style="fill:#c71822;fill-opacity:0.18;"/><path d="M396.972,223.783c2.977,1.69 2.251,2.203 2.106,5.615c-1.446,-2.904 -1.474,-2.622 -2.106,-5.615Z" style="fill:#cc1721;fill-opacity:0.1;"/><path d="M215.274,208.477c2.052,1.537 2.391,1.566 1.62,4.199c-0.54,-1.4 -1.08,-2.799 -1.62,-4.199Z" style="fill:#ed1e2c;fill-opacity:0.05;"/><path d="M506.795,264.496c1.286,1.161 1.291,0.985 1.867,2.738c-0.36,0.662 -0.719,1.324 -1.079,1.986c-0.611,-1.79 -0.228,-1.855 -1.828,-3.168l1.041,-1.555Z" style="fill:#f01e24;fill-opacity:0.21;"/><path d="M110.9,78.904c-0.242,0.141 -0.182,-0.016 -3.142,1.552l-1.144,-0.06c1.233,-2.411 1.551,-2.103 4.286,-1.491Z" style="fill:#da212a;fill-opacity:0.04;"/><path d="M503.543,47.069c2.368,1.023 2.824,2.051 0.42,3.335c-0.14,-1.112 -0.28,-2.223 -0.42,-3.335Z" style="fill:#dc2d37;fill-opacity:0.06;"/><path d="M116.642,91.55c-1.402,2.492 -1.757,2.084 -4.361,1.395c2.103,-1.202 1.982,-1.242 4.361,-1.395Z" style="fill:#e61f2b;fill-opacity:0.05;"/><path d="M447.893,280.678c3.07,0.963 2.861,0.962 5.61,2.207c-3.266,-0.134 -3.149,-0.144 -5.61,-2.207Z" style="fill:#dd1c26;fill-opacity:0.16;"/><path d="M199.044,227.061c-0.792,0.408 -1.584,0.817 -2.376,1.225c0.027,-0.212 1.203,-9.556 2.376,-1.225Z" style="fill:#f61927;fill-opacity:0.11;"/><path d="M254.322,12.163c-0.245,0.138 -0.17,-0.043 -3.173,1.524l-1.109,0c1.218,-2.345 1.525,-2.1 4.282,-1.524Z" style="fill:#d71e29;fill-opacity:0.05;"/><path d="M382.308,200.041c1.334,-2.291 2.268,-2.048 3.44,0.296c-1.147,-0.099 -2.293,-0.197 -3.44,-0.296Z" style="fill:#da212c;fill-opacity:0.07;"/><path d="M181.087,213.827c-0.703,2.325 -0.471,2.281 -1.545,4.276c-0.515,-2.613 -0.941,-2.961 1.545,-4.276Z" style="fill:#d51722;fill-opacity:0.07;"/><path d="M279.094,273.916c0.011,0.443 -0.105,0.34 -0.376,5.523c-1.416,-2.794 -1.2,-2.897 0.376,-5.523Z" style="fill:#e01a28;fill-opacity:0.12;"/><path d="M518.309,215.043c0.667,2.667 0.78,2.88 -1.445,4.284c1.054,-3.365 0.935,-3.236 1.445,-4.284Z" style="fill:#d5252f;fill-opacity:0.09;"/><path d="M331.226,261.659c-0.911,2.359 -0.837,2.267 -2.476,4.308c0.033,-4.265 1.445,-3.509 2.476,-4.308Z" style="fill:#e61421;fill-opacity:0.12;"/><path d="M381.579,239.387c0.014,0.278 0.101,2.029 0.593,3.43c-2.051,-1.06 -1.907,-1.483 -0.593,-3.43Z" style="fill:#e61a25;fill-opacity:0.05;"/><path d="M398.067,48.698c-1.66,1.199 -1.405,1.441 -3.489,1.684c1.358,-1.749 1.276,-2.177 3.489,-1.684Z" style="fill:#ec222c;fill-opacity:0.05;"/><path d="M465.7,200.365c2.071,-1.324 2.057,-0.468 4.445,-0.224l-2.13,0.603l-2.315,-0.379Z" style="fill:#ee1b25;fill-opacity:0.08;"/><path d="M242.11,17.785c-1.424,0.502 -2.849,1.004 -4.273,1.506c1.63,-2.125 1.808,-2.072 4.273,-1.506Z" style="fill:#d81a23;fill-opacity:0.1;"/><path d="M372.199,114.636c-0.575,0.951 0.16,3.248 -4.419,1.995l4.419,-1.995Z" style="fill:#d51823;fill-opacity:0.14;"/><path d="M437.97,217.193c-1.653,2.016 -1.524,1.792 -3.418,3.294c0.476,-2.754 0.675,-2.702 3.418,-3.294Z" style="fill:#d6151c;fill-opacity:0.13;"/><path d="M68.759,216.113c1.872,1.217 1.904,1.16 2.198,3.325c-1.685,-1.371 -2.1,-1.06 -2.198,-3.325Z" style="fill:#ef1a2a;fill-opacity:0.06;"/><path d="M416.157,282.834c-0.507,2.597 -1.35,1.955 -3.782,1.123c3.385,-0.939 3.378,-0.885 3.782,-1.123Z" style="fill:#e11f29;fill-opacity:0.14;"/><path d="M395.694,283.908c0.355,-0.033 0.29,0.042 4.452,-0.044l1.202,0.721c-2.902,0.501 -2.795,0.245 -5.654,-0.677Z" style="fill:#c71c27;fill-opacity:0.11;"/><path d="M392.132,276.178c0.412,1.472 0.824,2.944 1.236,4.416l-0.78,-0.228c-0.494,-0.686 -0.988,-1.373 -1.483,-2.059l1.026,-2.128Z" style="fill:#d41520;fill-opacity:0.11;"/><path d="M400.146,283.863c1.854,0.028 3.709,0.055 5.563,0.083c-2.173,0.674 -1.981,1.079 -4.361,0.638l-1.202,-0.721Z" style="fill:#cd1a26;fill-opacity:0.11;"/><path d="M323.433,283.876c1.483,0.029 2.966,0.057 4.45,0.086c-2.802,0.849 -2.694,1.115 -5.656,0.629l1.206,-0.715Z" style="fill:#c71b26;fill-opacity:0.12;"/><path d="M384.385,250.548c0.968,2.292 0.252,2.387 -2.061,3.076c0.194,-0.224 -0.004,-0.238 2.061,-3.076Z" style="fill:#d91625;fill-opacity:0.07;"/><path d="M503.532,198.073c3.506,-0.853 3.325,-0.827 6.696,0.08c-2.232,-0.027 -4.464,-0.053 -6.696,-0.08Z" style="fill:#ce0f15;fill-opacity:0.2;"/><path d="M15.456,283.959c1.857,0.003 3.713,0.007 5.57,0.01c-2.859,0.86 -2.796,0.832 -5.57,-0.01Z" style="fill:#cb1e28;fill-opacity:0.12;"/><path d="M468.004,267.012c1.92,-0.527 2.443,-2.211 4.223,0.53c-2.08,0.052 -3.894,-0.441 -4.223,-0.53Z" style="fill:#e11b27;fill-opacity:0.04;"/><path d="M230.035,283.979c1.857,-0.02 3.714,-0.04 5.57,-0.06c-2.803,0.872 -2.735,0.894 -5.57,0.06Z" style="fill:#cc1a25;fill-opacity:0.14;"/><path d="M215.472,278.353c0.893,2.24 0.826,2.104 1.167,4.481c-1.965,-1.751 -1.038,-1.925 -1.167,-4.481Z" style="fill:#e0141d;fill-opacity:0.17;"/><path d="M230.065,154.013c0.329,-0.083 2.156,-0.547 4.207,-0.501c-1.769,2.649 -2.268,1.014 -4.207,0.501Z" style="fill:#e41823;fill-opacity:0.05;"/><path d="M182.375,64.134c1.176,-0.176 0.875,-0.524 2.013,-0.694c0.163,-0.024 -0,0 2.061,0.026c-0.43,0.645 -0.114,2.19 -4.074,0.668Z" style="fill:#e0151f;fill-opacity:0.07;"/><path d="M154.334,75.719c0.702,-0.004 1.405,-0.009 2.107,-0.013c-1.527,2.211 -1.807,1.448 -4.26,1.282l2.153,-1.269Z" style="fill:#d21b27;fill-opacity:0.07;"/><path d="M291.228,94.989l-2.154,1.301c-0.702,-0.007 -1.404,-0.014 -2.105,-0.021c1.912,-1.394 1.845,-1.468 4.26,-1.28Z" style="fill:#cc1a24;fill-opacity:0.08;"/><path d="M6.566,283.939c-1.798,0.209 -3.596,0.419 -5.394,0.628c1.798,-0.209 3.596,-0.419 5.394,-0.628Z" style="fill:#bd1f27;fill-opacity:0.17;"/><path d="M314.372,85.575c-2.262,1.041 -2.078,0.964 -2.262,1.041c-0.541,0.226 -0.382,-0.066 -1.062,0.217c1.166,-1.843 1.287,-1.681 3.324,-1.259Z" style="fill:#d61925;fill-opacity:0.1;"/><path d="M399.791,231.852c1.401,1.973 1.425,1.901 1.351,4.259c-0.769,-2.17 -0.9,-1.934 -1.351,-4.259Z" style="fill:#bf141f;fill-opacity:0.13;"/><path d="M152.244,59.372c-0.376,0.129 -3.297,1.13 -4.494,2.128c1.97,-1.865 1.756,-2.121 4.494,-2.128Z" style="fill:#ac1218;fill-opacity:0.18;"/><path d="M518.023,199.203c1.879,-0.514 1.977,-1.216 3.374,0.119c-1.125,-0.04 -2.249,-0.079 -3.374,-0.119Z" style="fill:#d32835;fill-opacity:0.05;"/><path d="M470.394,217.732l2.129,0.803c-1.737,0.942 -1.589,0.514 -3.617,0.484c1.502,-1.048 1.352,-1.208 1.488,-1.287Z" style="fill:#bf111a;fill-opacity:0.11;"/><path d="M440.122,214.85c-0.987,1.382 -0.821,1.222 -2.152,2.344c0.717,-0.781 1.435,-1.562 2.152,-2.344Z" style="fill:#f81d31;fill-opacity:0.09;"/><path d="M57.702,198.114c2.886,-0.705 2.732,-0.282 5.571,0.022c-1.857,-0.007 -3.714,-0.015 -5.571,-0.022Z" style="fill:#c90c10;fill-opacity:0.24;"/><path d="M236.706,82.643c-0.291,1.866 -0.286,1.706 -1.262,3.297c0.155,-1.963 -0.224,-2.064 1.262,-3.297Z" style="fill:#ec1622;fill-opacity:0.14;"/><path d="M429.409,263.776c1.021,1.156 0.855,1.027 1.64,2.524c-3.172,-0.44 -1.719,-1.876 -1.64,-2.524Z" style="fill:#f11218;fill-opacity:0.12;"/><path d="M463.722,221.821c-0.774,0.726 -1.548,1.452 -2.322,2.177c1.047,-1.351 0.865,-1.195 2.322,-2.177Z" style="fill:#fb161f;fill-opacity:0.12;"/><path d="M28.868,259.43c-0.178,1.371 -0.357,2.742 -0.535,4.113c-0.416,-2.1 -0.336,-1.919 0.535,-4.113Z" style="fill:#dd111d;fill-opacity:0.2;"/><path d="M470.394,217.732c1.046,-0.183 2.091,-0.366 3.137,-0.549c-0.336,0.451 -0.672,0.902 -1.008,1.353l-2.129,-0.803Z" style="fill:#f71823;fill-opacity:0.18;"/><path d="M250.041,13.687l1.109,-0c-1.109,0.377 -2.217,0.754 -3.326,1.131c0.965,-1.028 0.81,-0.984 2.217,-1.131Z" style="fill:#e1151d;fill-opacity:0.22;"/><path d="M69.936,283.942c1.484,0.002 2.967,0.004 4.451,0.006c-2.355,0.643 -2.234,0.606 -4.451,-0.006Z" style="fill:#bf1620;fill-opacity:0.2;"/><path d="M64.574,283.659c1.418,0.093 2.835,0.186 4.253,0.279c-2.315,0.445 -2.089,0.335 -4.253,-0.279Z" style="fill:#be131c;fill-opacity:0.24;"/><path d="M461.331,284.902c3.205,0.086 3.039,0.188 3.304,0.19l1.109,0.036c-2.332,0.407 -2.09,0.303 -4.412,-0.226Z" style="fill:#bd1017;fill-opacity:0.18;"/><path d="M62.181,213.77l3.295,0.151l0.984,0.264c-2.324,0.273 -2.181,0.332 -4.279,-0.416Z" style="fill:#b90c15;fill-opacity:0.16;"/><path d="M248.967,55.983c-0.376,1.107 -0.753,2.213 -1.129,3.32c0.239,-1.889 -0.306,-1.935 1.129,-3.32Z" style="fill:#e80f15;fill-opacity:0.25;"/><path d="M459.065,202.678c-0.278,0.161 -2.17,1.255 -3.441,2.061c1.382,-1.706 1.473,-1.173 3.441,-2.061Z" style="fill:#ce161f;fill-opacity:0.24;"/><path d="M374.549,59.202c-1.096,0.412 -2.193,0.823 -3.289,1.235c1.438,-1.292 1.389,-0.899 3.289,-1.235Z" style="fill:#d1171e;fill-opacity:0.17;"/><path d="M463.723,200.925l1.977,-0.56l2.315,0.379c-2.285,0.28 -2.076,0.291 -4.292,0.181Z" style="fill:#dc1117;fill-opacity:0.32;"/><path d="M61.182,213.414c2.384,-0.126 2.116,0.058 4.294,0.508l-3.295,-0.151l-0.999,-0.356Z" style="fill:#db0c15;fill-opacity:0.29;"/><path d="M491.316,285.119l4.411,-0.229c-2.319,0.517 -2.077,0.621 -4.411,0.229Z" style="fill:#bb0e15;fill-opacity:0.22;"/><path d="M146.75,61.886c-1.074,0.743 -1.009,0.561 -2.263,0.821c0.93,-0.947 0.87,-0.953 2.263,-0.821Z" style="fill:#e8181e;fill-opacity:0.16;"/><path d="M73.366,96.359c-1.035,0.717 -0.95,0.561 -2.256,0.819c1.017,-1.009 0.925,-0.935 2.256,-0.819Z" style="fill:#e51c23;fill-opacity:0.16;"/><path d="M460.09,284.274c1.515,0.273 3.029,0.546 4.544,0.818c-0.265,-0.002 -0.099,-0.103 -3.304,-0.19l-1.24,-0.628Z" style="fill:#d40f14;fill-opacity:0.35;"/><path d="M54.37,212.784c1.482,0.051 2.965,0.101 4.447,0.152c-2.337,0.304 -2.123,0.245 -4.447,-0.152Z" style="fill:#be0f19;fill-opacity:0.24;"/><path d="M209.814,152.794c1.002,0.848 0.895,0.715 1.32,2.129c-0.44,-0.71 -0.88,-1.419 -1.32,-2.129Z" style="fill:#f11b29;fill-opacity:0.18;"/><path d="M64.376,198.139c2.337,-0.54 2.212,-0.516 4.46,0.014l-4.46,-0.014Z" style="fill:#bd0c13;fill-opacity:0.22;"/><path d="M13.948,218.205c-0.072,0.27 0.028,0.21 -0.62,3.432c-0.633,-1.824 -0.771,-1.867 0.62,-3.432Z" style="fill:#dd121b;fill-opacity:0.27;"/><path d="M58.792,276.121c1.158,1.071 1.079,0.975 2.175,2.282c-0.725,-0.761 -1.45,-1.521 -2.175,-2.282Z" style="fill:#e4131b;fill-opacity:0.25;"/><path d="M43.443,253.738c1.098,1.311 0.957,1.131 1.877,2.474c-1.406,-1.366 -1.639,-1.099 -1.877,-2.474Z" style="fill:#d70c13;fill-opacity:0.29;"/><path d="M106.614,80.396l1.144,0.06c-1.114,0.366 -2.228,0.732 -3.341,1.098c1.018,-0.899 0.896,-0.825 2.198,-1.158Z" style="fill:#c7151a;fill-opacity:0.25;"/><path d="M505.81,276.106c-0.18,1.065 -0.359,2.129 -0.539,3.194l-0.741,1.231c0.427,-1.475 0.853,-2.95 1.28,-4.425Z" style="fill:#b50e13;fill-opacity:0.31;"/><path d="M159.992,283.951l3.332,-0.185l-1.066,0.717c-0.755,-0.177 -1.51,-0.355 -2.265,-0.532Z" style="fill:#d11824;fill-opacity:0.2;"/><path d="M209.347,144.001c0.17,1.697 0.055,1.528 -0.535,3.124c0.178,-1.041 0.357,-2.083 0.535,-3.124Z" style="fill:#d4151c;fill-opacity:0.25;"/><path d="M503.097,41.713c0.172,1.042 0.344,2.085 0.515,3.127c-0.527,-1.56 -0.674,-1.416 -0.515,-3.127Z" style="fill:#d3111a;fill-opacity:0.24;"/><path d="M116.582,228.284l-0.003,1.111c-0.054,0.734 -0.109,1.467 -0.163,2.201c-0.352,-1.71 -0.304,-1.485 0.166,-3.312Z" style="fill:#ce0c11;fill-opacity:0.18;"/><path d="M286.968,96.27c0.702,0.007 1.404,0.014 2.105,0.021c-0.8,0.219 -1.601,0.439 -2.401,0.658l0.296,-0.679Z" style="fill:#dd121b;fill-opacity:0.29;"/><path d="M156.734,75.03l-0.293,0.675c-0.702,0.004 -1.405,0.009 -2.107,0.013c0.8,-0.229 1.6,-0.459 2.4,-0.688Z" style="fill:#dd1119;fill-opacity:0.29;"/><path d="M408.605,257.405c0.18,1.037 0.36,2.073 0.54,3.11c-0.588,-1.632 -0.673,-1.477 -0.54,-3.11Z" style="fill:#ce0d14;fill-opacity:0.27;"/><path d="M410.83,264.077c0.177,1.037 0.355,2.074 0.532,3.11c-0.576,-1.623 -0.66,-1.467 -0.532,-3.11Z" style="fill:#cd0d13;fill-opacity:0.27;"/><path d="M366.746,267.606l3.427,-0.002c-1.701,0.42 -1.506,0.473 -3.427,0.002Z" style="fill:#db111f;fill-opacity:0.29;"/><path d="M213.264,271.672c0.584,1.621 0.669,1.464 0.536,3.115c-0.179,-1.038 -0.358,-2.077 -0.536,-3.115Z" style="fill:#cd0d12;fill-opacity:0.27;"/><path d="M468.167,18.601c1.045,-0.165 2.089,-0.33 3.134,-0.495c-1.609,0.501 -1.473,0.622 -3.134,0.495Z" style="fill:#cf1117;fill-opacity:0.26;"/><path d="M117.07,226.233c0.118,1.655 0.006,1.519 -0.49,3.163l0.003,-1.111l0.487,-2.052Z" style="fill:#ce0e15;fill-opacity:0.27;"/><path d="M302.491,273.871c0.373,1.785 0.332,1.602 -0.092,3.349l0.092,-3.349Z" style="fill:#cc1119;fill-opacity:0.21;"/><path d="M513.557,198.169c1.138,0.28 2.276,0.559 3.415,0.839c-1.138,-0.28 -2.276,-0.559 -3.415,-0.839Z" style="fill:#c91119;fill-opacity:0.31;"/><path d="M248.95,149.435c1.623,-0.517 1.475,-0.632 3.161,-0.517c-1.054,0.172 -2.107,0.344 -3.161,0.517Z" style="fill:#cd0b11;fill-opacity:0.27;"/><path d="M406.377,250.733c0.185,1.035 0.37,2.071 0.555,3.106c-0.546,-1.544 -0.683,-1.399 -0.555,-3.106Z" style="fill:#cb0b13;fill-opacity:0.27;"/><path d="M477.983,216.162c1.066,-0.174 2.132,-0.348 3.198,-0.522c-1.066,0.174 -2.132,0.348 -3.198,0.522Z" style="fill:#cd0f14;fill-opacity:0.26;"/><path d="M352.29,267.604l3.383,0.032c-1.842,0.429 -1.65,0.392 -3.383,-0.032Z" style="fill:#d9121f;fill-opacity:0.31;"/><path d="M355.673,267.636l3.385,0c-1.888,0.437 -1.692,0.395 -3.385,-0Z" style="fill:#d9111e;fill-opacity:0.31;"/><path d="M364.634,243.886c-0.396,0.73 -0.792,1.46 -1.188,2.189c0.396,-0.73 0.792,-1.46 1.188,-2.189Z" style="fill:#c90d17;fill-opacity:0.25;"/><path d="M253.464,232.836c-0.4,0.707 -0.801,1.413 -1.201,2.12c0.4,-0.707 0.801,-1.413 1.201,-2.12Z" style="fill:#e20e16;fill-opacity:0.3;"/><path d="M394.578,50.382c-0.742,0.371 -1.484,0.742 -2.226,1.113c1.07,-0.853 0.936,-0.77 2.226,-1.113Z" style="fill:#c00f14;fill-opacity:0.29;"/><path d="M276.823,1.868c-0.756,0.264 -1.513,0.528 -2.269,0.793c0.756,-0.264 1.513,-0.528 2.269,-0.793Z" style="fill:#cc151d;fill-opacity:0.25;"/></g></svg>