<?xml version="1.0" encoding="UTF-8" standalone="no"?><!DOCTYPE svg PUBLIC "-//W3C//DTD SVG 1.1//EN" "http://www.w3.org/Graphics/SVG/1.1/DTD/svg11.dtd"><svg width="100%" height="100%" viewBox="0 0 2002 402" version="1.1" xmlns="http://www.w3.org/2000/svg" xmlns:xlink="http://www.w3.org/1999/xlink" xml:space="preserve" xmlns:serif="http://www.serif.com/" style="fill-rule:evenodd;clip-rule:evenodd;stroke-linejoin:round;stroke-miterlimit:2;"><g id="Fondo"><path d="M482.943,331.282c-98.183,13.06 -93.663,30.22 -189.375,55.937c-146.084,39.251 -283.187,-8.899 -292.312,-45.546c-11.324,-45.477 57.19,-40.418 75.936,-43.554c57.288,-9.583 59.819,-25.964 69.667,-19.121c14.91,10.361 16.026,12.308 23.424,7.393c5.886,-3.911 -21.492,-12.138 -15.087,-16.331c1.48,-0.969 10.993,-7.196 19.335,-10.716c5.658,-2.387 18.755,13.98 25.32,9.793c3.691,-2.354 6.988,-2.906 3.314,-5.247c-13.911,-8.862 -20.862,-9.421 -14.669,-13.095c26.465,-15.701 57.536,-38.633 62.384,-42.212c21.657,-15.984 21.247,-16.349 44.532,-38.777c0.474,-0.457 23.993,-27.557 41.457,-2.952c9.871,13.908 4.015,22.623 11.545,25.667c72.626,29.36 82.238,24.286 92.822,-3.208c2.742,-7.124 16.686,-22.943 27.198,11.218c9.669,31.424 23.52,49.267 16.76,57.292c-30.856,36.629 -87.232,9.597 -164.541,43.565c-94.581,41.557 -172.495,76.768 -295.691,38.622c-6.359,-1.969 -7.518,-3.483 -7.679,-1.181c-0.994,14.223 106.487,69.3 248.021,35.79c66.977,-15.858 63.271,-40.596 146.988,-51.274c57.512,-7.336 78.894,-58.492 84.256,-49.032c7.151,12.62 11.022,25.637 11.713,27.961c4.116,13.844 -7.462,26.965 -19.564,28.504c-1.909,0.243 -3.843,0.26 -5.753,0.503Z" style="fill:#0a325e;"/><path d="M654.145,181.163c-39.631,5.633 -46.46,28.626 -52.375,28.979c-0.611,0.036 -115.937,0.479 -117.228,-0.173c-4.672,-2.358 -15.321,-55.842 -43.67,-36.056c-10.936,7.632 -7.743,33.517 -35.788,25.577c-0.975,-0.276 -11.394,-3.226 -11.826,-4.526c-1.005,-3.027 92.388,-161.87 100.602,-175.841c0.668,-1.136 7.016,-11.932 8.345,-14.208c3.259,-5.579 4.662,-4.488 26.047,-4.665c7.29,-0.06 220.051,0.328 271.435,-0.149c4.585,-0.043 -3.406,8.436 -6.38,12.674c-3.765,5.366 -45.334,64.616 -48.769,65.85c-4.358,1.566 -186.908,-1.181 -190.985,1.404c-1.335,0.847 -24.778,41.766 -31.335,52.27c-2.456,3.935 -4.375,6.406 0.317,6.443c38.278,0.301 166.744,-0.987 167.02,0.807c0.521,3.387 -1.935,2.457 -24.828,34.912c-3.813,5.405 -3.884,5.812 -10.581,6.701Z" style="fill:#0a325e;"/><path d="M33.871,222.979c-9.526,-128.897 88.792,-194.397 129.784,-210.009c46.187,-17.59 54.885,-11.967 300.974,-12.584c0.266,-0.001 7.536,-1.991 3.614,4.525c-3.48,5.781 -42.143,70.002 -43.672,72.162c-2.028,2.864 -3.094,1.5 -187.613,2.002c-91.32,0.249 -119.745,76.672 -122.922,101.543c-5.844,45.753 21.158,74.087 22.001,75.276c5.073,7.157 -81.035,35.568 -85.984,26.676c-11.869,-21.326 -15.628,-54.682 -16.181,-59.591Z" style="fill:#0a325e;"/><path d="M675.783,271.228l-0.069,2.86c-5.65,24.513 -41.602,1.574 -22.64,-21.053c22.457,-26.798 68.82,6.019 45.626,43.096c-8.399,13.426 -26.888,20.693 -43.288,16.404c-4.351,-1.138 -5.287,-3.769 -7.748,0.032c-36.354,56.166 -92.482,46.841 -93.759,49.365c-1.119,2.213 0.504,4.61 30.903,2.385c59.835,-4.378 62.418,-52.204 118.812,-36.727c4.109,1.128 17.675,19.2 45.212,17.852c50.914,-2.491 49.252,-56.916 151.202,-25.919c1.015,0.308 21.571,6.558 11.428,6.715c-2.412,0.037 -36.02,-14.86 -73.581,-5.876c-46.052,11.016 -58.207,55.522 -125.991,34.763c-45.31,-13.876 -39.55,29.555 -108.69,29.418c-48.643,-0.096 -115.522,-36.966 -212.128,-6.084c-0.269,0.086 -14.322,2.777 -2.615,-2.365c22.516,-9.889 51.642,-17.972 56.223,-19.244c67.779,-18.811 86.919,2.383 117.646,-26.204c2.569,-2.39 27.21,10.973 44.989,-10.16c21.243,-25.252 -12.003,-57.571 -32.235,-39.303c-13.343,12.048 0.061,28.779 -1.682,19.623c-0.016,-0.086 -3.919,-8.394 3.343,-13.509c16.945,-11.934 36.054,19.318 12.081,31.418c-27.493,13.877 -67.186,-24.086 -38.712,-61.227c6.699,-8.738 23.546,-18.194 43.244,-13.467c0.624,0.15 7.545,1.811 8.028,0.066c1.155,-4.173 2.095,-15.57 14.731,-27.944c13.189,-12.917 30.898,-12.126 33.762,-11.998c6.202,0.277 6.515,0.843 11.715,-3.186c29.712,-23.025 65.537,-7.733 77.051,19.361c2.422,5.699 1.216,6.997 4.587,7.808c0.399,0.096 35.146,-11.373 54.526,17.892c12.305,18.581 -0.232,35.696 6.173,36.727c5.464,0.879 28.319,4.558 66.19,20.113c5.923,2.433 0.497,3.364 0.347,3.326c-84.46,-21.407 -86.008,35.726 -131.408,26.649c-43.472,-8.692 -24.798,-65.615 8.37,-56.052c23.919,6.897 12.104,36.955 -5.596,27.989c-7.608,-3.854 -1.377,2.58 -1.17,2.691c28.953,15.501 44.534,-42.896 -0.319,-45.643c-10.977,-0.672 -19.752,6.418 -20.949,3.502c-0.872,-2.124 -1.844,-17.348 -18.995,-29.05c-32.169,-21.948 -77.233,14.369 -59.867,42.948c9.31,15.32 39.044,13.04 37.458,-6.59c-0.735,-0.467 -1.471,-0.935 -2.206,-1.402Z" style="fill:#cc9b43;"/><path d="M1516.088,246.294c-13.906,1.423 -54.071,7.986 -48.166,-41.783c4.549,-38.335 54.968,-25.933 62.084,-19.364c2.427,2.24 13.618,12.57 8.197,40.463c-3.542,18.229 -19.915,20.054 -22.116,20.684Z" style="fill:#0a315d;"/><path d="M1582.705,178.312c6.678,0.284 33.472,-2.2 37.51,23.527c9.438,60.133 -50.017,45.561 -58.496,40.481c-19.123,-11.458 -10.545,-45.277 -10.128,-46.263c7.128,-16.852 19.264,-16.647 31.114,-17.745Z" style="fill:#0a315d;"/><path d="M444.601,243.863c-53.586,4.337 -92.24,-19.56 -129.87,-5.274c-30.234,11.479 -67.385,40.9 -131.491,59.574c-7.091,2.066 -1.472,-2.621 -1.254,-2.722c65.684,-30.241 118.785,-88.762 152.544,-85.182c28.013,2.971 76.374,27.637 107.519,30.983c3.881,0.417 2.267,2.048 2.552,2.62Z" style="fill:#fafbfb;"/><path d="M1763.932,221.355c0.362,0.196 0.723,0.391 1.085,0.587c0.039,-0.014 1.034,0.979 1.406,-0.496c0.842,-3.344 10.055,-39.928 12.634,-41.209c0.796,-0.395 18.639,-3.006 16.64,2.953c-18.7,55.746 -18.143,55.894 -19.784,60.734c-1.087,3.206 -19.186,3.371 -20.337,0.042c-12.753,-36.876 -10.177,-40.862 -12.958,-39.094c-0.448,0.285 -0.321,0.385 -8.884,27.86c-0.2,0.64 -2.515,13.132 -6.78,13.269c-11.217,0.36 -16.073,0.811 -17.329,-3.173c-1.536,-4.873 -18.979,-60.211 -19.084,-60.943c-0.486,-3.375 16.912,-3.505 18.342,-0.138c3.028,7.128 9.451,33.755 10.166,36.718c1.276,5.291 3.091,3.137 3.228,2.822c1.22,-2.781 0.643,-2.944 10.728,-36.415c2.44,-8.098 5.158,-5.252 13.702,-5.215c7.361,0.032 6.666,5.251 13.302,27.548c2.104,7.069 2.138,6.934 3.923,14.15Z" style="fill:#0a325e;"/><path d="M993.071,246.388c-0.311,-0.054 -40.839,0.67 -38.305,-48.926c2.174,-42.56 29.819,-44.069 82.154,-41.482c4.356,0.215 3.596,15.218 -0.114,15.624c-24.298,2.662 -61.134,-13.575 -61.493,30.111c-0.356,43.337 53.236,24.367 63.091,27.977c1.931,0.707 1.426,11.99 1.379,13.038c-0.228,5.1 -34.957,3.838 -46.711,3.658Z" style="fill:#0a335e;"/><path d="M1299.76,246.371c-2.616,0.229 -25.559,2.239 -31.759,-8.324c-4.005,-6.824 -7.215,-28.354 14.979,-31.59c17.507,-2.553 31.173,2.917 29.493,-6.144c-3.044,-16.414 -41.107,-0.77 -41.393,-9.873c-0.239,-7.608 -1.428,-10.287 6.189,-10.801c46.634,-3.149 54.052,1.633 54.208,30.549c0.177,32.835 1.601,33.457 -0.518,35.328c-0.803,0.71 -14.018,1.016 -15.201,-0.359c-2.482,-2.883 -2.853,-3.32 -6.306,-1.687c-2.882,1.364 -2.932,1.092 -9.693,2.9Z" style="fill:#0a325e;"/><path d="M1895.301,246.403c-0.671,-0.185 -6.169,-1.701 -8.2,-2.9c-8.235,-4.865 -19.952,-34.995 15.155,-37.632c18.194,-1.367 26.358,3.391 22.662,-7.005c-2.567,-7.221 -13.609,-6.312 -15.591,-6.352c-17.395,-0.354 -28.417,6.302 -24.315,-10.678c0.487,-2.015 1.085,-2.694 25.729,-3.065c44.417,-0.669 30.439,28.518 33.007,61.078c0.755,9.566 -3.848,7.356 -13.294,6.155c-3.216,-0.409 -2.646,-5.407 -6.975,-3.274c-12.561,6.188 -22.527,4.159 -28.178,3.673Z" style="fill:#0a325e;"/><path d="M1851.307,246.387c-3.895,0.177 -56.221,9.819 -49.724,-40.473c5.073,-39.27 53.313,-29.873 61.989,-16.581c6.176,9.461 7.449,29.504 1.965,29.751c-10.947,0.493 -43.474,-1.145 -45.057,1.125c-0.465,0.667 -0.345,8.75 8.17,11.443c15.254,4.823 36.293,-3.457 36.574,2.606c0.196,4.227 0.932,10.462 -2.618,10.983c-0.899,0.132 -0.837,0.085 -11.299,1.146Z" style="fill:#0a325f;"/><path d="M1126.779,205.947c0.05,37.562 0.916,40.069 -3.651,40.093c-3.637,0.019 -14.895,0.893 -15.322,-1.977c-2.884,-19.42 9.366,-51.185 -15.796,-50.377c-16.059,0.516 -16.085,6.575 -16.092,8.013c-0.182,41.34 1.387,44.29 -3.693,44.335c-4.01,0.035 -15.005,0.958 -15.394,-1.952c-0.014,-0.101 -0.625,-85.626 0.362,-87.303c0.88,-1.494 17.497,-2.581 18.464,0.879c1.035,3.705 -1.543,25.612 2.203,25.605c3.399,-0.006 7.638,-6.361 29.618,-3.662c6.68,0.82 11.402,4.765 12.306,5.644c5.88,5.72 6.865,18.958 6.995,20.701Z" style="fill:#0b325e;"/><path d="M1429.968,171.428c-14.747,0.331 -26.794,-1.05 -26.078,21.851c0.114,3.634 2.16,2.853 47.282,2.966c8.165,0.02 4.072,12.676 3.721,13.761c-1.136,3.511 -43.971,0.784 -48.923,1.799c-4.143,0.849 -1.051,26.521 -2.334,32.54c-0.555,2.607 -18.634,2.803 -19.167,-0.135c-0.518,-2.853 -0.256,-46.909 -0.232,-50.988c0.24,-40.323 21.7,-38.219 71.204,-37.322c5.027,0.091 3.421,9.609 3.393,11.904c-0.055,4.584 -3.486,3.641 -28.867,3.625Z" style="fill:#0b335f;"/><path d="M1241.9,246.076c-6.184,-0.399 -9.24,2.614 -9.408,-3.371c-0.867,-30.848 6.267,-51.824 -18.811,-48.916c-16.008,1.856 -12.778,9.001 -12.787,10.746c-0.182,36.635 1.14,41.39 -2.78,41.521c-10.001,0.333 -15.993,0.878 -16.155,-3.305c-0.035,-0.901 -0.035,-58.352 -0.018,-59.453c0.093,-6.196 16.158,-3.652 16.928,-2.363c4.392,7.348 8.561,-5.343 34.426,-1.177c20.033,3.227 18.449,20.712 18.003,61.531c-0.071,6.496 -3.025,4.347 -9.398,4.788Z" style="fill:#0a325e;"/><path d="M412.141,297.031l1.322,1.05c-0.304,0.223 0.357,0.908 0.053,1.131c-2.577,1.885 -35.609,0.37 -93.557,36.284c-48.909,30.312 -94.667,31.281 -135.431,33.564c-0.24,0.013 -10.88,-1.065 -1.149,-2.771c24.606,-4.314 34.77,-1.105 118.517,-40.267c42.177,-19.723 55.144,-23.629 106.153,-28.85c0.326,-0.033 0.303,-0.01 4.093,-0.141Z" style="fill:#ce9d46;"/><path d="M1661.038,173.412c0.734,4.946 -0.173,6.055 2.116,6.194c16.39,0.992 19.018,-1.133 19.082,3.695c0.011,0.83 0.128,9.702 -1.912,10.192c-2.54,0.61 -18.265,-1.599 -19.153,2.383c-0.028,0.125 -0.793,27.908 0.46,31.374c4.007,11.088 20.467,0.043 20.909,8.418c0.041,0.786 0.456,8.637 -0.925,9.795c-0.071,0.06 -32.675,8.598 -37.658,-12.764c-2.623,-11.247 1.76,-38.875 -3.352,-39.041c-8.234,-0.267 -9.487,1.547 -10.847,-1.95c-0.366,-0.942 -4.594,-11.818 3.841,-12.042c6.195,-0.164 9.251,2.715 9.426,-3.442c0.039,-1.371 -1.774,-13.177 3.335,-13.74c1.063,-0.117 14.341,-2.164 14.554,0.918c0.345,5 0.061,4.915 0.124,10.012Z" style="fill:#0a325e;"/><path d="M1898.018,117.389c16.596,0.019 96.561,0.005 97.54,0.034c4.116,0.121 3.647,3.565 1.645,4.141c-3.048,0.876 -331.925,0.176 -360.789,0.114c-120.497,-0.257 -131.561,1.627 -128.242,-3.166c1.25,-1.805 1.986,-0.908 389.845,-1.122Z" style="fill:#cb9f48;"/><path d="M1046.75,117.386c398.964,0.477 399.309,0.082 400.019,0.993c4.728,6.058 -3.766,3.399 -95.994,3.354c-388.062,-0.19 -388.721,0.638 -389.71,-0.976c-3.586,-5.848 3.345,-3.277 85.685,-3.371Z" style="fill:#cca049;"/><path d="M1992.794,178.319c6.224,0.129 6.205,0 7.206,0.297c2.212,0.656 1.453,10.85 1.382,11.797c-0.359,4.815 -16.486,0.682 -22.539,5.957c-3.442,2.999 -0.707,42.885 -1.741,47.732c-0.732,3.434 -16.615,1.813 -16.933,1.539c-1.94,-1.671 -0.89,-64.323 -0.66,-64.779c0.697,-1.381 11.06,-1.219 12.027,-1.204c4.4,0.069 3.718,4.06 7.206,2.564c6.803,-2.916 6.75,-2.672 14.052,-3.904Z" style="fill:#09325e;"/><path d="M1103.948,317.656c-0.157,1.723 1.314,5.036 -6.304,4.357c-3.506,-0.313 -3.561,-2.099 -2.47,-43.926c0.138,-5.29 9.989,-4.664 11.874,-1.193c4.784,8.806 12.668,28.731 14.788,25.386c2.71,-4.275 11.725,-27.337 15.315,-27.585c5.922,-0.408 9.011,-1.642 9.026,6.196c0.075,39.186 0.323,41.039 -3.261,41.134c-8.047,0.211 -5.647,-3.518 -5.667,-11.436c-0.022,-8.595 0.089,-8.505 0.436,-17.07c0.567,-14.003 -9.392,20.918 -15.902,21.955c-5.316,0.847 -5.833,-2.245 -11.908,-14.547c-1.533,-3.105 -6.689,-15.322 -6.466,-8.695c0.24,7.142 0.542,7.084 0.542,25.424Z" style="fill:#09315d;"/><path d="M1603.021,317.671c-0.105,2.743 2.672,19.74 -18.907,19.23c-18.113,-0.428 -12.117,-8.404 -11.083,-8.876c0.868,-0.396 21.471,5.338 21.27,-6.148c-0.101,-5.76 -16.289,5.68 -23.977,-7.249c-0.341,-0.574 -12.122,-36.144 22.382,-27.12c1.197,0.313 7.283,-1.998 9.399,-0.481c1.246,0.894 0.858,5.043 0.916,30.643Z" style="fill:#0b3460;"/><path d="M1870.332,280.91c0.148,-5.693 -1.249,-9 6.431,-8.256c2.992,0.29 2.297,2.438 2.327,37.948c0.008,9.142 0.567,14.893 -7.595,10.641c-2.882,-1.501 -16.644,5.418 -23.067,-3.505c-11.357,-15.777 1.723,-38.347 18.397,-30.939c4.406,1.957 3.627,-1.047 3.506,-5.889Z" style="fill:#0d3460;"/><path d="M1149.981,246.062c-3.954,-0.32 -5.477,0.57 -5.569,-3.351c-0.117,-4.951 -1.387,-58.837 0.449,-61.897c0.756,-1.26 12.503,-1.139 13.594,-1.128c6.476,0.067 4.806,2.866 4.816,9.296c0.075,50.929 1.051,51.029 -0.165,55.281c-0.052,0.182 -0.37,1.296 -1.696,1.655c-0.445,0.121 -10.515,0.141 -11.43,0.143Z" style="fill:#09315d;"/><path d="M1503.487,233.391c-3.917,-0.239 -11.222,-0.151 -15.143,-6.478c-2.771,-4.471 -3.535,-19.4 -0.631,-26.735c3.717,-9.39 31.764,-14.898 32.941,7.172c1.178,22.069 -3.831,25.309 -17.167,26.041Z" style="fill:#fcfcfc;"/><path d="M1585.5,233.351c-0.937,-0.062 -21.766,3.409 -17.284,-28.873c2.296,-16.535 31.783,-16.982 33.791,0.113c3.481,29.637 -9.955,28.349 -16.507,28.76Z" style="fill:#fbfbfc;"/><path d="M1716.504,303.514c-0.241,3.048 1.356,14.181 -10.819,18.318c-5.54,1.882 -23.156,2.359 -24.982,-12.725c-3.897,-32.194 34.423,-29.054 35.746,-8.375c0.059,0.926 -0.005,1.857 0.055,2.783Z" style="fill:#0b335f;"/><path d="M1164.222,301.129c12.704,-1.523 13.546,0.204 14.361,-1.641c4.348,-9.836 -19.075,-4.098 -19.943,-7.341c-1.909,-7.133 8.486,-6.249 9.755,-6.332c22.464,-1.464 19.599,10.408 19.949,33.261c0.091,5.962 -8.623,0.893 -11.37,1.777c-23.894,7.686 -28.316,-14.009 -12.752,-19.724Z" style="fill:#0a325e;"/><path d="M1317.653,290.843c0.745,-5.654 5.211,-4.815 10.514,-5.057c20.539,-0.936 19.22,9.413 18.944,33.327c-0.072,6.269 -6.72,0.214 -12.138,2.131c-10.199,3.608 -20.076,0.475 -20.289,-9.251c-0.42,-19.225 32.187,-6.372 21.873,-16.883c-5.92,-6.034 -16.493,3.167 -18.904,-4.266Z" style="fill:#0b335f;"/><path d="M1660.478,313.96c9.146,-0.596 9.086,-0.621 9.878,-0.644c3.234,-0.091 4.214,6.923 -0.145,7.966c-42.489,10.165 -43.412,-31.76 -29.414,-43.037c7.7,-6.203 32.488,-6.029 32.202,-0.182c-0.391,7.981 -4.495,3.848 -15.377,3.96c-2.074,0.021 -18.995,0.195 -14.425,21.54c2.494,11.647 12.399,10.312 17.282,10.398Z" style="fill:#0a325d;"/><path d="M1232.242,310.595c-0.214,8.803 1.22,13.69 -7.295,11.233c-5.793,-1.671 6.385,-33.284 -13.942,-27.533c-3.932,1.113 -4.005,3.192 -4.02,3.625c-0.745,21.277 1.501,23.889 -3.264,24.106c-8.011,0.366 -5.666,-3.491 -5.648,-11.437c0.034,-14.997 -1.348,-23.885 2.809,-24.075c5.891,-0.269 5.935,2.287 11.379,0.224c3.634,-1.377 11.314,-1.523 15.202,1.605c6.376,5.13 4.784,17.037 4.779,22.252Z" style="fill:#0b3461;"/><path d="M1538.964,294.06c-7.024,2.91 -4.87,6.518 -4.863,16.534c0.001,0.882 0.007,10.1 -1.129,10.962c-0.757,0.574 -6.477,1.017 -7.24,-0.845c-0.294,-0.718 -1.325,-32.466 0.653,-33.764c4.681,-3.07 5.484,2.528 12.56,-0.1c4.306,-1.599 17.884,-3.072 19.677,9.605c0.451,3.191 0.889,23.633 -0.506,24.861c-0.493,0.434 -7.429,2.408 -7.881,-2.247c-1.15,-11.836 5.452,-27.213 -11.271,-25.006Z" style="fill:#0e3460;"/><path d="M1438.966,304.937c0.695,7.094 -0.49,9.364 6.532,10.093c9.046,0.939 9.11,-4.963 9.12,-5.829c0.157,-14.415 -1.471,-22.694 3.622,-22.733c7.082,-0.054 5.132,3.669 5.256,28.372c0.054,10.659 -5.147,5.977 -9.484,5.559c-0.316,-0.03 -17.1,7.107 -22.393,-4.254c-1.835,-3.939 -2.114,-27.89 -0.101,-29.346c0.696,-0.503 5.509,-0.579 6.549,0.201c1.346,1.01 0.895,11.362 0.899,17.937Z" style="fill:#0c3460;"/><path d="M1251.011,293.637c0.064,5.811 -3.053,27.601 13.584,19.94c5.984,-2.756 -1.746,-26.85 5.574,-27.084c7.341,-0.235 5.629,4.065 5.519,26.92c-0.015,3.159 2.085,12.043 -8.468,7.301c-2.267,-1.019 -23.815,9.696 -24.718,-11.571c-0.927,-21.838 0.419,-22.375 2.223,-22.573c7.991,-0.88 6.276,3.441 6.287,7.067Z" style="fill:#0d345f;"/><path d="M1488.115,128.348c-1.39,1.395 -8.878,11.673 -12.614,8.012c-16.241,-15.915 -16.002,-16.813 -15.251,-17.677c1.272,-1.463 14.42,-16.58 17.822,-16.413c0.55,0.027 18.31,15.495 16.929,18.829c-0.123,0.297 -0.171,0.274 -6.886,7.249Z" style="fill:#cd9d46;"/><path d="M1794.79,313.869c6.897,-0.018 16.123,-2.368 15.473,5.198c-0.194,2.261 -0.885,3.832 -28.21,2.942c-3.766,-0.123 -2.851,-3.991 -2.887,-31.216c-0.009,-6.547 -1.153,-15.78 2.801,-16.172c8.591,-0.853 6.548,3.308 6.554,11.929c0.018,23.711 -0.423,23.657 0.177,25.617c0.715,2.337 5.935,1.699 6.092,1.703Z" style="fill:#0c3360;"/><path d="M1299.299,300.688c0.028,10.349 1.081,20.913 -2.251,21.262c-8.235,0.862 -6.219,-3.13 -6.248,-11.365c-0.043,-11.959 1.342,-16.051 -3.666,-16.92c-0.46,-0.08 -7.783,-5.347 1.413,-7.162c3.514,-0.694 -0.013,-18.796 19.899,-14.433c0.921,0.202 7.336,6.706 -2.922,6.458c-7.191,-0.173 -8.201,7.807 -2.827,8.031c5.713,0.239 8.272,0.613 5.937,5.816c-0.691,1.539 -6.822,1.251 -7.319,1.37c-3.583,0.854 -1.72,2.294 -2.015,6.942Z" style="fill:#0b335e;"/><path d="M1415.878,322.538c-24.754,0.457 -8.77,-26.944 -15.737,-28.577c-4.646,-1.089 -6.124,-1.269 -4.936,-5.807c0.712,-2.722 6.186,-0.09 6.561,-4.424c0.517,-5.984 0.966,-7.701 6.914,-6.578c3.482,0.658 0.413,9.06 4.324,9.336c5.6,0.395 8.287,-1.323 7.938,4.263c-0.443,7.105 -9.825,-1.271 -10.229,5.731c-0.738,12.769 -0.004,18.713 5.101,18.632c0.597,-0.009 9.273,-0.147 4.796,5.724c-1.163,1.525 -1.468,0.985 -4.73,1.699Z" style="fill:#0a325e;"/><path d="M1366.508,321.403c-0.759,-0.424 -8.988,-2.374 -9.99,-13.648c-0.13,-1.462 -1.102,-12.397 4.725,-17.727c5.857,-5.358 27.808,-7.485 25.777,2.082c-1.07,5.041 -19.309,-4.457 -21.097,8.505c-3.131,22.693 19.415,11.285 21.048,14.501c2.418,4.76 -3.821,10.335 -20.463,6.287Z" style="fill:#0c3561;"/><path d="M1819.386,313.351c-0.221,-15.609 -0.133,-15.595 -0.193,-16.949c-0.146,-3.297 -5.51,-2.095 -6.295,-4.052c-1.83,-4.563 -0.289,-5.13 4.473,-5.964c3.425,-0.6 0.199,-8.169 4.176,-8.802c8.511,-1.353 6.217,4.826 6.329,6.105c0.596,6.79 9.212,-1.061 9.925,5.64c0.811,7.62 -9.981,0.832 -9.977,8.538c0.007,12.304 -2.35,16.495 7.962,17.087c2.911,0.167 3.324,6.019 0.053,7.068c-13.819,4.431 -16.16,-7.212 -16.453,-8.67Z" style="fill:#0a325d;"/><path d="M1018.471,294.845c34.313,0.028 35.5,-0.09 36.445,0.622c0.538,0.405 4.082,5.173 -6.748,5.04c-71.843,-0.878 -87.626,1.965 -87.767,-2.643c-0.112,-3.659 2.13,-2.974 58.069,-3.019Z" style="fill:#cc9d44;"/><path d="M1304.237,233.444c-1.791,0.242 -24.595,3.318 -19.973,-10.543c1.17,-3.508 4.401,-6.233 25.49,-5.488c0.322,0.011 2.94,0.104 3.039,2.652c0.03,0.78 0.329,8.473 -0.55,9.736c-0.906,1.301 -7.337,3.423 -8.005,3.643Z" style="fill:#fafafb;"/><path d="M1925.746,225.737c-1.638,9.096 -4.334,7.661 -13.599,8.365c-1.475,0.112 -19.577,1.487 -14.894,-10.963c3.426,-9.109 27.565,-5.397 27.916,-4.686c0.259,0.524 0.042,0.536 0.577,7.284Z" style="fill:#fafbfc;"/><path d="M1958.822,300.187c-36.542,0.064 -37.027,0.385 -37.795,-1.104c-3.106,-6.02 13.084,-4.333 15.17,-4.331c60.813,0.048 61.756,-0.382 62.402,1.631c1.55,4.831 -2.513,3.868 -39.777,3.804Z" style="fill:#cc9c43;"/><path d="M1483.915,314.837c-0.275,6.61 -0.91,8.904 -7.231,6.906c-2.025,-0.64 -1.845,-2.721 -1.695,-30.955c0.043,-8.09 5.33,-1.458 12.942,-4.26c10.66,-3.925 10.458,6.651 5.655,6.936c-14.324,0.85 -9.668,7.107 -9.671,21.373Z" style="fill:#0b3462;"/><path d="M1830.044,192.656c1.348,-0.132 12.716,-1.242 16.775,2.313c2.743,2.402 4.618,7.378 3.771,9.858c-0.769,2.251 -29.964,2.803 -30.599,-0.235c-1.782,-8.52 8.854,-11.59 10.053,-11.936Z" style="fill:#f9fafb;"/><path d="M1689.606,306.394c0.045,-1.999 -1.552,-12.356 7.55,-13.327c3.96,-0.423 8.255,1.186 9.55,4.939c6.041,17.517 -14.752,25.29 -17.099,8.389Z" style="fill:#fafafb;"/><path d="M1853.641,303.503c0.129,-1.235 1.346,-12.937 11.882,-9.992c8.409,2.35 4.894,18.886 2.865,20.012c-14.03,7.79 -14.69,-8.595 -14.747,-10.021Z" style="fill:#f9f9fa;"/><path d="M1504.565,317.662c0.019,-18.496 -0.075,-28.57 0.354,-29.692c0.762,-1.992 6.384,-1.346 6.974,-1.186c2.768,0.751 2.723,34.174 0.046,35.014c-6.784,2.128 -7.311,-3.462 -7.374,-4.136Z" style="fill:#0b335e;"/><path d="M1586.945,313.781c-2.125,-0.198 -10.241,1.283 -9.52,-11.638c0.773,-13.853 16.644,-9.428 16.807,-4.301c0.349,10.955 2.165,14.138 -7.287,15.939Z" style="fill:#f9f9fb;"/><path d="M1158.456,171.224c-0.521,-0.003 -12.592,0.445 -13.575,-1.029c-0.886,-1.328 -0.529,-11.331 -0.494,-12.317c0.085,-2.377 2.497,-2.475 2.796,-2.487c12.363,-0.503 16.049,-0.279 16.055,3.879c0.012,7.86 3.128,11.531 -4.782,11.953Z" style="fill:#0c345f;"/><path d="M283.828,205.628c-12.79,-5.896 -13.174,-4.783 -14.235,-5.38c-0.617,-0.347 -0.953,-1.553 7.004,-5.404c5.791,-2.803 21.602,6.726 21.397,8.441c-0.899,7.532 -13.096,2.762 -14.166,2.344Z" style="fill:#f8f9fa;"/><path d="M258.029,219.04c7.478,3.905 8.487,3.271 8.521,5.407c0.034,2.144 -6.497,5.589 -8.175,4.95c-17.33,-6.599 -17.37,-8.478 -16.26,-9.497c2.332,-2.141 6.979,-3.468 7.629,-3.654c1.465,-0.419 7.653,2.495 8.285,2.793Z" style="fill:#f7f8f9;"/><path d="M227.159,239.826c4.339,2.253 14.266,5.042 2.808,10.27c-1.325,0.604 -1.467,0.547 -15.359,-6.389c-3.131,-1.563 -4.342,-2.768 -1.358,-4.64c6.512,-4.085 7.074,-2.609 13.909,0.76Z" style="fill:#f8f9fa;"/><path d="M1750.852,328.924c-0.233,0.409 -2.582,4.53 -5.311,2.519c-2.175,-1.603 2.588,-6.41 -0.013,-9.728c-2.522,-3.218 -1.945,-8.476 1.055,-8.907c11.857,-1.704 5.438,12.438 4.269,16.117Z" style="fill:#0e3663;"/><path d="M1326.907,306.895c0.468,-0.019 10.88,-2.039 11.398,2.25c1.459,12.065 -24.307,5.643 -11.398,-2.25Z" style="fill:#f7f8f9;"/><path d="M1168.463,306.82c1.736,-0.044 11.267,-2.33 10.69,3.747c-1.03,10.832 -24.158,2.823 -10.69,-3.747Z" style="fill:#f6f7f8;"/><path d="M1895.201,322.249c-11.252,-0.809 -4.691,-12.814 2.877,-8.918c1.645,0.847 1.294,5.263 1.257,5.73c-0.241,3.032 -1.166,2.564 -4.134,3.188Z" style="fill:#0c3461;"/><path d="M1729.753,322.21c-10.013,-1.363 -4.324,-12.318 2.982,-9.097c2.139,0.943 1.471,5.967 1.466,5.999c-0.522,3.109 -1.414,2.573 -4.448,3.098Z" style="fill:#0b3059;"/><path d="M1504.415,276.638c1.008,-6.695 9.505,-6.57 9.225,1.442c-0.12,3.415 -8.667,7.48 -9.225,-1.442Z" style="fill:#092e56;"/><path d="M675.783,271.228c0.735,0.467 1.471,0.935 2.206,1.402c-1.981,1.163 -1.967,1.067 -2.275,1.458l0.069,-2.86Z" style="fill:#d1a85c;"/></g></svg>