<?xml version="1.0" encoding="UTF-8" standalone="no"?><!DOCTYPE svg PUBLIC "-//W3C//DTD SVG 1.1//EN" "http://www.w3.org/Graphics/SVG/1.1/DTD/svg11.dtd"><svg width="100%" height="100%" viewBox="0 0 1990 410" version="1.1" xmlns="http://www.w3.org/2000/svg" xmlns:xlink="http://www.w3.org/1999/xlink" xml:space="preserve" xmlns:serif="http://www.serif.com/" style="fill-rule:evenodd;clip-rule:evenodd;stroke-linejoin:round;stroke-miterlimit:2;"><g id="Fondo"><path d="M372.176,122.682c16.305,-29.28 -3.343,-59.737 -39.237,-71.8c-64.381,-21.635 -110.095,11.648 -110.296,16.671c-0.069,1.712 0.839,1.032 4.487,2.238c12.132,4.012 28.313,12.674 28.341,13.431c0.069,1.85 -1.02,0.611 -6.236,-0.52c-82.43,-17.877 -177.897,17.991 -216.53,100.648c-35.093,75.083 -2.575,135.851 -2.076,140.397l-0.867,0.229c-0.768,-0.947 -0.694,-0.994 -7.75,-13.691c-64.066,-115.284 15.956,-283.601 184.995,-307.436c140.18,-19.765 216.946,67.918 166.285,120.7l-1.117,-0.869l0.001,0.002Z" style="fill:#1b9ca6;"/><path d="M451.984,392.94c0.045,1.359 -0.212,1.615 -1.535,1.261c-5.87,-1.571 -35.323,-9.453 -75.306,-9.938c-78.815,-0.956 -149.882,33.116 -228.045,-12.252c-88.936,-51.621 -77.37,-153.081 -2.438,-177.424c1.97,-0.64 1.687,0.563 1.243,2.539c-13.169,58.606 20.109,106.696 52.279,128.994c62.555,43.358 113.339,25.6 203.48,49.526c13.168,3.495 47.6,15.911 50.322,17.294Z" style="fill:#07657c;"/><path d="M181.29,398.263c-0.712,0.682 -0.425,0.979 -1.354,1.298c-0.276,0.095 -0.182,0.174 -0.467,0.272c-18.025,-1.391 -58.278,-0.635 -97.125,-26.705c-41.709,-27.991 -54.211,-76.183 -54.181,-109.943c0.114,-125.779 127.718,-199.135 217.271,-162.112c8.524,3.524 30.577,18.616 19.455,15.38c-29.815,-8.674 -71.043,0.634 -95.935,31.549c-18.81,23.361 -14.161,31.268 -20.759,33.137c-72.34,20.497 -93.415,79.5 -85.131,119.664c1.546,7.495 10.512,50.965 56.932,76.866c32.3,18.022 51.545,18.53 61.293,20.593l0.001,0.001Z" style="fill:#07657c;"/><path d="M701.907,339.169c2.866,-2.695 11.997,-9.467 8.473,-20.875c-6.356,-20.581 -75.476,-8.234 -135.798,-43.399c-3.555,-2.072 -2.012,-2.955 -1.758,-3.084c6.223,-3.171 6.708,-4.199 12.875,-0.799c54.612,30.11 121.942,17.82 133.641,44.626c15.285,35.021 -24.735,72.516 -77.823,84.502c-12.217,2.758 -11.229,-9.974 -22.947,-5.528c-6.008,2.28 -5.334,11.389 -13.851,12.433c-103.384,12.662 -166.033,-31.286 -224.051,-44.735c-68.102,-15.786 -122.03,-12.401 -166.646,-50.039c-3.723,-3.141 -0.147,-3.47 4.276,-5.474c22.827,-10.345 67.694,-13.728 123.718,5.241c91.886,31.112 144.896,92.979 267.324,77.83c53.661,-6.64 99.071,-29.859 103.653,-45.845c0.026,-0.091 0,0 -0.769,-0.899c3.991,-3.614 4.953,-12.774 1.702,-9.427c-2.997,3.085 -10.082,6.682 -10.894,6.369c-0.447,-0.172 -0.675,-0.725 -1.123,-0.898l-0.002,0.001Z" style="fill:#288891;"/><path d="M701.907,339.169c0.447,0.172 0.675,0.725 1.123,0.898c0.812,0.313 7.898,-3.283 10.894,-6.369c3.251,-3.347 2.29,5.813 -1.702,9.427c-28.667,24.784 -134.165,56.4 -240.828,12.345c-60.995,-25.193 -168.086,-98.678 -251.537,-71.352c-16.44,5.383 -22.406,14.335 -19.654,6.505c5.91,-16.817 4.409,-18.519 12.452,-22.68c43.973,-22.749 120.861,-0.966 181.7,30.29c67.085,34.465 111.453,70.076 216.814,63.876c4.486,-0.264 66.594,-5.128 90.738,-22.94Z" style="fill:#076177;"/><path d="M221.419,229.075c3.635,-10.066 3.581,-10.062 3.904,-10.932c19.943,-53.586 20.23,-56.076 33.145,-58.874c18.342,-3.974 25.088,11.228 26.205,13.243c17.083,30.806 23.77,46.92 64.749,34.647c14.752,-4.418 90.069,-35.95 67.364,-23.634c-11.752,6.375 -39.385,25.555 -64.777,37.014c-70.995,32.038 -75.038,-40.728 -97.243,-37.542c-6.444,0.925 -4.618,3.75 -26.938,60.719c-0.821,2.096 -1.53,1.341 -5.976,3.168c-6.962,2.862 -7.468,5.5 -8.194,3.431c-0.017,-0.048 7.136,-19.542 7.759,-21.24l0.002,-0Z" style="fill:#49565f;"/><path d="M387.004,261.623c76.572,23.156 113.934,77.305 200.343,81.998c3.049,0.166 16.167,-0.692 10.383,1.667c-0.974,0.397 -55.173,8.842 -103.969,-12.643c-47.14,-20.755 -100.838,-63.796 -156.365,-75.519c-7.592,-1.603 -16.893,-2.494 -9.169,-3.286c7.647,-0.783 26.229,1.275 28.498,1.526c13.674,1.514 24.807,4.767 30.28,6.256l-0.001,0.001Z" style="fill:#086279;"/><path d="M1121.416,215.505c-30.338,24.806 -64.482,4.199 -64.949,15.123c-0.621,14.545 1.91,29.136 -3.207,29.299c-9.853,0.316 -17.361,0.979 -17.678,-3.002c-0.312,-3.91 -0.165,-104.824 -0.154,-104.866c1.004,-3.895 2.765,-3.102 50.214,-2.664c47.491,0.44 57.045,40.621 35.774,66.109l0,0.002Z" style="fill:#09536a;"/><path d="M426.374,200.995c-0.416,-0.408 -3.918,-3.839 -0.396,-7.272c19.965,-19.457 26.643,-17.101 29.16,-16.213c8.153,2.877 6.986,9.026 7.048,9.49c0.165,1.251 0.264,1.42 12.077,10.153c3.048,2.254 5.649,-1.666 11.029,1.85c6.365,4.159 4.845,6.946 4.848,9.056c0.002,1.293 0.145,1.54 12.878,9.773c1.745,1.128 5.101,-2.738 11.586,1.484c5.805,3.78 1.458,7.362 7.23,11.185c9.869,6.538 9.935,7.577 14.127,6.377c4.884,-1.398 9.373,2.799 9.989,3.375c4.71,4.403 2.442,6.158 -3.453,8.685c-11.763,5.041 -16.708,15.224 -22.381,12.738c-15.968,-7.001 2.636,-15.473 4.406,-18.013c0.843,-1.211 0.367,-1.923 -14.617,-11.249c-0.919,-0.572 -2.359,-1.468 -11.557,7.046c-5.558,5.145 -6.801,4.306 -13.032,-0.102c-5.519,-3.904 3.782,-10.501 8.688,-14.32c2.993,-2.33 0.135,-3.039 -12.263,-11.529c-6.055,-4.147 -14.491,13.484 -21.095,10.004c-16.741,-8.823 4.641,-16.147 5.951,-19.372c0.554,-1.365 0.297,-1.903 -14.463,-11.394c-0.886,-0.57 -2.42,-1.556 -11.433,6.544c-5.404,4.857 -6.477,7.209 -14.328,1.706l0.001,-0.002Z" style="fill:#48555e;"/><path d="M795.748,167.811c-48.298,0.002 -48.288,0.447 -52.467,0.05c-4.692,-0.445 -3.024,-13.429 -3.015,-14.347c0.047,-5.997 10.303,-4.101 16.943,-4.105c74.551,-0.035 74.619,-0.062 75.869,0.442c2.276,0.917 1.654,10.474 1.593,11.392c-0.388,5.938 -63.535,75.958 -63.79,78.602c-0.292,3.039 29.75,0.991 61.881,1.595c1.066,0.02 5.609,-0.433 3.804,15.509c-0.447,3.95 -6.22,3.067 -26.932,3.052c-66.386,-0.05 -66.374,0.26 -67.744,-0.327c-1.798,-0.772 -1.63,-11.126 -1.615,-12.101c0.037,-2.298 0.012,-2.533 36.088,-45.718c8.183,-9.794 27.487,-31.367 26.977,-32.88c-0.457,-1.35 -0.969,-0.764 -7.592,-1.163l-0.002,-0.002Z" style="fill:#08536a;"/><path d="M1941.409,243.91c1.472,-0.107 13.563,-0.997 18.188,-3.175c0.834,-0.393 6.554,-3.086 7.598,-8.681c4.838,-25.898 -59.798,-10.672 -68.991,-41.524c-11.784,-39.543 43.112,-52.455 78.445,-36.546c8.681,3.908 4.936,6.697 0.843,15.252c-3.062,6.401 -4.973,3.037 -11.643,0.349c-17.599,-7.093 -42.016,-6.252 -46.972,5.76c-10.838,26.265 58.196,10.659 68.425,43.047c13.832,43.799 -55.896,54.59 -90.24,31.74c-5.345,-3.556 5.154,-17.065 5.946,-17.257c6.349,-1.539 4.321,8.633 38.4,11.033l0,0.002Z" style="fill:#07536a;"/><path d="M1849.366,236.56c5.777,13.308 11.821,23.183 7.246,23.383c-20.905,0.912 -20.445,-2.211 -21.037,-3.396c-4.108,-8.213 -32.369,-74.845 -34.458,-74.827c-2.599,0.024 -33.884,76.009 -37.189,77.83c-0.484,0.267 -19.817,1.686 -20.233,-1.081c-0.289,-1.919 48.374,-107.683 49.49,-108.304c2.003,-1.111 15.492,-2.12 17.29,1.734c3.151,6.754 20.782,44.548 38.89,84.66l0.002,0.002Z" style="fill:#07526a;"/><path d="M1183.726,250.367c-3.979,8.71 -4.12,9.524 -8.654,9.573c-5.372,0.057 -18.425,1.63 -16.681,-3.035c0.25,-0.666 46.001,-101.02 47.982,-104.691c2.37,-4.392 16.815,-4.209 18.872,0.104c3.95,8.282 42.775,89.666 47.653,104.337c0.849,2.557 0.499,3.249 -2.224,3.306c-15.699,0.331 -18.403,1.09 -21.081,-4.917c-31.464,-70.583 -32.378,-77.558 -35.655,-72.027c-3.01,5.08 -1.66,5.641 -30.214,67.351l0.002,0Z" style="fill:#07526a;"/><path d="M931.765,181.854c-9.306,16.137 -29.536,63.525 -31.928,69.129c-2.538,5.945 -0.484,8.856 -6.937,8.97c-17.752,0.314 -18.726,-0.163 -18.366,-1.593c0.74,-2.943 34.162,-74.567 38.558,-84.737c10.164,-23.512 11.591,-23.774 13.78,-24.178c16.667,-3.077 14.658,3.947 22.149,19.206c3.155,6.427 41.15,87.713 40.952,89.705c-0.042,0.421 0.007,2.14 -18.439,1.608c-4.346,-0.126 -3.297,-2.292 -28.951,-57.265c-8.732,-18.71 -8.06,-19.229 -10.818,-20.844l0.002,0Z" style="fill:#07536a;"/><path d="M1358.56,167.838c-4.746,0.146 -5.394,-1.328 -7.372,1.309c-1.13,1.506 -0.181,81.732 -0.541,87.655c-0.344,5.683 -19.239,2.795 -19.503,2.614c-2.736,-1.877 -0.566,-85.271 -1.303,-89.046c-0.883,-4.523 -21.863,-1.958 -36.103,-2.515c-4.397,-0.171 -2.407,-16.823 -2.288,-17.089c0.631,-1.4 10.666,-1.392 11.601,-1.39c83.273,0.076 83.382,-0.304 85.148,0.418c1.573,0.643 1.528,11.935 1.524,12.979c-0.027,6.757 -4.091,5.12 -31.161,5.063l-0.003,0.002Z" style="fill:#09546b;"/><path d="M413.623,176.551c-22.681,7.998 -24.469,12.153 -25.778,7.695c-3.639,-12.392 -0.4,-19.609 12.264,-30.138c10.788,-8.969 17.199,-8.018 43.088,17.146c4.457,4.332 0.316,4.737 -4.823,8.131c-2.269,1.498 -4.761,-2.444 -10.802,-3.786c-5.287,-1.174 -12.862,0.685 -13.949,0.952Z" style="fill:#47545d;"/><path d="M1706.756,253.736c-0.435,8.283 -3.787,6.23 -12.056,6.259c-5.305,0.018 -61.631,0.208 -66.308,-0.03c-3.959,-0.201 -2.799,-2.612 -2.945,-80.238c-0.042,-22.563 -0.967,-30.294 2.998,-30.365c8.377,-0.148 17.715,-1.43 17.886,4.17c0.522,17.064 -1.123,85.603 1.064,87.205c3.081,2.256 57.807,-1.748 59.113,2.394c0.255,0.809 0.018,0.782 0.248,10.605l-0.002,-0Z" style="fill:#08536a;"/><path d="M1524.396,175.102c-0.025,63.256 -1.247,66.225 3.779,66.277c53.306,0.547 56.395,-2.003 56.491,3.151c0.012,0.645 1.289,15.2 -2.525,15.383c-2.83,0.136 -25.844,0.039 -70.929,0.079c-10.672,0.01 -7.57,-4.855 -7.582,-15.502c-0.102,-93.62 0.059,-94.367 1.662,-94.897c0.599,-0.198 16.763,-0.828 18.324,0.777c1.259,1.294 0.383,12.509 0.777,24.734l0.002,-0.002Z" style="fill:#07536b;"/><path d="M1805.767,366.399c-53.229,18.203 -62.409,-62.768 -9.341,-58.342c25.637,2.139 43.297,39.325 9.341,58.342Z" style="fill:#495661;"/><path d="M909.865,368.162c-0.087,-0.003 -7.724,1.513 -7.808,-3.4c-0.076,-4.316 -0.86,-49.619 0.154,-53.957c0.789,-3.376 33.348,-3.722 42.949,1.82c17.262,9.965 16.409,27.598 12.324,38.175c-8.25,21.366 -39.694,17.356 -47.62,17.362Z" style="fill:#1c9ea9;"/><path d="M1447.998,149.388c0.353,0.037 4.378,-0.586 4.973,2.508c0.2,1.044 0.037,104.673 0.025,104.978c-0.186,5.105 -19.582,3.739 -20.374,1.469c-0.635,-1.82 -0.272,-104.923 -0.191,-106.4c0.205,-3.809 14.874,-2.555 15.568,-2.555Z" style="fill:#06526a;"/><path d="M1260.183,346.678c-16.609,8.599 -30.046,-0.868 -30.229,7.229c-0.069,3.099 -0.035,6.2 -0.055,9.299c-0.054,8.226 -11.257,5.852 -11.317,1.536c-0.062,-4.308 -0.737,-51.671 0.092,-53.857c1.306,-3.442 29.623,-3.685 39.284,0.606c8.377,3.72 18.561,21.467 2.224,35.185l0,0.002Z" style="fill:#4b5862;"/><path d="M1071.757,167.853c7.483,0.03 40.502,-4.209 38.747,22.688c-1.461,22.411 -30.373,19.034 -49.54,18.872c-1.523,-0.013 -4.592,0.314 -4.644,-3.472c-0.465,-34.109 -1.189,-34.332 0.517,-36.723c1.472,-2.063 13.889,-1.362 14.92,-1.363l0,-0.002Z" style="fill:#fbfbfc;"/><path d="M1299.931,353.945c4.247,-9.497 4.288,-9.368 8.718,-18.761c10.644,-22.565 8.957,-26.537 19.085,-26.445c6.536,0.059 9.18,14.985 28.582,54.797c2.634,5.404 -1.086,4.9 -7.019,4.56c-9.158,-0.525 -1.764,-13.682 -15.396,-13.583c-19.028,0.138 -21.652,-2.28 -25.441,6.818c-5.272,12.658 -13.916,5.334 -13.949,4.974c-0.052,-0.552 0.067,-0.509 5.421,-12.359Z" style="fill:#495661;"/><path d="M548.591,257.908c-6.135,-3.668 -6.306,-3.819 -6.786,-4.243c-0.437,-0.386 -0.511,-1.199 6.136,-3.924c5.334,-2.187 11.231,8.482 17.468,6.507c9.138,-2.893 17.382,7.982 10.873,10.612c-20.786,8.4 -18.438,16.927 -25.758,13.865c-16.308,-6.822 3.265,-16.249 4.298,-17.784c0.862,-1.282 -5.272,-4.456 -6.231,-5.034l0,0.001Z" style="fill:#48555f;"/><path d="M1027.046,368.157c-20.102,0.005 -26.408,1.2 -26.586,-3.374c-0.076,-1.949 -0.029,-42.738 -0.024,-50.917c0.003,-6.73 2.809,-5.141 9.631,-5.154c31.347,-0.062 34.318,-0.902 34.384,3.601c0.143,9.732 -5.307,5.01 -29.769,5.946c-4.291,0.165 -3.04,9.556 -3.025,11.035c0.057,5.527 11.671,3.747 15.388,3.75c9.618,0.008 14.315,-2.543 13.462,6.976c-0.428,4.773 -23.755,1.195 -27.476,2.931c-1.64,0.766 -1.257,11.525 -1.221,12.531c0.143,4.016 11.863,2.73 21.41,2.711c8.703,-0.015 12.702,-2.199 12.336,6.564c-0.206,4.934 -10.259,3.395 -18.514,3.398l0.002,0.002Z" style="fill:#1e9fa9;"/><path d="M1418.684,358.832c11.021,-0.648 10.12,-3.173 15.699,-5.797c2.095,-0.985 16.249,6.509 -3.109,13.854c-35.875,13.61 -60.276,-33.226 -30.612,-53.863c17.359,-12.077 46.008,0.136 40.446,6.425c-4.874,5.51 -6.084,3.91 -11.728,0.801c-26.149,-14.404 -47.778,32.712 -10.694,38.583l-0.002,-0.002Z" style="fill:#495761;"/><path d="M1685.125,335.413c0.18,32.076 27.887,22.637 32.319,19.558c8.627,-5.992 12.269,4.18 7.59,7.583c-28.923,21.032 -67.799,-11.671 -45.149,-43.586c14.233,-20.054 54.249,-7.615 46.728,0.673c-5.201,5.731 -6.411,3.715 -10.714,1.059c-5.711,-3.524 -13.352,-3.396 -17.903,-1.681c-11.908,4.491 -12.4,14.67 -12.872,16.392Z" style="fill:#495761;"/><path d="M1807.207,352.369c-28.424,25.048 -50.885,-25.975 -19.991,-33.875c17.475,-4.469 34.199,15.516 19.991,33.875Z" style="fill:#fbfbfb;"/><path d="M1557.479,345.14c-5.018,0.68 -7.271,-0.917 -7.291,4.209c-0.049,12.714 4.639,19.122 -8.151,18.823c-3.834,-0.091 -3.381,-2.097 -3.376,-41.959c0.002,-7.007 -1.331,-17.372 3.349,-17.497c38.539,-1.034 39.682,-1.222 40.609,1.895c2.577,8.668 -2.209,7.541 -11.27,7.578c-9.715,0.039 -21.052,-1.315 -21.131,3.428c-0.013,0.833 -2.161,14.055 4.163,14.075c12.544,0.037 23.994,-1.372 24.22,2.896c0.027,0.49 0.26,4.875 -1.147,6.03c-0.843,0.692 -11.601,0.505 -19.976,0.522l0,-0.002Z" style="fill:#47555f;"/><path d="M948.432,337.001c-1.429,18.168 -8.058,22.16 -32.356,21.215c-2.935,-0.114 -3.947,-1.498 -2.758,-36.603c0.178,-5.26 22.604,-5.664 30.429,3.087c4.519,5.055 3.41,5.619 4.686,12.301Z" style="fill:#fafcfc;"/><path d="M1856.675,338.546c0.504,-7.142 3.561,-4.756 10.723,-4.664c59.719,0.769 59.591,-0.636 112.592,1.326c3.698,0.138 3.373,6.007 1.763,6.769c-3.249,1.539 -110.878,1.697 -120.521,1.711c-5.961,0.008 -4.278,-3.153 -4.556,-5.142Z" style="fill:#1da0a9;"/><path d="M866.163,338.535c-0.917,3.875 -0.005,4.919 -2.473,5.078c-0.754,0.049 -120.551,-0.819 -122.18,-1.58c-1.459,-0.682 -2.612,-6.707 1.791,-6.846c2.041,-0.064 109.256,-1.348 118.757,-1.462c4.994,-0.06 3.846,2.562 4.105,4.81Z" style="fill:#1ea0a9;"/><path d="M1129.728,363.228c-0.935,3.824 -0.092,4.788 -2.404,4.899c-3.079,0.146 -35.717,1.702 -38.529,-0.415c-2.224,-1.675 -2.139,-57.654 -0.114,-58.527c1.613,-0.695 8.868,-1.237 9.678,1.476c0.982,3.29 -1.286,45.677 1.55,47.192c2.837,1.514 28.255,-1.385 29.492,2.016c0.092,0.254 0.024,0.248 0.327,3.361l0,-0.002Z" style="fill:#1a9ea9;"/><path d="M1494.034,341.63c0.002,17.497 1.081,26.309 -2.839,26.472c-5.908,0.243 -8.767,2.619 -8.873,-3.364c-0.076,-4.306 -0.898,-51.001 0.148,-53.826c1.21,-3.274 10.184,-2.564 11.06,-1.207c0.687,1.064 0.524,8.082 0.504,31.926Z" style="fill:#4a5761;"/><path d="M1621.6,323.124c0.008,-1.096 0.094,-12.895 0.87,-13.669c1.1,-1.098 6.929,-0.771 7.533,-0.735c4.484,0.252 4.306,2.642 3.134,56.042c-0.116,5.305 -2.476,3.473 -7.835,3.401c-4.639,-0.062 -3.717,-2.644 -3.702,-45.038l0,-0.002Z" style="fill:#48555f;"/><path d="M1256.85,329.294c-0.208,2.169 -1.482,15.4 -24.596,11.688c-3.645,-0.586 -3.709,-21.731 -0.159,-22.614c0.435,-0.109 12.932,-0.495 16.894,0.519c6.66,1.702 7.721,9.375 7.864,10.409l-0.002,-0.002Z" style="fill:#fafafa;"/><path d="M1321.091,332.164c1.351,-3.296 4.358,-12.135 6.119,-8.631c0.767,1.528 8.361,16.64 8.502,19.61c0.065,1.405 -0.074,3.952 -17.431,2.3c-4.521,-0.43 2.261,-12.041 2.81,-13.278l0,-0.002Z" style="fill:#f6f6f7;"/><path d="M1486.077,298.081c5.997,-7.471 6.447,-7.828 15.987,-7.662c5.324,0.092 -5.715,8.471 -8.206,10.664c-3.054,2.688 -15.299,4.175 -7.78,-3.002l-0.002,0Z" style="fill:#485662;"/><path d="M181.29,398.263c0.344,0.898 0.866,1.177 -0.093,1.495c-0.547,0.182 -1.181,-0.107 -1.728,0.075c0.285,-0.098 0.191,-0.177 0.467,-0.272c0.929,-0.319 0.642,-0.616 1.354,-1.298Z" style="fill:#c3dce2;"/><path d="M372.176,122.682l1.117,0.869c-0.328,-0.024 -0.58,0.407 -0.908,0.383c0,0 -0.192,-1.152 -0.209,-1.253l0,0.001Z" style="fill:#9cdce0;"/></g></svg>