<?xml version="1.0" encoding="UTF-8" standalone="no"?><!DOCTYPE svg PUBLIC "-//W3C//DTD SVG 1.1//EN" "http://www.w3.org/Graphics/SVG/1.1/DTD/svg11.dtd"><svg width="100%" height="100%" viewBox="0 0 1397 1126" version="1.1" xmlns="http://www.w3.org/2000/svg" xmlns:xlink="http://www.w3.org/1999/xlink" xml:space="preserve" xmlns:serif="http://www.serif.com/" style="fill-rule:evenodd;clip-rule:evenodd;stroke-linejoin:round;stroke-miterlimit:2;"><g id="Fondo"><path d="M688.268,0l20.464,0c1.067,0.367 0.361,1.151 1.419,1.515c0.309,0.106 0.175,0.06 4.063,0.372c10.566,0.846 36.662,2.936 125.578,42.257c295.293,130.585 427.287,310.94 429.044,313.107c58.336,71.922 123.456,179.353 126.462,197.247c0.383,2.281 0.812,1.989 1.701,4.166l-0,19.1c-0.922,2.169 -1.409,1.855 -1.765,4.154c-0.301,1.943 -1.332,5.03 -1.476,5.459c-2.958,8.855 -76.743,147.176 -209.032,278.116c-212.32,210.154 -422.193,254.411 -432.167,258.621c-0.638,0.269 -0.897,1.13 -1.535,1.399l-103.684,0c-2.858,-1.47 -2.467,-2.031 -5.595,-2.878c-12.776,-3.457 -245.679,-61.369 -457.345,-286.607c-69.559,-74.019 -103.983,-123.315 -154.32,-201.938c-32.471,-50.718 -27.464,-53.136 -28.671,-56.193c-0.252,-0.637 -1.158,-0.859 -1.41,-1.496l0,-17.735c0.9,-2.152 1.34,-1.835 1.744,-4.166c3.257,-18.836 83.473,-152.2 152.548,-228.256c28.703,-31.604 76.395,-86.56 197.366,-169.517c69.566,-47.705 180.521,-105.497 250.669,-131.467c66.927,-24.778 67.738,-22.217 80.467,-23.32c3.73,-0.323 3.744,-0.328 4.052,-0.437c1.046,-0.37 0.367,-1.126 1.423,-1.5Z" style="fill:#080873;"/><path d="M716.839,1116.049c-39.829,3.532 -66.219,-0.819 -189.779,-61.671c-248.694,-122.479 -414.274,-340.855 -442.398,-377.947c-71.051,-93.706 -70.641,-99.004 -63.892,-123.329c5.265,-18.974 89.357,-134.251 141.181,-190.624c10.329,-11.235 145.817,-167.413 409.303,-295.712c21.248,-10.346 89.607,-39.748 99.386,-42.503c37.379,-10.531 52.167,-3.135 130.547,31.637c159.629,70.817 294.342,179.029 317.682,197.777c56.916,45.719 136.204,118.9 222.172,243.133c35.671,51.549 52.249,66.477 24.363,107.181c-38.204,55.765 -247.975,372.171 -615.519,503.714c-16.191,5.795 -16.195,5.341 -33.045,8.343Z" style="fill:#fdfdfd;"/><path d="M437.128,364.561c-0.236,-0.493 -1.097,-0.461 -1.333,-0.954c-0.341,-0.712 1.657,-3.612 1.852,-3.896c36.079,-52.378 65.825,-72.092 78.395,-81.178c112.767,-81.509 331.361,-94.503 437.998,82.449c3.214,5.333 -4.891,3.766 -9.291,3.758c-81.036,-0.15 -88.736,-2.358 -84.305,2.732c2.955,3.395 37.608,43.206 32.24,46.105c-0.458,0.247 -14.512,0.066 -14.711,0.013c-3.485,-0.94 -22.18,-34.236 -30.109,-34.452c-4.571,-0.125 -36.641,-1 -57.163,-0.076c-0.421,0.019 -2.11,0.338 0.866,5.197c1.294,2.113 11.369,18.564 14.788,27.214c1.242,3.143 -11.776,2.228 -14.363,2.169c-4.332,-0.098 -17.071,-32.232 -23.396,-34.407c-1.001,-0.344 -63.607,-0.096 -63.836,-0.041c-3.571,0.853 -1.303,23.766 -1.981,32.061c-0.276,3.369 -12.382,2.616 -13.074,2.386c-5.131,-1.706 1.067,-32.931 -3.928,-34.373c-1.135,-0.328 -62.107,-0.27 -62.815,-0.018c-0.774,0.275 -6.695,5.721 -18.291,29.156c-3.285,6.638 -6.201,5.512 -17.312,5.314c-6.893,-0.123 15.519,-31.35 14.618,-33.634c-1.038,-2.631 -2.024,-1.018 -9.204,-1.004c-14.279,0.027 -51.855,-0.075 -53.124,0.065c-6.091,0.674 -26.179,33.433 -28.48,34.206c-1.514,0.508 -14.878,0.391 -15.091,0.291c-1.58,-0.739 1.668,-6.281 1.953,-6.767c59.849,-102.15 194.035,-141.081 298.365,-87.638c49.971,25.598 57.26,47.326 61.934,41.295c22.346,-28.831 -103.514,-139.086 -259.949,-102.716c-107.443,24.979 -160.224,105.682 -161.251,106.744Z" style="fill:#080973;"/><path d="M675.928,748.905c-8.156,-0.882 -39.337,-2.647 -76.619,-20.455c-56.613,-27.042 -61.681,-49.447 -67.514,-43.886c-8.712,8.305 3.126,26.748 4.38,28.702c49.141,76.562 254.663,148.663 397.23,-7.677c10.658,-11.688 18.171,-24.654 19.024,-19.971c0.215,1.18 -70.275,117.091 -208.3,137.215c-209.704,30.576 -310.958,-136.887 -307.978,-141.186c1.587,-2.289 85.069,-0.683 92.465,-0.541c1.751,0.034 3.166,-0.929 1.57,-2.478c-0.224,-0.218 -2.069,-2.009 -2.778,-2.749c-11.803,-12.323 -27.702,-35.129 -28.441,-36.838c-1.363,-3.15 12.361,-2.155 14.661,-2.104c3.09,0.069 4.56,2.283 4.803,2.649c10.137,15.274 15.072,19.966 19.17,24.649c3.703,4.232 4.387,3.897 34.708,3.835c29.654,-0.06 29.663,-0.272 29.834,-0.452c1.458,-1.539 -13.374,-23.267 -15.531,-28.636c-0.431,-1.071 0.038,-2.671 14.293,-1.98c4.801,0.233 17.315,29.029 21.938,30.672c4.624,1.643 4.786,0.95 61.346,0.357c5.384,-0.056 3.558,-7.986 3.708,-27.528c0.008,-1.06 0.046,-6.055 12.805,-3.395c5.629,1.174 -0.573,29.314 3.922,30.739c2.621,0.831 55.243,0.274 60.047,0.223c7.246,-0.077 11.295,-10.44 22.341,-28.6c2.161,-3.554 9.864,-2.585 15.806,-2.582c2.872,0.002 2.512,2.05 -4.55,14.241c-6.309,10.891 -13.772,16.916 -4.953,16.918c4.476,0.001 53.348,0.012 55.956,-0.073c4.787,-0.157 21.057,-23.665 24.825,-28.625c3.235,-4.259 17.688,-2.575 18.346,-1.391c0.686,1.236 -0.04,1.159 -2.949,5.685c-4.177,6.5 -26.885,41.835 -67.806,68.768c-70.881,46.652 -143.145,36.658 -145.756,36.492Z" style="fill:#080973;"/><path d="M856.965,483.628c0.146,64.659 2.177,73.697 -13.375,87.079c-11.455,9.856 -12.872,9.162 -84.379,9.118c-15.877,-0.01 -22.219,-1.567 -22.264,3.38c-0.149,16.506 1.103,27.115 -2.303,27.252c-20.867,0.839 -79.065,0.137 -85.94,0.054c-4.256,-0.051 -3.191,-2.584 -3.259,-61.396c-0.004,-3.381 -0.007,-105.783 0.064,-106.489c0.376,-3.767 3.435,-2.224 125.979,-2.489c53.629,-0.116 67.667,-3.106 81.211,20.644c5.478,9.605 4.24,22.277 4.266,22.847Z" style="fill:#070873;"/><path d="M435.881,610.026c-2.015,-0.099 -16.59,-0.819 -24.309,-6.696c-19.347,-14.732 -16.218,-26.107 -16.256,-74.679c-0.042,-54.768 -3.017,-68.971 17.727,-82.67c11.414,-7.538 12.584,-5.722 131.978,-5.888c18.923,-0.026 60.565,-5.807 60.58,43.538c0.007,24.057 1.115,28.441 -3.288,28.505c-3.573,0.052 -86.348,0.061 -87.296,0.033c-4.487,-0.133 -2.232,-14.013 -2.842,-16.228c-0.455,-1.653 -9.937,-1.674 -10.812,-1.676c-0.548,-0.001 -13.081,-1.677 -13.16,3.034c-0.077,4.578 -0.734,43.728 -0.009,57.233c0.106,1.967 0.812,2.972 21.339,2.554c6.362,-0.13 -1.408,-16.796 6.851,-16.857c6.879,-0.051 71.815,-0.528 85.988,0.061c4.552,0.189 3.234,5.469 3.229,7.467c-0.034,13.81 5.224,47.415 -22.65,59.449c-7.495,3.236 -7.794,2.847 -147.07,2.822Z" style="fill:#070874;"/><path d="M363.128,506.818c-0.398,7.963 -3.925,5.335 -11.832,5.321c-78.755,-0.139 -80.591,0.522 -80.724,-2.551c-0.211,-4.881 1.908,-15.327 -3.855,-15.328c-12.463,-0.004 -20.099,-1.049 -20.216,3.029c-0.136,4.723 -1.634,56.668 0.674,59.059c1.114,1.154 22.206,1.635 23.088,-0.637c0.786,-2.024 -1.491,-15.212 3.185,-15.377c6.178,-0.219 80.614,-0.041 86.028,-0.129c4.603,-0.075 3.746,3.503 3.673,28.01c-0.002,0.543 2.998,22.674 -17.64,36.306c-9.392,6.204 -10.189,5.541 -110.174,5.531c-42.548,-0.004 -60.962,3.558 -74.443,-20.331c-4.455,-7.895 -4.199,-8.374 -4.196,-104.725c0.002,-50.534 38.973,-44.881 62.267,-44.883c114.926,-0.005 115.906,-1.159 126.486,5.906c20.998,14.021 17.715,32.474 17.679,60.801Z" style="fill:#070873;"/><path d="M1082.015,605.046c0.025,-8.621 0.29,-102.045 0.074,-107.757c-0.161,-4.238 -2.682,-2.805 -58.208,-3.008c-5.554,-0.02 -4.029,-2.427 -4.029,-7.923c-0,-44.267 -0.097,-44.525 0.869,-45.458c1.368,-1.322 212.535,-1.16 213.708,-0.072c1.803,1.673 0.842,51.68 0.586,52.195c-1.476,2.967 -59.1,0.153 -60.998,1.64c-1.072,0.84 -1.095,7.419 -1.097,8.071c-0.362,105.371 1.009,106.849 -1.76,107.602c-5.999,1.632 -6.116,0.275 -77.707,0.172c-7.701,-0.011 -10.83,2.253 -11.438,-5.462Z" style="fill:#070874;"/><path d="M894.679,603.68c-0.016,-53.204 -0.033,-106.408 -0.049,-159.612c0.005,-4.865 2.537,-3.965 31.019,-3.954c58.608,0.022 60.139,-0.419 60.545,2.511c0.071,0.515 0.082,163.926 0.023,165.228c-0.163,3.621 -7.256,2.657 -23.733,2.638c-65.46,-0.078 -67.61,0.841 -67.751,-2.756c-0.053,-1.351 -0.001,-2.704 -0.054,-4.055Z" style="fill:#070873;"/><path d="M413.972,816.434c-34.813,34.508 -34.59,39.773 -41.032,35.737c-2.249,-1.409 1.943,-4.653 1.461,-5.651c-0.226,-0.468 -31.096,-31.615 -31.222,-31.682c-0.634,-0.34 -9.393,3.807 -9.404,-1.063c-0.009,-4.312 2.883,-2.689 37.139,-39.06c15.01,-15.936 15.614,-16.5 17.003,-15.309c0.718,0.615 -1.095,1.873 6.628,9.783c26.272,26.911 25.598,28.159 30.511,29.135c0.345,0.068 7.102,5.821 -1.364,8.837c-1.719,0.612 -1.466,0.905 -9.72,9.272Z" style="fill:#0b0b71;"/><path d="M434.545,841.085c12.125,-18.216 11.538,-18.563 12.731,-20.041c2.086,-2.586 2.39,2.477 6.177,5.205c33.956,24.462 34.724,24.474 38.367,24.533c3.391,0.054 4.595,6.292 2.457,7.602c-4.704,2.881 -3.997,3.517 -7.14,8.169c-2.553,3.779 -2.585,3.733 -2.806,4.061c-28.533,42.308 -27.649,44.976 -32.057,44.046c-4.848,-1.023 1.028,-5.125 -2.862,-7.985c-2.573,-1.891 -17.162,-12.616 -32.812,-22.731c-2.475,-1.6 -3.616,2.02 -5.232,2.354c-11.178,2.313 -1.201,-5.805 23.178,-45.212Z" style="fill:#0e0d6f;"/><path d="M311.636,731.893c-7.153,-10.991 -9.466,-14.187 -12.193,-14.244c-3.882,-0.081 -7.519,-3.833 -5.036,-5.706c24.471,-18.46 24.719,-21.125 26.247,-19.03c0.851,1.167 -0.648,1.986 9.158,15.555c0.39,0.539 4.732,6.548 6.305,5.427c10.522,-7.504 13.454,-14.884 15.864,-6.332c1.059,3.756 1.827,5.19 -2.023,5.62c-0.851,0.095 -2.417,0.27 -9.059,5.709c-3.074,2.517 0.901,5.567 4.511,10.646c3.542,4.983 2.743,6.221 8.682,7.623c0.612,0.145 5.803,7.437 -2.853,9.564c-6.186,1.52 -17.667,17.02 -23.183,13.924c-5.146,-2.888 -0.83,-5.505 -0.59,-5.874c-1.581,-3.653 -9.835,-17.282 -12.677,-15.454c-12.093,7.78 -20.098,19.611 -26.087,14.244c-4.652,-4.169 16.218,-12.795 22.934,-21.672Z" style="fill:#0b0c72;"/><path d="M607.783,364.166c-19.814,0.085 -19.721,0.172 -39.565,0.006c-4.05,-0.034 -16.212,1.132 -13.305,-1.748c3.834,-3.799 30.522,-24.101 53.102,-33.771c25.065,-10.735 53.532,-16.154 54.238,-15.438c3.185,3.232 -5.818,-0.798 -40.237,39.979c-6.154,7.291 -4.651,10.286 -14.232,10.972Z" style="fill:#fbfbfc;"/><path d="M821.966,364.162c-42.131,0.133 -42.786,0.642 -44.996,-1.973c-3.342,-3.955 -32.284,-38.204 -45.665,-45.872c-13.457,-7.711 26.905,2.944 40.017,8.134c30.244,11.971 53.846,31 58.048,34.388c3.67,2.959 7.038,2.804 4.109,5.263c-0.01,0.009 -0.004,0.48 -11.513,0.06Z" style="fill:#fbfafc;"/><path d="M728.333,730.833c6.626,-5.797 9.738,-4.433 35.15,-31.481c10.579,-11.26 11.61,-15.863 16.205,-15.984c4.264,-0.113 53.139,-1.406 53.315,0.756c0.218,2.675 -20.627,16.822 -28.939,21.566c-33.3,19.009 -58.211,23.044 -70.811,25.99c-2.89,0.676 -2.759,1.158 -3.925,0.958c-1.219,-0.21 0.198,-1.599 -0.996,-1.804Z" style="fill:#fafafc;"/><path d="M662.439,730.52l-0.349,1.182c-0.309,-0.027 0.421,0.95 0.112,0.923c-8.903,-0.777 -32.425,-8.365 -35.196,-9.259c-35.321,-11.394 -68.164,-37.152 -68.215,-39.177c-0.045,-1.784 1.277,-0.808 51.717,-0.876c10.793,-0.014 6.847,13.522 51.932,47.206Z" style="fill:#faf9fb;"/><path d="M352.562,802.802c34.529,-36.025 35.442,-35.142 35.602,-35.066c0.479,0.225 31.819,31.447 31.424,33.799c-0.173,1.028 -29.068,29.508 -33.889,34.751c-0.651,-0.664 -1.303,-1.328 -1.954,-1.992c-0.075,-0.448 -0.938,-5.606 -0.938,-5.606c-5.319,-0.742 -5.634,-0.445 -9.128,-4.48c-0.258,-0.298 -2.811,-3.247 -1.532,-4.677c4.519,-5.054 4.658,-4.738 9.086,-9.932c0.638,0.937 1.277,1.874 1.915,2.811c-0.937,9.453 -5.788,14.129 1.128,12.921c6.832,-1.193 1.619,-13.259 1.164,-14.314c-1.081,-1.841 -0.955,-1.76 -2.063,-3.357c6.369,-2.261 13.865,16.524 13.85,7.429c-0.01,-6.227 -2.079,-5.18 -5.081,-6.538c-7.475,-3.382 -3.73,-6.071 1.987,-11.961c6.708,-6.912 13.817,14.073 17.196,9.008c3.745,-5.614 -3.443,-6.889 -4.081,-7.002c-4.36,-0.774 -24.941,-29.332 -24.528,-20.287c0.145,3.179 12.832,8.503 7.966,13.479c-2.297,2.348 -7.048,8.367 -9.107,6.419c-0.611,-0.579 -8.17,-9.619 -9.239,-6.049c-1.493,4.986 12.567,5.396 4.879,13.439c-9.379,9.812 -9.989,11.796 -13.227,9.013c-7.551,-6.487 -9.356,-9.404 -9.962,-10.383l-1.469,-1.426Z" style="fill:#f8f8fb;"/><path d="M954.065,865.553c0.055,0.489 0.11,0.979 0.164,1.468c3.498,2.248 1.6,3.142 1.641,8.058c0.237,2.482 0.188,2.476 0.256,2.681c0.365,1.098 0.955,0.613 1.349,1.797c-2.848,7.652 0.823,10.283 1.02,10.276c0.629,-0.021 11.547,-3.014 12.325,-6.441c1.224,-5.395 -0.241,-11.112 -0.48,-12.046c-0.457,-1.128 -0.915,-2.257 -1.372,-3.385c7.663,-4.899 9.27,-5.505 9.956,-10.516c0.641,-4.687 11.727,-1.643 7.996,1.235c-3.928,3.03 -10.184,4.591 -10.2,12.417c-0.011,5.199 -0.303,11.758 2.148,11.151c1.664,-0.412 15.534,-7.2 20.093,-0.059c4.38,6.86 -20.396,1.653 -23.201,7.795c-1.159,2.537 -7.483,16.391 -21.463,27.48c-2.697,2.139 -4.084,-0.272 -2.129,-2.242c20.767,-20.917 18.054,-24.685 15.71,-24.749c-1.735,-0.047 -15.394,6.611 -15.782,3.603c-0.787,-6.093 0.747,-11.151 -4.327,-7.522c-6.41,4.585 -15.623,12.332 -15.287,7.716c0.261,-3.585 18.392,-10.064 17.755,-16.372c-0.558,-5.519 -0.697,-5.433 -0.461,-10.905c0.02,-0.462 -7.892,-19.488 -7.868,-5.47c0.026,15.536 -16.565,39.944 -12.108,27.294c4.939,-14.021 6.87,-13.726 6.375,-28.569c-0.192,-5.753 -21.013,16.267 -19.957,8.128c0.347,-2.678 24.622,-15.101 22.47,-18.87c-5.122,-8.969 -7.634,-2.539 -19.752,6.756c-2.868,2.199 -4.581,0.365 -2.87,-1.579c0.711,-0.808 9.485,-7.253 22.69,-22.234c5.182,-5.879 4.161,-9.182 12.836,-7.824c2.37,0.371 2.482,2.324 1.502,2.93c-1.276,0.79 -15.245,9.441 -13.245,13.281c2.913,5.593 4.163,7.155 9.21,3.289c9.075,-6.952 11.115,-5.712 12.176,-12.585c0.606,-3.923 13.145,-1.738 7.581,2.085c-17.73,12.18 -18.24,12.779 -17.323,14.326c0.08,0.135 9.569,3.793 22.199,-2.154c3.762,-1.772 6.939,-3.845 5.754,0.736c-0.421,1.629 0.396,5.817 -3.332,6.755c-21.125,5.319 -32.113,-8.315 -29.362,-1.562c1.593,3.91 8.363,6.808 7.313,13.827Z" style="fill:#0f1072;"/><path d="M785.139,981.589c-0.702,-1.131 -1.354,-0.302 -2.052,-1.427c-0.063,-0.102 -0.091,-0.146 0.252,-1.474c4.299,-16.675 3.15,-16.82 1.953,-33.935c-0.25,-3.573 7.727,-3.137 6.259,2.629c-3.032,11.907 11.072,20.938 12.063,17.692c0.128,-0.42 -5.771,-30.157 -6.549,-32.476c-0.756,-2.254 -6.116,-1.354 -6.71,-0.293c-0.281,0.501 -4.863,8.692 -5.988,3.966c-6.977,-29.299 -5.791,-31.395 -3.425,-30.684c6.69,2.011 23.61,-3.707 23.858,-3.967c4.715,-4.919 7.725,1.161 7.568,2.192c-1.385,9.1 0.367,8.924 2.206,17.868c2.399,11.673 -3.944,8.126 -4.446,7.628c-2.211,-2.197 -2.532,-1.146 -5.602,-0.264c-3.125,0.898 -1.305,7.455 0.275,14.13c0.442,1.865 5.815,0.541 6.306,0.42c5.09,-1.255 3.595,-7.006 8.214,-4.438c14.051,7.81 -13.18,4.858 -12.845,11.092c0.979,18.261 5.781,17.8 7.302,17.654c8.487,-0.816 15.551,-3.526 16.286,-3.628c3.811,-0.531 0.178,1.568 -1.319,5.016c-1.596,3.676 -2.432,4.332 -13.617,4.84c-18.75,0.851 -23.187,-18.258 -24.534,-8.914c-1.408,9.766 -5.172,15.728 -5.453,16.375Z" style="fill:#0f1072;"/><path d="M738.75,364.181c-33.337,0.061 -35.832,1.144 -35.874,-3.321c-0.397,-42.319 -1.875,-44.604 1.694,-44.591c1.262,0.005 33.665,22.161 49.864,42.666c2.539,3.215 4.387,3.352 2.441,5.136c-0.463,0.425 -14.68,0.155 -18.125,0.11Z" style="fill:#fbfbfc;"/><path d="M487.276,854.617c-1.494,2.454 -2.987,4.909 -4.481,7.363c-3.561,-2.315 -2.801,-2.902 -3.026,-3.205c-0.872,-2.972 0.136,-4.299 -2.967,-4.357c-11.517,-0.213 -24.978,-18.501 -28.626,-16.052c-1.897,1.274 -0.946,2.313 8.069,8.278c3.603,2.384 2.008,4.358 -3.086,11.833c-3.484,5.112 -10.256,-5.796 -12.929,-3.492c-2.851,2.458 7.024,6.547 8.014,7.851c0.888,1.169 1.451,1.91 -8.446,16.3c-2.361,3.433 -14.629,-8.74 -16.182,-7.117c-2.556,2.672 5.903,6.393 32.549,24.162c0.966,0.726 1.932,1.452 2.898,2.178c-3.695,5.133 -3.862,8.297 -9.157,4.826c-32.448,-21.272 -33.488,-22.511 -31.898,-25.356c1.723,-3.085 31.243,-48.386 31.746,-48.723c1.899,-1.271 35.906,23.298 37.52,25.51Z" style="fill:#f9f8fb;"/><path d="M680.088,364.178c-43.3,0.144 -46.213,1.441 -45.28,-2.063c0.207,-0.778 16.055,-18.097 22.702,-23.8c26.669,-22.879 29.86,-22.478 30.174,-19.616c0.254,2.317 0.024,37.515 0.003,40.777c-0.041,6.29 -3.352,4.628 -7.6,4.702Z" style="fill:#f9f9fb;"/><path d="M728.912,711.138c-3.815,3.014 -23.606,19.172 -25.631,16.689c-0.019,-0.023 -1.717,-42.949 1.105,-44.13c0.918,-0.384 50.613,-1.227 50.83,0.431c0.483,3.694 -24.03,25.03 -26.305,27.01Z" style="fill:#f9f9fb;"/><path d="M667.789,715.573c-14.651,-11.531 -36.89,-32.523 -29.955,-32.384c36.964,0.737 48.802,-1.588 50.026,2.423c0.064,0.211 0.024,40.527 0.016,40.783c-0.113,3.997 -7.347,-1.527 -20.087,-10.822Z" style="fill:#f8f8fb;"/><path d="M873.711,941.838c6.47,-11.648 3.026,-24.037 -1.121,-22.369c-1.941,0.781 -7.451,4.923 -8.702,2.264c-1.611,-3.422 10.657,-4.084 8.971,-8.507c-0.443,-1.162 -5.347,-14.03 -7.142,-13.801c-0.599,0.076 -10.77,6.017 -9.098,0.74c0.239,-0.754 8.646,-2.999 7.614,-5.888c-3.366,-9.422 -10.923,-15.975 -1.342,-16.349c3.072,-0.12 2.097,7.507 6.424,13.884c0.449,0.662 0.766,2.364 6.848,-0.823c6.218,-3.258 -8.562,-18.628 -3.551,-19.422c5.495,-0.871 5.972,0.155 6.241,3.653c0.059,0.77 4.073,11.236 5.687,11.372c3.665,0.309 4.022,-6.002 6.894,-5.446c13.834,2.677 -5.535,6.741 -5.362,10.397c0.009,0.182 5.837,14.56 7.193,14.399c5.802,-0.689 4.908,-6.994 7.835,-6.665c2.97,0.334 7.556,3.051 5.305,4.393c-0.782,0.466 -0.986,-0.071 -10.287,4.883c-5.479,2.919 12.911,21.714 3.67,24.739c-3.303,1.081 -8.102,-22.049 -12.349,-20.513c-9.406,3.402 -6.381,6.108 -5.818,8.842c2.01,9.763 -3.624,15.086 -3.805,21.933c-2.415,-0.341 -2.414,-0.286 -2.608,-0.368c-0.96,-0.406 -0.468,-0.911 -1.5,-1.348Z" style="fill:#0e1073;"/><path d="M692.255,942.014c-0.456,0.912 -0.913,1.823 -1.369,2.735c-3.727,-1.279 -3.783,-1.069 -4.039,-1.291c-1.898,-1.648 -0.926,-2.07 -0.897,-31.412c0.004,-3.754 5.309,-0.067 6.409,-0.032c23.711,0.752 25.351,-0.323 27.173,-1.516c3.165,-2.074 8.218,2.275 6.27,5.171c-2.351,3.495 -1,14.541 -1.281,23.595c-0.089,2.885 -4.671,7.07 -6.069,2.689c-0.51,-1.596 -8.926,-1.595 -9.714,-1.594c-10.055,0.002 -11.082,-2.056 -13.479,1.515c-1.001,0.046 -2.002,0.093 -3.003,0.139Z" style="fill:#1b1d80;"/><path d="M539.133,880.72l-1.162,2.201c-17.826,12.583 -15.422,15.304 -14.341,22.189c3.059,19.493 -13.587,22.879 -14.608,19.458c-0.102,-0.34 -0.071,-0.321 -0.959,-4.331c-0.4,-0.49 -0.8,-0.981 -1.2,-1.471l-1.375,-1.269c-5.766,14.493 -9.918,25.161 -14.115,20.847c-1.298,-1.334 8.52,-21.176 14.942,-36.119c12.227,-28.452 13.814,-35.195 16.637,-32.285c3.471,3.578 4.704,6.319 12.64,5.778c3.655,-0.249 2.513,1.522 3.541,5.004Z" style="fill:#0d0d6e;"/><path d="M736.899,510.922c0.021,-4.511 -1.519,-14.774 3.219,-14.811c25.116,-0.193 25.236,-0.896 27.062,0.267c2.185,1.391 1.758,31.054 0.266,32.345c-1.656,1.433 -1.89,0.681 -27.367,0.461c-4.527,-0.039 -3.186,-8.26 -3.18,-18.262Z" style="fill:#fbfbfc;"/><path d="M692.255,942.014c1.001,-0.046 2.002,-0.093 3.003,-0.139c2.607,2.36 3.479,2.792 1.343,5.699c-3.044,4.144 1.749,2.25 13.494,2.693c13.786,0.521 14.245,0.518 18.211,-2.155c1.165,-0.785 9.249,0.998 5.12,6.299c-3.612,4.638 -0.819,33.768 -13.8,34.955c-2.605,0.238 -1.572,-3.656 -5.743,-6.061c-0.331,-0.191 -6.467,-3.729 -2.378,-4.143c2.336,-0.236 10.556,6.068 12.414,-4.362c3.618,-20.308 2.549,-21.097 0.855,-21.207c-10.347,-0.674 -5.364,6.648 -15.156,20.852c-10.358,15.027 -40.579,19.896 -20.345,10.671c21.903,-9.986 23.108,-32.355 22.187,-32.014c-4.046,1.495 -5.743,-0.465 -7.516,2.945c-0.983,1.889 -5.401,16.174 -23.879,24.097c-3.114,1.335 -4.154,-0.96 -2.355,-2.24c1.981,-1.409 11.948,-4.553 18.261,-18.382c0.22,-0.483 4.477,-9.807 -3.777,-5.452c-3.538,1.866 -1.771,3.878 -14.648,13.029c-3.445,2.448 -3.096,-1.098 -2.561,-1.651c9.091,-9.396 9.565,-9.044 15.9,-20.699c0.456,-0.912 0.913,-1.823 1.369,-2.735Z" style="fill:#0f0f71;"/><path d="M992.334,800.324c-6.652,-5.737 -8.345,-6.751 -7.599,-8.097c0.432,-0.779 3.676,-0.97 5.922,-3.592c15.56,-18.165 15.551,-19.136 15.533,-21.242c-0.037,-4.307 7.599,-4.915 8.354,-2.824c2.369,6.561 3.466,5.783 8.704,10.325c9.743,8.448 1.242,9.282 0.562,9.034c-0.558,-0.203 -0.901,-0.904 -1.49,-0.974c-1.869,-0.221 -1.574,0.597 -15.738,17.487c-2.392,2.852 -0.257,4.913 -0.551,6.489c-1.248,6.674 -8.102,-1.703 -13.697,-6.606Z" style="fill:#0d0e6e;"/><path d="M464.395,853.009l1.427,0.552c3.857,2.465 3.712,2.498 4.052,2.688c6.57,3.673 8.562,7.844 9.895,2.527c0.225,0.303 -0.535,0.89 3.026,3.205c-1.549,2.766 -17.34,25.471 -22.06,34.026c-1.28,-0.971 -1.149,-0.961 -2.541,-1.712c-0.41,-3.695 0.65,-5.397 -3.152,-5.239c-4.302,0.179 -4.387,0.087 -9.264,-3.453c-4.094,-2.972 -0.839,-3.722 1.907,-7.988c5.425,-8.427 5.531,-11.456 9.777,-8.862c8.268,5.052 7.839,5.608 8.555,6.044c0.359,0.219 3.143,0.936 1.295,-5.1c-1.021,-3.336 -9.274,-1.725 -10.362,-5.465c-0.417,-1.433 6.77,-10.383 7.445,-11.223Z" style="fill:#f7f7fa;"/><path d="M873.711,941.838c1.033,0.437 0.541,0.942 1.5,1.348c0.194,0.082 0.193,0.027 2.608,0.368c20.634,1.562 47.578,-28.275 39.366,-12.545c-0.618,1.184 -0.131,5.261 -2.709,6.375c-28.063,12.124 -28.758,13.557 -40.88,9.213c-10.536,-3.776 -8.213,3.977 -10.019,11.488c-0.402,1.671 -8.364,-0.141 -6.505,-3.924c3.956,-8.054 7.041,-8.068 3.575,-16.437c-5.157,-12.452 -6.609,-19.477 -11.241,-17.166c-7.375,3.678 -7.324,0.073 -6.987,-0.374c1.859,-2.462 6.429,-0.237 9.562,-6.812c0.438,-0.919 7.781,-2.842 6.73,4.076c-0.428,2.818 9.225,23.643 10.134,24.001c2.381,0.938 2.35,0.557 4.866,0.389Z" style="fill:#0b0d6e;"/><path d="M354.031,804.228c0.606,0.979 2.411,3.895 9.962,10.383c3.239,2.783 3.849,0.799 13.227,-9.013c7.688,-8.043 -6.373,-8.454 -4.879,-13.439c1.069,-3.569 8.628,5.471 9.239,6.049c2.058,1.948 6.81,-4.07 9.107,-6.419c4.866,-4.976 -7.82,-10.301 -7.966,-13.479c-0.413,-9.045 20.168,19.513 24.528,20.287c0.638,0.113 7.826,1.389 4.081,7.002c-3.379,5.064 -10.488,-15.92 -17.196,-9.008c-5.717,5.89 -9.462,8.58 -1.987,11.961c3.002,1.358 5.071,0.311 5.081,6.538c0.015,9.095 -7.481,-9.69 -13.85,-7.429c-1.235,0.945 -1.135,0.847 -2.144,1.939c-4.428,5.194 -4.567,4.878 -9.086,9.932c-1.279,1.431 1.275,4.38 1.532,4.677c3.494,4.035 3.809,3.738 9.128,4.48c0,0 0.863,5.158 0.938,5.606c-1.138,1.075 -1.033,1.006 -1.138,1.075c-0.706,0.467 -0.772,0.059 -1.469,0.519c-11.194,-11.628 -29.041,-27.211 -28.693,-28.892c0.052,-0.25 0.117,-0.205 1.584,-2.767Z" style="fill:#0f0f6d;"/><path d="M464.395,853.009c-0.675,0.84 -7.861,9.789 -7.445,11.223c1.087,3.74 9.34,2.129 10.362,5.465c1.849,6.036 -0.935,5.32 -1.295,5.1c-0.716,-0.436 -0.287,-0.992 -8.555,-6.044c-4.247,-2.595 -4.352,0.435 -9.777,8.862c-2.747,4.266 -6.002,5.016 -1.907,7.988c4.878,3.54 4.962,3.633 9.264,3.453c3.802,-0.158 2.741,1.544 3.152,5.239c-0.676,0.629 -1.352,1.258 -2.027,1.887c-26.646,-17.77 -35.105,-21.49 -32.549,-24.162c1.553,-1.623 13.821,10.549 16.182,7.117c9.897,-14.39 9.334,-15.131 8.446,-16.3c-0.991,-1.304 -10.865,-5.393 -8.014,-7.851c2.673,-2.304 9.446,8.604 12.929,3.492c5.094,-7.475 6.689,-9.449 3.086,-11.833c-9.015,-5.965 -9.967,-7.004 -8.069,-8.278c3.647,-2.449 17.109,15.839 28.626,16.052c3.103,0.057 2.095,1.384 2.967,4.357c-1.333,5.317 -3.325,1.146 -9.895,-2.527c-0.34,-0.19 -0.194,-0.222 -4.052,-2.688c-0.476,-0.184 -0.952,-0.368 -1.427,-0.552Z" style="fill:#121270;"/><path d="M1067.178,741.497c3.103,14.966 -2.489,19.124 -2.753,15.149c-0.815,-12.287 0.56,-22.322 -17.476,-46.468c-2.847,-3.812 6.121,-9.191 7.575,-4.461c1.012,3.291 20.113,4.264 34.619,-8.171c4.27,-3.661 4.831,-1.814 4.908,-1.412c1.639,8.521 0.924,8.9 0.27,9.246c-14.496,7.675 -30.869,5.874 -33.575,5.576c-6.868,-0.756 -1.785,3.509 2.966,15.392c2.42,6.053 1.743,8.83 3.467,15.15Z" style="fill:#0c0e71;"/><path d="M779.638,982.873c-2.215,0.893 -2.237,1.661 -3.554,0.762c-0.74,-0.505 -4.979,-24.58 -7.552,-44.24c-0.763,-5.828 -2.026,0.872 -5.657,9.238c-2.585,5.958 -3.546,0.502 -3.473,0.233c4.349,-15.936 5.93,-15.719 7.054,-43.625c0.138,-3.431 6.126,-0.592 6.604,-0.365c2.021,0.958 -1.82,10.785 -3.134,20.77c-0.446,3.39 3.44,2.02 3.116,5.485c-0.38,4.067 -0.327,4.009 0.356,8.076c6.715,40.005 7.588,40.108 6.241,43.666Z" style="fill:#0d0f6f;"/><path d="M1036.115,779.341c0.804,-0.044 4.034,-0.984 4.419,1.652c1.308,8.962 19.78,16.012 13.079,21.594c-2,1.666 -9.426,-6.983 -10.502,-8.044c-5.31,-5.232 -6.359,-9.728 -11.028,-3.936c-6.246,7.749 -16.352,18.796 -17.815,20.394c-5.784,6.323 -0.734,7.202 9.129,15.623c7.67,6.548 0.852,9.988 -1.937,7.286c-1.333,-1.291 -12.356,-11.97 -17.337,-15.406c-3.95,-2.724 1.437,-3.799 1.767,-3.945c2.466,-1.088 25.739,-28.294 25.986,-29.447c0.852,-3.983 0.13,-5.103 4.239,-5.772Z" style="fill:#0b0b71;"/><path d="M535.574,943.433c-2.094,4.699 -3.413,9.677 -9.636,10.016c-5.059,0.276 -2.194,-4.026 -5.45,-7.355c-9.731,-9.951 5.387,0.325 7.794,-1.739c1.171,-1.004 11.026,-24.456 11.93,-26.606c0.253,-0.603 3.067,-7.299 1.628,-8.007c-3.316,-1.631 -15.521,-5.261 -13.875,-8.299c1.303,-2.405 28.759,12.329 31.905,11.494c3.854,-1.023 5.175,-3.206 6.469,0.639c3.194,9.489 -3.772,4.009 -6.608,3.112c-0.751,-0.237 -7.736,-2.448 -9.252,-3.353c-2.307,-1.377 -2.842,0.353 -14.904,30.097Z" style="fill:#101172;"/><path d="M1116.49,736.431c0.023,0.012 0.436,-0.68 3.279,2.623c-11.5,22.258 -12.154,24.645 -12.785,26.946c-2.277,8.301 -9.552,3.302 -9.272,1.418c0.852,-5.736 0.892,-8.878 -8.576,-22.82c-0.848,-1.049 -1.695,-2.098 -2.543,-3.147c13.388,-21.071 14.116,-20.93 13.862,-23.197c-0.688,-6.145 1.06,-6.121 6.647,-6.952c5.672,-0.844 0.834,2.544 -2.135,7.402c-10.554,17.266 -11.489,17.61 -10.196,18.721c0.881,0.757 5.764,25.931 8.519,22.289c12.325,-16.296 12.934,-21.157 13.2,-23.281Z" style="fill:#0d0e71;"/><path d="M330.826,752.196c-11.59,-13.866 -12.192,-15.993 -9.229,-18.522c1.013,-0.864 10.585,-9.033 13.274,-10.042c2.649,-0.995 14.63,14.738 11.781,17.297c-8.716,7.827 -14.427,10.591 -15.826,11.268Z" style="fill:#fafafc;"/><path d="M617.321,931.099c8.313,-6.629 12.051,-17.562 9.06,-18.431c-4.892,-1.422 -7.088,-0.386 -5.896,-3.305c1.551,-3.801 11.447,4.656 26.771,2.255c0.028,-0.004 8.16,1.435 3.113,7.47c-3.584,4.285 -4.146,22.33 -16.622,20.196c-1.274,-6.839 -9.242,-7.735 -4.095,-9.015c2.798,-0.696 7.436,7.722 11.947,-4.715c0.326,-0.899 4.049,-8.999 0.43,-9.793c-5.145,-1.128 -7.379,-2.258 -9.221,1.921c-0.878,1.993 -7.391,16.776 -19.525,18.978c-1.128,0.205 -1.329,0.098 -1.43,0.044c-0.967,-0.513 -0.386,-1.007 -1.423,-1.558c2.17,-1.676 2.192,-1.453 6.891,-4.046Z" style="fill:#0f1072;"/><path d="M315.95,729.462c-0.075,-0.026 -1.385,0.575 -2.456,-0.845c-0.785,-1.04 -9.668,-12.817 -9.76,-13.04c-0.608,-1.488 -0.612,-2.29 15.007,-13.366c1.119,-0.794 1.974,-0.913 11.545,12.289c2.077,2.865 0.52,3.592 -14.336,14.961Z" style="fill:#f9f9fb;"/><path d="M352.562,802.802l1.469,1.426c-1.467,2.562 -1.532,2.518 -1.584,2.767c-0.349,1.681 17.499,17.264 28.693,28.892c0.718,0.904 1.435,1.807 2.153,2.711c-2.736,2.77 -3.995,7.9 -9.874,2.149c-28.041,-27.428 -29.557,-28.421 -27.392,-30.917c5.179,-5.971 5.931,-6.557 6.537,-7.029Z" style="fill:#f9f9fb;"/><path d="M787.048,920.065c-1.748,-8.563 -2.007,-8.611 -1.622,-9.361c0.729,-1.42 19.863,-6.766 20.613,-2.926c0.236,1.209 2.852,14.606 2.824,15.141c-0.18,3.415 -19.798,6.651 -20.43,3.902c-0.515,-2.24 -0.869,-4.516 -1.384,-6.756Z" style="fill:#f9f9fb;"/><path d="M609.194,938.261c10.64,2.168 17.749,5.35 23.202,2.522c5.953,3.836 4.437,6.21 4.097,6.742c-5.933,9.288 -3.691,24.674 -10.156,19.589c-1.747,-1.374 2.859,-17.451 2.499,-19.708c-0.329,-2.062 -0.754,-2.838 -25.159,-6.929c-2.007,-0.336 -2.433,1.386 -2.49,1.616c-3.932,15.917 -3.256,16.046 -3.637,17.418c-0.637,2.292 -6.637,3.658 -5.653,-1.026c5.075,-24.151 5.672,-25.843 7.582,-24.471c4.435,3.187 4.472,3.017 9.715,4.247Z" style="fill:#0e106d;"/><path d="M614.941,929.15c-1.61,-1.716 -1.609,-1.607 -2.908,-3.63c-1.223,-1.906 -15.36,4.666 -16.625,5.254c-2.585,1.202 -5.818,-2.976 -3.653,-6.25c2.493,-3.771 1.904,-3.935 2.784,-8.355c1.009,-5.069 1.909,-15.629 5.067,-13.735c10.768,6.457 19.936,-8.916 20.944,1.342c0.289,2.945 -14.46,3.699 -16.896,4.022c-1.159,0.154 -2.437,0.323 -4.863,13.782c-0.108,0.598 -0.209,2.483 7.55,0.86c7.215,-1.509 2.488,-6.184 1.929,-7.764c-2.408,-6.804 16.672,7.717 6.671,14.475Z" style="fill:#0d0f6f;"/><path d="M610.43,935.146c1.038,0.55 0.457,1.045 1.423,1.558c0.101,0.054 0.302,0.16 1.43,-0.044c12.134,-2.203 18.647,-16.985 19.525,-18.978c1.842,-4.18 4.075,-3.05 9.221,-1.921c3.619,0.794 -0.104,8.893 -0.43,9.793c-4.511,12.437 -9.149,4.019 -11.947,4.715c-5.148,1.28 2.821,2.177 4.095,9.015l-1.351,1.5c-5.453,2.828 -12.562,-0.354 -23.202,-2.522c0.412,-1.038 0.824,-2.077 1.236,-3.115Z" style="fill:#f8f8fb;"/><path d="M1014.48,775.417c3.273,3.245 6.375,3.068 3.434,6.657c-14.78,18.034 -15.275,18.527 -17.04,17.667c-0.321,-0.156 -6.555,-5.456 -7.104,-6.349c-2.435,-3.958 15.659,-21.489 16.359,-21.438c0.752,0.055 4.029,3.157 4.352,3.463Z" style="fill:#fafafc;"/><path d="M507.953,914.799c0.055,-3.197 0.075,-4.355 15.001,-37.042c1.089,-2.386 10.844,-0.509 6.559,5.235c-7.192,9.64 -11.074,8.455 -9.978,19.445c1.072,10.748 -3.446,21.609 -11.581,12.362Z" style="fill:#f7f7fa;"/><path d="M1039.767,815.621c7.839,12.875 5.173,20.362 -4.152,37.404c-0.121,0.222 -6.94,6.785 -2.858,-1.344c14.389,-28.654 -0.542,-34.315 -8.786,-44.805c-2.641,-3.361 5.604,-6.51 7.064,-2.787c0.422,1.077 0.916,2.335 8.733,11.531Z" style="fill:#0c0c71;"/><path d="M612.104,962.575c-0.676,1.176 -1.352,2.352 -2.029,3.528c-1.669,2.007 -10.914,13.131 -30.997,10.192c-10.617,-1.554 7.4,-3.425 8.103,-3.498c28.825,-2.994 18.927,-34.62 30.044,-23.863c0.838,0.811 1.58,1.529 -5.121,13.641Z" style="fill:#0e0f6e;"/><path d="M718.555,932.474c-0.362,3.253 0.335,4.503 -2.952,4.557c-21.679,0.357 -21.92,0.836 -23.29,-0.428c-0.425,-0.392 -1.923,-8.056 1.219,-8.692c0.134,-0.027 21.544,-0.374 23.642,0.041c1.834,0.363 1.013,1.078 1.381,4.522Z" style="fill:#f7f7fa;"/><path d="M718.565,920.191c-0.162,3.106 0.193,4.121 -3.003,4.175c-22.427,0.383 -23.684,0.083 -23.837,-2.76c-0.442,-8.227 3.387,-6.082 11.545,-6.087c1.112,-0.001 13.172,-0.008 13.898,0.188c1.783,0.48 1.003,1.11 1.397,4.484Z" style="fill:#fafafc;"/><path d="M970.34,871.346c0.239,0.934 1.704,6.651 0.48,12.046c-0.777,3.427 -11.695,6.42 -12.325,6.441c-0.197,0.007 -3.869,-2.625 -1.02,-10.276c7.468,-4.719 6.794,-5.728 12.865,-8.211Z" style="fill:#f9f8fb;"/><path d="M876.938,909.079c-1.458,-3.404 -1.449,-3.309 -2.877,-6.718c-0.864,-2.063 -5.252,-5.787 5.171,-9.068c1.183,-0.372 2.112,-0.36 7.697,13.453c1.159,2.867 -2.657,3.759 -5.102,4.829c-4.343,1.901 -4.475,-1.893 -4.889,-2.496Z" style="fill:#f7f7fa;"/><path d="M1043.171,816.102c0.121,-1.931 0.235,-1.908 1.972,-2.917c12.591,-7.317 12.443,-7.282 14.519,-8.367c12.684,-6.635 18.123,4.407 12,5.067c-13.546,1.458 -13.579,1.178 -25.994,6.521c-1.987,0.855 -2.035,-0.247 -2.497,-0.303Z" style="fill:#0a0a6b;"/><path d="M528.851,924.534c-1.563,1.237 -25.859,20.465 -21.776,12.121c1.165,-2.381 8.847,-4.796 22.353,-21.157c3.104,-3.76 4.243,-1.225 5.683,3.429c0.589,1.903 -1.487,1.962 -6.26,5.606Z" style="fill:#0d1072;"/><path d="M612.104,962.575c7.66,4.809 28.673,14.899 20.683,22.345c-4.845,4.515 -5.706,-12.713 -22.712,-18.817c0.676,-1.176 1.352,-2.352 2.029,-3.528Z" style="fill:#0c0d71;"/><path d="M1116.49,736.431c-5.452,0.097 -5.334,-0.002 -10.75,1.061c-3.669,0.72 -3.355,-2.056 -1.337,-2.782c16.047,-5.769 20.131,-7.239 24.049,-2.431c4.282,5.255 -7.689,5.017 -7.735,5.062c-0.47,0.452 -0.477,1.261 -0.947,1.713c-2.842,-3.302 -3.256,-2.61 -3.279,-2.623Z" style="fill:#0f116d;"/><path d="M555.037,942.003c-0.755,11.872 -7.066,9.667 -7.402,6.855c-0.221,-1.844 1.875,-1.848 -0.014,-23.214c-0.215,-2.428 1.855,-3.562 2.752,-1.283c3.364,8.548 2.729,8.641 4.664,17.642Z" style="fill:#0b0d70;"/><path d="M543.766,882.97c18.584,7.601 18.449,8.877 21.986,7.861c0.57,-0.164 6.387,-1.834 5.568,4.886c-0.296,2.429 -2.016,1.918 -29.027,-9.633c-0,-0 -1.126,-1.306 -1.224,-1.419c0.896,-1.516 1.034,-1.284 2.696,-1.694Z" style="fill:#18187c;"/><path d="M1070.278,739.977c-0.153,-0.837 -0.888,-1.493 -1.04,-2.33c-0.213,-1.169 11.528,-12.097 11.244,-19.417c-0.239,-6.14 7.216,-3.803 7.266,-3.759c0.994,0.889 1.45,1.716 -8.231,14.497c-5.985,7.901 -4.336,9.964 -9.238,11.009Z" style="fill:#121371;"/><path d="M846.602,902.375c-8.621,-10.235 -9.826,-8.835 -10.5,-9.762c-3.409,-4.687 9.621,0.05 10.404,0.335c5.918,2.151 8.337,13.789 0.097,9.428Z" style="fill:#0c0d75;"/><path d="M1086.593,741.45c0.848,1.049 1.695,2.098 2.543,3.147c-5.776,4.015 -14.036,23.042 -15.849,15.896c-0.186,-0.733 11.089,-16.282 13.306,-19.043Z" style="fill:#151877;"/><path d="M385.44,811.016c0.456,1.055 5.668,13.121 -1.164,14.314c-6.916,1.208 -2.065,-3.467 -1.128,-12.921c0.764,-0.464 1.528,-0.929 2.292,-1.393Z" style="fill:#141277;"/><path d="M454.08,872.345c5.888,-2.489 7.12,10.95 3.184,13.279c-5.64,3.338 -2.491,-4.472 -3.184,-13.279Z" style="fill:#0f0f75;"/><path d="M968.968,867.961c0.457,1.128 0.915,2.257 1.372,3.385c-6.071,2.483 -5.398,3.493 -12.865,8.211c-0.393,-1.184 -0.984,-0.698 -1.349,-1.797c-0.068,-0.204 -0.019,-0.199 -0.256,-2.681c3.724,0.032 3.445,-0.77 6.521,-2.771c0.529,-0.344 0.494,-0.355 6.577,-4.348Z" style="fill:#1e1f7b;"/><path d="M458.194,894.295c1.392,0.751 1.26,0.74 2.541,1.712c-0.557,0.785 -1.113,1.569 -1.67,2.354c-0.966,-0.726 -1.932,-1.452 -2.898,-2.178c0.676,-0.629 1.352,-1.258 2.027,-1.887Z" style="fill:#7878b2;"/><path d="M383.746,834.294c0.651,0.664 1.303,1.328 1.954,1.992c-0.956,1.506 -0.889,1.441 -2.408,2.313c-0.718,-0.904 -1.435,-1.807 -2.153,-2.711c0.697,-0.46 0.762,-0.052 1.469,-0.519c0.104,-0.069 0,0 1.138,-1.075Z" style="fill:#8686b5;"/><path d="M383.377,807.659c1.108,1.598 0.982,1.516 2.063,3.357c-0.764,0.464 -1.528,0.929 -2.292,1.393c-0.638,-0.937 -1.277,-1.874 -1.915,-2.811c1.009,-1.092 0.909,-0.994 2.144,-1.939Z" style="fill:#9798c1;"/><path d="M539.133,880.72c1.051,0.558 1.062,0.162 2.08,0.702c0.211,0.112 0.189,0.115 2.553,1.548c-1.663,0.41 -1.8,0.178 -2.696,1.694c-0.284,-0.315 -0.947,-0.006 -1.231,-0.321c-0.542,-0.601 0.335,-0.914 -0.356,-1.44c-0.683,-0.52 -0.814,0.55 -1.512,0.018l1.162,-2.201Z" style="fill:#a09fcc;"/></g></svg>