<?xml version="1.0" encoding="UTF-8" standalone="no"?><!DOCTYPE svg PUBLIC "-//W3C//DTD SVG 1.1//EN" "http://www.w3.org/Graphics/SVG/1.1/DTD/svg11.dtd"><svg width="100%" height="100%" viewBox="0 0 1785 424" version="1.1" xmlns="http://www.w3.org/2000/svg" xmlns:xlink="http://www.w3.org/1999/xlink" xml:space="preserve" xmlns:serif="http://www.serif.com/" style="fill-rule:evenodd;clip-rule:evenodd;stroke-linejoin:round;stroke-miterlimit:2;"><g id="Fondo"><path d="M421.149,164.269c3.12,20.317 3.281,36.512 1.031,55.933c-0.712,6.142 -3.371,20.277 -6.031,28.556c-2.145,6.677 -3.536,13.38 -5.985,16.196c-0.798,0.917 -9.694,10.148 -10.776,11.237c-2.523,2.542 -2.386,2.658 -4.043,4.216c-8.248,7.757 -8.122,7.978 -10.031,10.141c-0.161,0.182 -1.722,1.951 -2.383,1.89c-1.457,-0.134 0.021,-2.18 0.131,-2.331c5.438,-7.526 4.909,-7.841 8.818,-14.896c2.891,-5.217 11.679,-25.446 15.165,-43.908c1.724,-9.129 2.492,-11.278 3.3,-23.935c0.014,-0.213 0.142,-2.224 -0.054,-2.665c-0.371,-0.835 -1.51,-0.895 -1.661,-0.903c-3.568,-0.189 -39.269,0.1 -40.408,-0.071c-1.568,-0.235 -1.668,-1.419 -2.643,-2.017c-1.507,-0.924 -5.099,-2.29 -13.126,-5.999c-1.518,-0.701 -4.096,-1.399 -4.169,-1.475c-0.179,-0.185 -0.2,-1.177 -0.06,-1.315c0.564,-0.555 0.719,0.126 9.891,0.148c4.045,0.01 48.645,0.121 50.568,-0.002c2.448,-0.157 1.977,-2.196 1.752,-6.818c-0.571,-11.714 -2.237,-20.327 -2.574,-22.072c-3.158,-16.332 -3.753,-16.178 -5.877,-23.782c-0.293,-1.05 -1.232,-4.409 -4.599,-12.831c-1.592,-3.981 -1.765,-3.894 -4.102,-9.387c-0.977,-2.297 -1.124,-2.742 -4.849,-2.745c-4.997,-0.004 -61.824,-0.049 -62.466,0.026c-3.546,0.414 0.156,2.673 3.851,28.516c0.003,0.022 2.644,14.212 3.354,35.849c0.191,5.82 -0.016,5.843 -0.22,6.049c-0.474,0.482 -1.306,0.213 -1.415,0.178c-0.069,-0.022 -7.506,-3.245 -8.495,-4.216c-1.044,-1.025 -0.586,-1.265 -1.305,-10.312c-0.639,-8.04 -0.296,-8.065 -2.358,-23.827c-0.528,-4.036 -3.396,-19.372 -5.144,-25.794c-1.286,-4.722 -0.791,-6.327 -3.871,-6.419c-2.188,-0.066 -43.929,0.067 -69.806,-0.045c-4.134,-0.018 -6.011,-0.318 -6.096,1.951c-0.054,1.448 0.037,21.729 -0.062,22.117c-0.354,1.38 -1.898,0.745 -2.058,0.679c-2.712,-1.115 -2.819,-1.785 -5.493,-0.611c-0.763,0.335 -1.751,0.971 -2.815,0.738c-0.657,-0.144 -0.607,-0.287 -0.647,-0.954c-0.1,-1.683 0.041,-1.672 0.03,-21.078c-0.002,-3.469 -1.438,-2.801 -4.901,-2.8c-22.349,-0.003 -44.698,-0.007 -67.047,-0.01c-4.673,0.013 -5.987,-0.355 -6.704,1.798c-0.231,0.694 -6.592,25.533 -8.288,47.827c-0.67,8.801 -0.555,8.79 -0.957,14.703c-0.174,2.558 -1.655,2.594 -4.13,3.94c-0.29,0.158 -1.041,0.566 -3.765,1.679c-0.624,0.255 -1.215,0.617 -1.875,0.756c-1.199,0.252 -1.249,-1.548 -1.254,-1.718c-0.02,-0.705 0.069,-17.539 2.431,-33.068c1.773,-11.654 1.35,-11.721 4.29,-24.849c1.889,-8.435 1.963,-8.415 2.07,-9.158c0.024,-0.17 0.227,-1.577 -1.107,-1.846c-0.32,-0.064 -64.124,-0.166 -65.196,0.055c-1.737,0.358 -2.19,1.976 -6.219,11.06c-1.815,4.093 -1.726,4.648 -4.72,12.792c-0.156,0.424 -4.385,13.246 -6.5,26.605c-1.518,9.587 -1.619,9.56 -2.307,19.256c-0.036,0.512 -0.405,5.719 -0.181,6.41c0.397,1.225 0.925,1.389 4.295,1.44c4.041,0.061 4.035,-0.144 50.518,-0.091c7.034,0.008 7.945,-0.917 7.907,0.508c-0.028,1.059 -0.552,0.71 -3.353,1.794c-0.674,0.261 -0.654,0.298 -8.23,3.733c-1.87,0.848 -1.817,0.933 -3.736,1.686c-1.611,0.632 -1.655,0.601 -2.792,1.922c-1.267,1.471 -1.644,0.988 -21.938,1.054c-21.38,0.069 -21.767,-0.289 -22.254,0.716c-0.656,1.354 -0.177,3.039 0.448,10.23c0.213,2.453 2.15,15.87 4.444,23.872c1.331,4.643 1.908,8.558 7.408,22.929c0.263,0.687 4.708,10.773 4.778,10.921c0.44,0.927 3.045,6.075 3.312,6.602c0.126,0.249 2.051,3.419 3.636,6.452c0.152,0.29 0.516,0.988 2.172,3.466c0.453,0.678 3.646,6.172 8.148,11.997c1.218,1.576 2.983,4.416 7.709,9.677c3.274,3.644 2.907,3.993 2.885,7.887c-0.034,5.959 0.011,5.944 0.083,11.914c0.009,0.784 0.113,1.046 -0.671,1.103c-1.213,0.088 -1.323,-0.72 -3.166,-2.561c-26.968,-26.95 -38.967,-58.077 -39.838,-60.151c-22.545,-53.715 -13.943,-98.13 -10.058,-116.486c0.725,-3.428 5.95,-23.593 13.301,-38.733c2.965,-6.107 2.812,-6.178 4.572,-9.216c2.368,-4.089 2.113,-4.21 4.604,-8.276c2.891,-4.719 2.769,-4.786 7.178,-11.16c28.168,-40.717 63.973,-58.283 69.997,-61.613c4.63,-2.56 23.185,-11.265 35.046,-14.511c2.847,-0.779 24.607,-8.657 55.161,-8.815c32.355,-0.168 52.005,6.599 61.428,9.344c1.813,0.528 11.141,3.889 16.842,6.555c1.437,0.672 4.836,2.186 5.257,2.374c2.175,0.969 4.219,2.268 7.342,3.685c3.687,1.673 22.531,12.899 33.946,22.954c2.436,2.145 2.501,2.044 4.884,4.269c1.427,1.333 1.454,1.287 2.875,2.628c6.54,6.172 6.675,6.505 11.837,12.088c13.007,14.067 26.365,34.635 34.09,53.336c2.597,6.287 2.7,6.235 4.435,11.086c0.154,0.429 1.833,4.326 3.692,11.032c1.779,6.418 2.324,6.273 4.761,19.276c0.206,1.101 0.704,3.209 1.136,5.639Z" style="fill:#34516f;"/><path d="M468.423,187.661c-4.234,-0.916 -5.189,-1.063 -5.644,-1.133c-6.468,-0.995 -13.198,-2.53 -19.362,-3.684c-1.043,-0.195 -1.433,-0.06 -1.363,-1.108c0.041,-0.609 0.139,-0.603 0.696,-0.825c3.812,-1.526 3.556,-2.017 7.281,-3.717c2.07,-0.944 4.525,-2.552 5.39,-2.99c3.201,-1.623 7.559,-4.171 8.297,-4.539c3.687,-1.838 3.566,-2.024 7.221,-3.937c7.183,-3.76 52.575,-28.571 61.497,-33.133c4.924,-2.518 8.133,-4.45 8.414,-4.485c0.4,-0.051 1.43,0.322 1.468,0.414c0.167,0.399 -2.679,23.69 -3.107,26.523c-1.875,12.4 -1.668,12.409 -3.392,24.835c-1.988,14.327 -1.967,14.328 -2.145,15.573c-2.652,18.576 -2.518,18.592 -2.778,20.203c-0.518,3.209 -0.455,3.207 -0.907,6.429c-1.519,10.831 -1.171,10.869 -1.358,11.801c-0.059,0.294 -0.957,0.93 -1.374,0.794c-0.26,-0.085 -2.019,-3.258 -3.591,-5.412c-0.882,-1.208 -9.045,-12.728 -9.166,-12.887c-2.877,-3.789 -2.687,-4.357 -3.837,-4.183c-0.891,0.135 -0.644,0.475 -1.214,1.463c-0.082,0.142 -0.757,1.311 -1.046,1.765c-7.619,11.977 -17.167,25.212 -17.841,26.069c-1.894,2.407 -29.129,41.645 -71.598,78.201c-3.538,3.046 -18.808,16.406 -38.054,29.776c-12.525,8.7 -12.678,8.453 -13.755,9.225c-3.001,2.149 -5.27,3.242 -7.302,4.658c-3.13,2.181 -22.892,13.687 -36.607,20.41c-10.258,5.029 -10.302,4.887 -14.861,6.982c-13.016,5.982 -22.32,9.331 -22.807,9.534c-6.409,2.677 -25.324,8.865 -30.274,10.249c-17.203,4.81 -18.106,4.636 -18.352,4.694c-68.486,16.247 -120.661,4.513 -140.676,-0.867c-25.954,-6.976 -46.934,-18.309 -52.425,-22.138c-4.534,-3.161 -22.709,-13.631 -34.281,-34.895c-0.945,-1.736 -6.228,-11.445 -8.3,-23.268c-6.498,-37.088 13.922,-63.707 16.498,-67.636c0.356,-0.543 4.597,-6.465 5.361,-7.377c3.016,-3.597 3.577,-4.78 4.353,-4.774c0.176,0.002 0.928,0.759 0.897,0.865c-0.155,0.515 -2.403,3.733 -2.975,4.457c-2.859,3.619 -6.73,11.851 -7.58,14.065c-10.121,26.362 -5.403,45.107 -1.141,56.709c10.345,28.163 36.768,41.85 40.355,43.876c10.669,6.028 16.664,7.984 18.193,8.58c23.186,9.04 40.061,11.178 46.808,12.195c30.691,4.624 54.217,1.829 58.815,1.455c1.843,-0.15 11.215,-0.912 22.921,-2.937c4.597,-0.796 20.651,-4.413 21.12,-4.531c15.733,-3.945 30.418,-9.228 33.019,-10.163c16.03,-5.766 18.617,-7.396 21.372,-8.537c4.973,-2.059 4.923,-2.133 9.823,-4.343c7.279,-3.282 17.165,-8.602 19.454,-9.731c1.834,-0.904 14.874,-8.26 17.149,-9.69c4.548,-2.859 4.601,-2.766 4.988,-3.026c1.508,-1.014 13.444,-8.271 28.458,-19.328c4.13,-3.041 4.737,-3.652 5.704,-4.353c8.358,-6.065 22.931,-18.949 25.527,-21.405c9.215,-8.722 17.919,-16.688 33.469,-34.437c14.236,-16.249 23.684,-29.892 26.389,-33.453c1.004,-1.322 0.925,-1.362 1.892,-2.724c3.806,-5.364 3.755,-5.394 4.088,-5.859c5.137,-7.181 17.896,-28.383 19.048,-30.408c1.56,-2.741 -0.848,-2.797 -2.41,-3.081c-2.228,-0.405 -2.212,-0.392 -4.441,-0.806l-0.001,0Z" style="fill:#355170;"/><path d="M198.263,384.354c-2.619,0.431 -17.812,2.933 -33.004,3.35c-3.542,0.097 -3.468,-0.49 -23.691,-9.918c-5.204,-2.426 -5.129,-2.541 -10.364,-4.943c-6.775,-3.109 -15.001,-7.421 -25.663,-12.067c-2.924,-1.274 -3.523,-1.311 -3.54,-3.69c-0.083,-11.777 -0.152,-70.135 -0.16,-76.234c-0.006,-4.923 -0.073,-61.093 0.017,-61.541c0.269,-1.348 1.665,-0.845 1.814,-0.792c0.211,0.076 9.464,4.674 10.286,5.082c9.349,4.646 33.547,16.052 34.627,16.987c1.024,0.886 0.832,1.135 0.835,17.302c0.004,25.222 -0.136,25.393 0.623,26.261c0.597,0.683 12.781,6.232 18.181,9.133c6.015,3.231 6.305,3.048 6.801,2.735c0.623,-0.393 0.51,-0.917 0.56,-6.895c0.021,-2.498 -0.1,-2.483 0.043,-31.229c0.001,-0.294 -0.097,-3.164 0.089,-3.497c0.391,-0.698 1.393,-0.396 1.512,-0.36c0.25,0.075 5.825,2.876 10.039,4.827c2.207,1.022 2.118,1.185 27.443,13.092c11.256,5.292 11.371,5.307 11.823,6.278c0.527,1.133 0.249,1.217 0.326,70.585c0.014,12.676 -0.004,12.674 0,13.776c0.059,14.748 0.012,15.056 -1.012,15.582c-1.704,0.876 -16.152,4.12 -27.585,6.178l0,-0.002Z" style="fill:#ae8860;"/><path d="M236.574,334.123c-0.002,-13.165 -0.005,-26.331 -0.007,-39.496c0.025,-16.114 -0.123,-16.274 0.657,-17.119c0.563,-0.609 7.259,-3.794 59.166,-30.107c0.762,-0.386 6.565,-3.328 9.557,-4.752c3.266,-1.554 38.369,-19.091 40.117,-19.923c9,-4.287 9.154,-4.992 10.086,-4.187c0.433,0.374 0.43,0.496 0.429,19.144c-0.005,71.503 0.129,71.484 0.024,74.4c-0.088,2.456 -1.758,2.898 -5.069,5.252c-5.948,4.229 -5.96,4.194 -6.471,4.569c-5.451,4.01 -24.77,16.135 -28.526,18.218c-9.501,5.268 -9.903,5.464 -10.787,5.896c-0.738,0.36 -0.689,0.425 -9.053,4.833c-5.868,3.092 -17.261,8.235 -17.429,8.325c-4.07,2.158 -27.785,11.606 -38.622,14.755c-2.656,0.772 -3.96,1.564 -4.033,-1.212c-0.082,-3.087 -0.065,-3.083 -0.038,-38.595l-0.001,-0.001Z" style="fill:#ad8860;"/><path d="M1479.833,157.149c-6.755,18.679 -6.687,24.247 -9.898,25.231c-0.828,0.254 -0.856,0.325 -128.262,0.33c-30.505,0.002 -32.092,-0.329 -33.229,0.835c-1.396,1.429 -0.697,1.789 -0.808,45.419c-0.012,4.378 0.654,5.062 5.06,5.117c4.917,0.06 183.724,-0.05 184.381,0.056c1.91,0.305 2.164,0.503 2.209,2.436c0.015,0.644 -7.06,26.791 -7.691,29.116c-1.089,4.021 -0.931,5.068 -5.098,5.153c-4.044,0.081 -123.424,0.093 -134.156,0.095c-6.706,0 -78.332,0.007 -83.829,-0.11c-4.997,-0.106 -7.158,1.203 -7.253,-3.772c-0.284,-15.117 0.131,-15.109 0.015,-188.998c-0.008,-13.206 -0.422,-15.547 1.298,-16.462c0.792,-0.42 0.87,-0.398 88.243,-0.403c11.586,0 143.865,-0.008 144.815,0.035c3.382,0.154 2.904,1.543 1.94,4.761c-2.705,9.025 -2.309,9.12 -5.117,18.126c-3.386,10.867 -2.083,13.413 -7.506,13.601c-4.454,0.154 -150.046,-0.022 -163.094,-0.038c-11.025,-0.013 -13.225,-0.202 -13.898,1.635c-0.584,1.597 -0.221,11.692 -0.324,32.092c-0.065,12.875 -0.186,14.439 2.088,15.053c1.021,0.275 1.037,0.217 106.638,0.247c63.943,0.018 64.119,-0.417 65.244,0.397c1.519,1.097 -0.028,4.551 -1.776,10.047l0.005,0.002Z" style="fill:#34516f;"/><path d="M1591.696,61.663c8.889,-0.697 8.884,-0.43 35.018,-0.443c11.342,-0.007 140.843,-0.075 141.769,-0.048c4.718,0.133 1.595,3.993 1.286,4.576c-3.726,7.004 -7.238,13.909 -7.855,15.126c-6.544,12.867 -6.69,12.786 -7.248,13.909c-1.884,3.797 -3.037,2.894 -24.302,2.881c-9.999,-0.007 -117.995,-0.071 -124.994,0.035c-32.719,0.495 -35.109,40.446 -9.214,47.664c6.936,1.933 10.467,1.225 109.82,1.329c8.852,0.01 40.888,-2.705 63.475,21.802c4.058,4.401 9.383,13.128 10.997,17.871c6.816,20.035 5.442,50.341 -17.467,69.232c-1.646,1.358 -10.233,8.439 -23.656,12.348c-3.505,1.021 -13.03,3.794 -45.541,2.874c-7.07,-0.199 -7.068,0.08 -88.409,0.018c-60.297,-0.045 -60.292,0.304 -65.533,0.169c-4.848,-0.124 -3.567,-2.589 -1.163,-6.786c3.567,-6.229 3.259,-6.361 6.63,-12.703c6.912,-13.003 7.623,-16.004 9.559,-16.843c2.461,-1.067 2.619,-0.508 137.389,-0.558c18.277,-0.007 30.436,1.29 39.69,-8.145c8.945,-9.121 6.806,-21.124 6.471,-23.006c-0.813,-4.562 -4.569,-11.222 -8.031,-13.662c-9.986,-7.032 -14.062,-6.414 -33.554,-6.458c-99.598,-0.226 -99.64,0.622 -111.275,-1.124c-18.012,-2.702 -34.429,-13.038 -43.253,-27.103c-10.769,-17.169 -9.926,-33.398 -7.316,-46.136c2.315,-11.302 8.335,-19.31 8.884,-20.111c16.053,-23.371 42.118,-25.782 47.823,-26.711l0,0.002Z" style="fill:#345170;"/><path d="M1154.155,61.661c14.347,1.824 28.964,4.363 44.846,17.169c0.695,0.561 21.992,15.813 24.376,47.961c1.94,26.141 -9.091,48.628 -24.815,61.231c-23.883,19.144 -48.985,16.475 -85.531,16.5c-10.67,0.013 -21.339,0.027 -32.011,0.04c-44.72,-0.083 -44.71,0.101 -57.927,0.08c-4.939,-0.008 -2.456,-3.246 -0.257,-7.818c3.02,-6.28 10.663,-20.772 12.284,-24.343c2.131,-4.692 3.407,-3.985 18.463,-3.93c7.196,0.027 82.791,0.297 89.958,-0.129c37.688,-2.245 40.362,-43.807 24.444,-59.959c-12.387,-12.572 -26.829,-10.719 -51.906,-10.748c-18.048,-0.02 -106.164,-0.003 -106.71,0.048c-3.59,0.339 -3.198,1.844 -3.107,15.353c0.075,10.962 -0.093,124.202 -0.03,149.382c0.015,6.215 0.785,8.268 -4.458,8.341c-25.103,0.349 -29.208,-0.197 -36.596,-0.002c-0.362,0.01 -3.537,0.095 -4.456,-0.84c-1.049,-1.065 -0.914,-2.551 -0.906,-27.319c0.007,-32.009 0.013,-64.018 0.02,-96.029c0.05,-72.402 0.116,-72.397 -0.03,-79.265c-0.01,-0.456 -0.101,-4.755 1.138,-5.581c1.182,-0.788 1.343,-0.508 56.055,-0.631c10.487,-0.023 120.377,-0.269 131.09,0.101c0.486,0.017 0.45,0.028 6.066,0.387l-0.002,0Z" style="fill:#345170;"/><path d="M849.301,61.632c13.861,1.225 37.597,5.203 55.36,26.735c8.252,10.001 14.581,25.473 14.91,41.515c0.144,7.048 0.178,19.904 -7.624,36.643c-2.64,5.666 -12.84,22.655 -32.05,30.61c-12.467,5.163 -20.337,7.438 -42.76,7.41c-39.124,0.012 -78.247,0.023 -117.37,0.035c-0.229,0 -2.406,0.003 -2.85,-0.327c-1.364,-1.016 0.148,-3.714 0.305,-3.993c4.431,-7.91 3.854,-8.187 9.666,-18.813c5.525,-10.102 4.137,-12.374 9.671,-12.832c4.859,-0.403 4.838,0.071 60.949,-0.01c45.122,-0.065 47.825,0.476 56.535,-3.346c25.502,-11.192 24.512,-49.299 4.511,-61.399c-11.216,-6.786 -15.481,-6.056 -47.327,-6.192c-7.234,-0.032 -92.557,0.032 -100.604,0.038c-2.83,0.002 -7.161,-0.395 -7.901,1.548c-0.378,0.996 -0.358,1.036 -0.38,80.934c-0.01,38.925 0.123,87.779 -0.027,88.29c-0.729,2.481 -2.46,2.373 -8.459,2.496c-3.603,0.073 -28.044,-0.018 -30.482,-0.028c-0.68,-0.003 -4.615,0.214 -6.263,-0.591c-1.597,-0.78 -1.07,-1.399 -1.138,-35.295c-0.028,-13.77 -0.344,-170.464 0.149,-172.115c0.578,-1.938 1.301,-1.774 17.917,-1.769c168.615,0.046 168.607,0.083 175.263,0.458l0,-0.002Z" style="fill:#34516f;"/><path d="M347.085,211.937c-3.391,1.876 -10.478,4.945 -17.673,8.763c-0.783,0.415 -0.806,0.337 -9.947,4.877c-6.771,3.362 -7.12,3.378 -23.9,11.905c-1.758,0.893 -1.809,0.771 -22.049,11.006c-4.592,2.322 -4.718,2.045 -9.208,4.576c-1.577,0.889 -26.144,12.968 -29.379,14.679c-3.798,2.009 -4.125,1.771 -7.992,-0.095c-1.427,-0.689 -10.1,-4.685 -15.587,-7.372c-9.347,-4.578 -14.44,-6.746 -15.62,-7.324c-2.778,-1.361 -2.79,-1.306 -5.574,-2.64c-1.513,-0.725 -4.842,-2.456 -7.405,-3.56c-1.867,-0.804 -7.881,-3.779 -8.562,-4.116c-1.288,-0.637 -1.585,-1.061 -0.549,-2.057c0.48,-0.462 4.222,-1.98 8.307,-4.458c1.037,-0.629 1.076,-0.538 13.411,-7.058c6.002,-3.173 5.943,-3.244 11.967,-6.408c8.926,-4.688 8.95,-4.602 17.851,-9.325c1.975,-1.048 24.671,-13.094 24.686,-13.103c0.814,-0.503 27.316,-14.653 35.525,-18.914c2.69,-1.396 2.644,-1.474 2.877,-1.595c2.51,-1.302 2.918,-0.42 7.54,1.648c2.151,0.963 18.119,8.515 20.107,9.405c0.35,0.156 3.758,1.905 6.344,2.952c3.431,1.389 4.053,2.001 7.447,3.439c6.057,2.567 5.907,2.871 11.946,5.482c4.807,2.078 5.533,2.816 10.839,4.906c0.211,0.083 0.486,0.093 0.62,0.275c0.11,0.149 -0.017,0.371 -0.008,0.556c0.012,0.252 0.259,0.55 -0.41,0.903c-0.138,0.073 -3.157,1.314 -5.603,2.652l-0.001,0.001Z" style="fill:#ad8861;"/><path d="M112.169,212.537c-2.738,-1.457 -2.706,-1.49 -5.541,-2.727c-1.103,-0.481 -1.489,-0.42 -1.317,-1.606c0.122,-0.841 0.491,-0.529 1.924,-1.114c0.696,-0.284 31.943,-14.818 32.422,-15.081c2.651,-1.452 5.405,-2.311 10.053,-4.703c3.651,-1.879 3.764,-1.61 7.447,-3.45c0.5,-0.25 3.763,-1.881 6.322,-2.972c0.421,-0.179 62.747,-29.631 64.321,-30.23c0.893,-0.34 1.112,-0.824 7.387,2.235c10.567,5.151 10.688,4.855 11.603,5.308c12.595,6.231 13.345,6.1 17.841,8.443c4.769,2.485 10.378,4.566 10.706,5.035c0.178,0.255 0.154,1.345 -0.02,1.567c-0.083,0.106 -5.655,2.952 -6.149,3.204c-7.738,3.952 -7.693,4.019 -8.379,4.334c-6.008,2.761 -21.235,10.953 -25.629,13.04c-4.62,2.195 -5.746,2.982 -5.833,3.026c-14.194,7.147 -14.109,7.267 -15.348,7.874c-4.372,2.142 -15.881,8.123 -16.442,8.441c-1.074,0.608 -19.938,10.276 -21.162,10.93c-6.679,3.569 -6.74,3.445 -7.317,3.76c-4.697,2.566 -4.84,2.273 -9.47,4.979c-3.232,1.889 -3.867,0.387 -8.172,-1.455c-2.991,-1.279 -17.045,-8.154 -18.521,-8.876c-4.987,-2.439 -5.02,-2.336 -10.014,-4.773c-9.86,-4.812 -9.86,-4.763 -10.712,-5.189Z" style="fill:#ae8861;"/><path d="M238.805,16.104c6.951,2.476 6.87,2.657 12.813,5.682c0.672,0.342 1.924,0.979 7.955,5.052c1.271,0.859 4.642,3.661 5.038,3.989c8.951,7.44 20.407,21.224 27.831,34.856c1.289,2.367 1.416,2.281 2.678,4.649c8.385,15.726 13.485,31.163 13.687,32.304c0.031,0.173 0.303,1.718 -1.204,1.833c-0.694,0.053 -26.57,-0.042 -67.96,0.046c-3.845,0.008 -5.236,0.536 -5.232,-2.766c0.009,-6.687 0.107,-77.683 0.024,-83.582c-0.008,-0.598 -0.153,-1.209 -0.03,-1.794c0.032,-0.153 0.279,-1.322 1.576,-1.151c0.235,0.031 0.209,0.065 2.823,0.88l0.001,0.002Z" style="fill:#fcfdfd;"/><path d="M223.396,77.874c-0.018,25.39 0.221,25.646 -0.575,26.239c-0.656,0.488 -0.763,0.351 -31.856,0.385c-3.233,0.004 -40.254,0.044 -40.415,0.035c-0.185,-0.01 -1.612,-0.091 -1.475,-1.785c0.051,-0.627 5.07,-14.446 7.28,-19.24c3.018,-6.547 3.161,-8.06 11.972,-22.896c1.939,-3.265 7.732,-11.456 11.063,-15.495c18.467,-22.397 35.78,-27.753 41.019,-29.521c0.198,-0.067 1.994,-0.673 2.606,-0.089c0.505,0.482 0.378,0.615 0.385,20.116c-0.001,14.083 -0.003,28.167 -0.004,42.25l0,0.001Z" style="fill:#fdfdfd;"/><path d="M280.15,20.579c8.756,2.335 19.661,6.114 35.503,14.527c0.522,0.277 0.477,0.353 6.404,3.698c0.563,0.318 7.043,4.599 7.653,5.002c12.82,8.47 22.646,17.92 24.456,19.66c3.6,3.462 16.268,15.575 28.119,34.442c2.313,3.682 4.811,6.588 1.559,6.622c-4.482,0.048 -4.479,-0.035 -56.028,-0.017c-5.22,0.002 -6.575,0.324 -7.298,-1.861c-0.64,-1.935 -2.444,-8.392 -8.253,-22.052c-9.64,-22.668 -21.084,-37.2 -23.383,-40.118c-4.357,-5.532 -6.829,-8.468 -14.001,-15.303c-6.202,-5.911 -7.222,-5.531 -8.248,-6.417c-1.078,-0.931 -0.897,-1.72 0.525,-1.701c0.21,0.003 7.618,1.945 8.28,2.118c0.102,0.027 0.108,-0.035 4.712,1.399l0,0.001Z" style="fill:#fdfdfd;"/><path d="M190.682,18.966c-0.571,0.506 -2.869,2.092 -3.124,2.267c-2.416,1.667 -9.209,7.948 -14.816,14.513c-6.559,7.68 -11.613,15.622 -12.522,17.05c-1.237,1.944 -1.28,1.891 -2.517,3.838c-0.552,0.868 -4.78,8.294 -6.144,11.18c-0.44,0.931 -1.451,2.595 -2.731,5.517c-2.162,4.933 -2.401,4.812 -5.528,12.845c-2.64,6.782 -2.604,6.774 -4.889,13.67c-1.071,3.234 -0.954,4.505 -3.474,4.62c-1.81,0.082 -55.227,0.005 -59.697,0.037c-0.209,0.001 -2.34,0.017 -2.601,-0.208c-1,-0.861 0.981,-2.882 3.465,-7.171c0.326,-0.562 7.357,-10.822 9.595,-13.437c2.625,-3.068 15.41,-20.073 39.376,-36.691c7.028,-4.873 16.453,-10.024 17.923,-10.827c10.902,-5.958 21.119,-10.128 33.316,-14.185c6.371,-2.119 6.461,-1.797 12.823,-3.96c0.618,-0.21 0.756,-0.588 1.034,-0.061c0.175,0.332 0.336,0.671 0.511,1.003Z" style="fill:#fdfdfd;"/><path d="M1411.631,326.705c1.58,1.57 2.947,2.659 4.552,7.483c3.432,10.306 0.707,29.699 -13.508,28.57c-16.1,-1.278 -15.131,-30.577 -6.262,-36.419c0.83,-0.548 5.98,-3.938 12.351,-1.407c0.251,0.1 0.212,0.131 2.864,1.772l0.002,0Z" style="fill:#365474;"/><path d="M1249.611,332.613c0.075,-0.529 0.032,-1.07 0.105,-1.598c1.494,-10.65 18.312,-8.413 15.665,3.103c-1.143,4.977 -5.603,6.071 -4.765,9.267c0.073,0.277 3.464,5.324 3.699,5.435c0.224,0.106 1.832,-0.03 1.985,-0.156c0.516,-0.427 1.296,-4.824 2.023,-5.571c0.199,-0.204 1.87,-1.922 3.562,-0.174c1.522,1.573 0.08,4.957 -1.165,8.24c-1.802,4.751 -0.153,4.758 1.794,6.463c1.875,1.643 1.455,4.257 -0.846,4.498c-2.368,0.247 -5.052,-2.192 -6.205,-2.202c-1.9,-0.018 -8.439,6.363 -16.868,0.259c-3.532,-2.557 -4.278,-8.383 -2.667,-12.206c2.499,-5.926 6.487,-4.735 5.017,-9.5c-0.891,-2.889 -0.984,-2.85 -1.331,-5.857l-0.002,0Z" style="fill:#ad8a65;"/><path d="M1581.17,327.868c0.32,0.441 2.377,3.273 2.639,6.285c0.672,7.742 -4.894,10.661 -5.238,11.189c-1.434,2.201 1.758,6.829 4.388,13.02c0.596,1.401 1.153,1.447 0.405,2.791c-0.724,1.301 -4.444,1.319 -5.706,-0.914c-0.524,-0.929 -4.572,-11.299 -5.747,-12.452c-0.939,-0.923 -4.682,-2.357 -5.288,1.482c-0.088,0.561 0.012,10.236 -0.118,10.638c-0.944,2.961 -4.79,2.647 -5.412,0.164c-0.564,-2.249 -0.221,-2.285 -0.176,-28.982c0,-0.368 0.007,-4.068 0.154,-4.602c0.488,-1.774 2.81,-1.927 3.102,-1.947c0.098,-0.007 8.331,-0.204 10.749,0.164c3.167,0.481 5.822,2.795 6.245,3.163l0.002,0Z" style="fill:#385575;"/><path d="M1425.915,349.384c0.018,-20.805 -0.098,-22.005 0.388,-23.263c0.332,-0.86 0.856,-2.217 11.416,-1.562c1.238,0.076 11.015,0.684 10.806,11.108c-0.144,7.251 -5.039,8.077 -5.805,10.723c-0.4,1.382 4.162,9.496 5.279,12.283c1.465,3.658 -2.091,3.918 -4.227,2.957c-2.065,-0.929 -4.305,-9.017 -6.758,-13.302c-1.15,-2.008 -4.381,-1.997 -5.258,-0.397c-0.817,1.49 0.202,11.473 -0.89,13.111c-0.583,0.875 -3.784,1.945 -4.869,-1.102c-0.159,-0.446 -0.083,-10.119 -0.081,-10.557l-0.002,0Z" style="fill:#345372;"/><path d="M661.843,346.605c-4.091,-0.048 -5.917,0.46 -5.85,-4.839c0.043,-3.502 0.825,-3.762 4.313,-3.791c27.833,-0.212 51.894,-0.143 56.407,-0.129c3.714,0.012 5.92,-0.221 5.596,5.402c-0.226,3.917 -2.254,3.323 -14.739,3.318c-33.532,-0.01 -33.511,-0.022 -45.727,0.038l0,0.002Z" style="fill:#375775;"/><path d="M765.63,347.035c-2.387,0.252 -2.358,0.186 -4.746,0.358c-4.209,0.304 -3.283,4.068 -3.286,6.557c-0.002,0.48 -0.012,5.686 -0.136,6.003c-1.158,2.944 -5.03,2.526 -5.603,0.078c-0.246,-1.051 -0.332,-32.177 -0.01,-33.494c0.446,-1.827 2.647,-1.997 2.931,-2.018c13.476,-1.037 16.078,2.333 16.923,3.427c5.477,7.092 2.883,16.589 -4.564,18.767c-0.493,0.144 -1.016,0.179 -1.509,0.324l0,-0.002Z" style="fill:#385572;"/><path d="M1375.34,346.974c-2.37,0.241 -2.343,0.242 -4.742,0.334c-4.632,0.178 -3.626,3.246 -3.659,8.165c-0.003,0.483 -0.035,5.092 -0.999,5.95c-0.979,0.873 -4.186,1.082 -4.795,-1.256c-0.586,-2.25 -0.186,-2.29 -0.194,-29.076c0,-0.377 -0.002,-4.015 0.211,-4.707c0.493,-1.611 1.726,-2.162 11.015,-1.839c14.641,0.511 13.333,16.689 7.755,20.46c-2.695,1.822 -3.766,1.711 -4.59,1.968l-0.002,0.002Z" style="fill:#3b5977;"/><path d="M961.688,355.488c-0.005,0.357 -0.068,4.459 -0.068,4.459c-1.044,3.022 -4.838,2.602 -5.39,0.053c-0.284,-1.303 -0.096,-14.062 -0.124,-28.912c-0.002,-0.45 -0.01,-4.796 0.601,-5.596c1.276,-1.675 13.113,-1.265 15.851,0.038c9.48,4.512 8.112,20.061 -2.704,21.397c-2.474,0.305 -6.496,0.115 -7.47,1.155c-1.042,1.114 -0.715,5.505 -0.694,7.405l-0.002,0Z" style="fill:#345371;"/><path d="M1166.033,336.11c-0.8,-0.035 -0.378,-0.845 -1.177,-0.88c-0.09,-0.003 -0.415,-0.018 -0.792,0.795c-0.181,0.392 0.01,0.891 -0.173,1.281c0.201,1.685 0.928,7.792 0.606,21.202c-0.008,0.357 -0.086,3.571 -2.684,3.57c-1.817,0 -2.441,-1.89 -2.524,-2.143c-0.224,-0.679 -0.043,-33.016 0.056,-33.298c0.422,-1.203 1.575,-2.355 4.028,-2.01c3.515,0.495 3.822,3.007 9.121,14.072c2.886,6.024 2.489,6.172 3.641,8.754c0.095,0.212 1.08,2.425 2.318,1.746c1.17,-0.642 -0.257,-11.855 0.085,-21.165c0.013,-0.375 0.141,-3.859 3.152,-3.474c2.815,0.36 2.338,4.708 2.323,14.135c-0.033,19.444 -0.149,21.054 -0.312,21.562c-0.74,2.322 -3.371,1.771 -3.689,1.703c-1.831,-0.383 -3.095,-2.964 -3.258,-3.298c-6.708,-13.684 -7.384,-15.2 -7.981,-16.543c-2.476,-5.561 -2.528,-5.53 -2.74,-6.014l-0.002,0.005Z" style="fill:#345270;"/><path d="M800.84,347.765c3.392,11.38 3.593,12.709 2.639,13.67c-0.712,0.717 -3.786,1.069 -4.841,-1.158c-1.105,-2.332 -0.951,-6.927 -4.26,-7.412c-0.924,-0.136 -6.891,-0.073 -7.404,0.121c-4,1.515 -2.119,8.343 -6.152,9.073c-4.041,0.732 -3.089,-3.142 -2.999,-3.5c1.285,-5.221 2.111,-4.977 7.875,-27.372c0.712,-2.763 1.328,-7.02 5.746,-6.65c3.796,0.317 3.467,3.304 8.008,18.606c0.687,2.318 0.705,2.292 1.389,4.622Z" style="fill:#34506f;"/><path d="M1078.469,352.588c8.021,-25.575 6.612,-28.384 11.727,-28.029c3.364,0.234 3.729,3.414 4.181,5.112c0.778,2.933 7.757,26.169 8.351,28.771c0.073,0.319 0.77,3.369 -1.791,3.669c-4.453,0.523 -4.411,-6.043 -5.382,-7.724c-1.349,-2.338 -10.233,-1.909 -11.461,-0.413c-0.543,0.661 -1.507,4.162 -1.61,4.532c-1.567,5.687 -5.583,2.906 -5.691,2.755c-0.901,-1.248 0.873,-5.918 1.676,-8.673Z" style="fill:#355270;"/><path d="M984.075,352.613c7.082,-23.591 6.217,-28.321 11.602,-28.072c3.563,0.164 3.812,3.351 4.249,5.11c3.246,13.05 8.668,29.151 8.522,30.502c-0.023,0.222 -0.186,1.713 -2.035,1.904c-3.862,0.397 -4.554,-4.851 -4.614,-5.065c-1.036,-3.641 -1.99,-4.522 -9.166,-4.184c-4.614,0.217 -3.17,2.287 -5.085,7.037c-0.982,2.438 -4.267,2.692 -5.201,1.402c-0.606,-0.838 -0.548,-1.673 1.729,-8.632l-0.002,-0.002Z" style="fill:#355373;"/><path d="M1112.929,327.943c0.329,-0.302 2.654,-2.438 4.594,-3.17c8.864,-3.344 13.556,3.545 14.228,4.532c3.429,5.034 -0.508,6.046 -2.151,5.488c-1.334,-0.453 -2.82,-3.034 -3.16,-3.425c-2.314,-2.659 -11.813,-4.634 -12.206,10.374c-0.594,22.592 14.601,16.251 14.492,9.164c-0.061,-4.033 -4.031,-2.302 -5.785,-3.875c-1.739,-1.56 -0.37,-3.027 -0.194,-3.215c1.356,-1.451 9.493,-0.896 10.067,-0.471c1.266,0.939 1.477,1.578 1.417,13.654c-0.03,6.011 -2.793,3.736 -4.443,3.699c-1.6,-0.035 -1.499,0.342 -2.984,0.991c-6.97,3.042 -17.892,0.161 -18.579,-16.868c-0.498,-12.329 4.559,-16.697 4.705,-16.878Z" style="fill:#385574;"/><path d="M1200.14,361.195c-0.81,-0.68 -3.472,-1.889 -5.848,-7.428c-1.973,-4.602 -1.953,-9.485 -1.957,-10.484c-0.045,-21.754 17.814,-22.191 22.926,-15.327c0.332,0.446 4.851,6.511 -0.191,6.955c-2.114,0.186 -4.4,-3.586 -4.554,-3.747c-2.327,-2.415 -5.515,-1.593 -5.993,-1.469c-6.356,1.64 -6.079,11.953 -6.081,12.065c-0.566,20.242 12.827,17.336 14.193,10.779c1.044,-5.007 -3.221,-4.398 -3.613,-4.464c-2.139,-0.367 -2.443,-1.611 -2.503,-1.852c-0.433,-1.777 0.948,-2.586 1.15,-2.704c0.622,-0.363 8.132,-1.051 9.735,0.549c0.873,0.871 1.115,1.902 0.941,9.891c-0.091,4.156 -0.715,4.154 -3.401,5.628c-6.783,3.723 -7.857,4.441 -14.809,1.608l0.003,-0.002Z" style="fill:#355171;"/><path d="M1052.539,338.598c0.398,0.357 0.795,0.714 1.193,1.07c0.334,-0.146 0.752,0.271 1.087,0.124c0.536,-0.234 1.12,-2.863 5.266,-8.423c2.318,-3.108 3.867,-6.823 7.262,-6.886c2.874,-0.053 3.135,1.19 1.608,3.626c-1.543,2.465 -7.872,9.501 -7.51,12.099c0.332,2.378 5.613,11.088 7.485,15.215c1.041,2.295 2.098,4.073 2.106,4.627c0.023,1.807 -0.32,2.001 -2.148,2.06c-2.846,0.09 -4.048,-1.983 -4.242,-2.317c-2.259,-3.893 -4.737,-9.5 -5.11,-10.343c-1.001,-2.262 -0.435,-3.357 -2.916,-3.206c-1.923,0.118 -3.308,4.169 -3.404,4.574c-0.636,2.65 0.446,9.053 -1.225,10.675c-0.134,0.129 -4.717,2.436 -4.888,-2.949c-0.022,-0.692 0.037,-23.57 0.01,-28.98c-0.002,-0.342 -0.017,-3.406 0.742,-4.217c0.753,-0.807 4.733,-2.008 5.065,2.723c0.164,2.34 -0.227,8.049 -0.383,10.527Z" style="fill:#375676;"/><path d="M1314.243,362.095c-9.91,0.083 -12.24,0.798 -12.402,-3.56c-0.05,-1.356 -0.193,-30.897 0.111,-32.045c0.586,-2.217 2.473,-2.041 13.808,-2.035c0.375,0 4.131,0.002 4.693,0.154c2.156,0.584 3.688,5.183 -1.631,5.317c-8.552,0.216 -9.043,-0.748 -10.648,1.188c-0.329,0.397 -1.849,8.082 1.557,8.864c1.716,0.395 8.534,-0.626 9.219,1.724c0.987,3.387 -2.773,3.563 -3.155,3.581c-5.558,0.261 -8.117,-1.515 -8.227,4.066c-0.01,0.496 -0.096,4.936 0.458,6.197c1.386,3.147 14.004,-0.612 14.829,3.12c0.071,0.324 0.632,2.861 -2.448,3.342c-0.256,0.04 -5.673,0.081 -6.165,0.085l0.002,0Z" style="fill:#34516f;"/><path d="M1536.784,362.118c-1.527,-0.156 -4.559,0.724 -4.677,-3.586c-0.063,-2.317 0.043,-2.294 -0.003,-28.964c0,-0.332 -0.005,-3.294 0.67,-4.096c0.958,-1.135 3.306,-0.991 14.679,-0.999c0.357,0 3.608,-0.002 4.401,0.709c0.398,0.357 2.569,4.566 -2.864,4.72c-0.488,0.013 -0.483,-0.01 -6.101,0.023c-3.961,0.023 -4.896,0.252 -4.949,4.205c-0.04,2.989 -0.201,5.744 3.427,5.928c1.187,0.06 7.201,-0.403 7.817,1.62c1.027,3.372 -2.831,3.571 -3.216,3.591c-5.503,0.284 -8.006,-1.402 -8.097,4.098c-0.037,2.192 -0.554,6.723 2.045,7.345c2.607,0.624 12.386,-0.929 13.05,1.977c0.073,0.322 0.654,2.861 -2.377,3.366c-0.387,0.065 -0.375,0.032 -13.803,0.068l-0.002,-0.005Z" style="fill:#33516f;"/><path d="M1519.586,360.934c-0.476,0.229 -3.487,2.396 -8.653,1.743c-7.779,-0.982 -11.888,-9.295 -7.712,-10.329c4.071,-1.007 3.762,4.599 9.143,5.049c6.048,0.506 8.957,-7.337 1.517,-10.988c-4.25,-2.084 -13.02,-4.136 -11.72,-13.728c1.487,-10.967 16.722,-10.915 19.963,-3.379c0.133,0.307 1.424,3.311 -0.891,4.093c-3.616,1.221 -3.952,-4.174 -8.842,-3.933c-4.264,0.211 -7.857,5.981 0.37,10.026c4.001,1.967 11.438,3.933 11.251,12.935c-0.123,5.877 -4.292,8.378 -4.423,8.51l-0.002,0.003Z" style="fill:#385472;"/><path d="M1697.787,338.994c-0.978,-2.358 -1.235,-2.312 -1.148,-4.866c0.408,-11.969 16.671,-12.829 20.36,-4.733c0.149,0.327 1.703,3.737 -1.992,4.013c-1.276,0.095 -3.082,-1.744 -3.296,-1.963c-3.955,-4.03 -8.605,-1.057 -9.176,1.044c-1.246,4.582 4.761,6.66 9.599,9.169c11.287,5.858 6.894,20.038 -3.148,21.08c-9.32,0.968 -12.845,-6.436 -13.016,-7.415c-0.053,-0.304 -0.503,-2.881 2.368,-3.044c2.954,-0.169 3.268,3.425 6.185,4.577c7.369,2.909 11.076,-5.57 6.136,-9.13c-6.25,-4.503 -8.844,-2.182 -12.869,-8.735l-0.003,0.002Z" style="fill:#355271;"/><path d="M1675.503,362.156c-4.255,-0.294 -6.019,0.649 -6.092,-3.63c-0.037,-2.194 0.259,-2.187 0.103,-27.438c-0.003,-0.45 -0.03,-4.829 0.541,-5.603c0.119,-0.163 0.606,-0.82 2.332,-0.964c0.189,-0.015 14.591,-0.111 15.395,0.061c2.426,0.519 4.094,5.153 -1.61,5.293c-0.34,0.008 -8.71,0.003 -9.068,0.136c-2.45,0.906 -2.245,3.407 -2.224,5.651c0.056,5.669 2.574,4.089 8.235,4.544c0.272,0.022 2.634,0.211 3.035,1.558c1.016,3.412 -2.612,3.603 -2.987,3.623c-5.517,0.29 -8.089,-1.558 -8.203,3.975c-0.043,2.086 -0.591,6.766 2.128,7.395c1.437,0.332 10.567,-0.115 11.964,0.569c1.567,0.765 1.841,3.737 0.266,4.421c-1.155,0.503 -2.879,0.363 -13.813,0.408Z" style="fill:#355472;"/><path d="M1349.668,332.814c-4.308,8.124 -5.249,8.826 -3.83,12.173c1.276,3.012 7.472,13.881 7.692,15.096c0.387,2.126 -2.406,2.053 -2.677,2.046c-2.982,-0.078 -3.316,-1.738 -7.402,-9.868c-0.138,-0.274 -2.073,-4.127 -3.508,-1.567c-1.424,2.541 -4.401,10.472 -7.322,11.275c-3.221,0.885 -4.426,-0.349 -2.851,-3.299c0.647,-1.212 7.647,-14.329 7.784,-15.3c0.365,-2.602 -2.073,-5.656 -3.688,-9.148c-2.129,-4.602 -3.774,-7.394 -3.764,-7.789c0.075,-2.989 3.691,-1.779 4.021,-1.67c2.903,0.969 5.88,10.195 6.378,10.489c0.037,0.022 2.139,-0.027 2.172,-0.05c0.576,-0.41 3.623,-9.661 6.559,-10.477c4.951,-1.377 3.198,2.959 3.064,3.294c-0.164,0.405 -0.242,0.362 -2.629,4.791l0.002,0.002Z" style="fill:#375473;"/><path d="M909.472,335.864c-0.851,4.307 -1.575,6.909 -0.342,13.441c1.655,8.764 8.743,10.613 12.611,4.214c1.326,-2.192 1.251,-2.919 3.776,-2.501c6.297,1.042 -3.474,18.171 -16.888,9.242c-5.95,-3.96 -6.323,-16.193 -5.852,-20.015c0.523,-4.249 0.885,-7.578 4.421,-12.255c3.606,-4.768 15.536,-6.856 19.59,3.201c1.723,4.275 -3.427,5.339 -5.137,2.539c-1.348,-2.209 -1.006,-2.546 -2.624,-3.435c-2.655,-1.46 -7.002,-0.722 -8.896,3.771c-0.247,0.588 -0.412,1.208 -0.661,1.797Z" style="fill:#345272;"/><path d="M1018.48,327.999c12.99,-12.172 25.04,6.504 18.252,7.253c-2.791,0.309 -4.03,-2.903 -4.844,-3.845c-2.577,-2.984 -12.05,-4.318 -12.014,11.878c0.037,15.755 8.436,15.073 11.305,12.827c1.88,-1.472 2.41,-3.123 2.752,-3.557c1.899,-2.42 6.441,-1.927 4.534,2.974c-4.156,10.68 -24.713,11.848 -24.615,-12.243c0.046,-11.103 4.338,-14.922 4.629,-15.285l0.002,-0.002Z" style="fill:#355371;"/><path d="M1642.399,341.793c-0.013,3.698 -0.214,10.67 3.797,14.103c2.25,1.927 5.774,1.781 7.969,-0.407c0.747,-0.744 2.748,-5.575 5.918,-4.217c0.196,0.083 1.545,1.2 1.268,2.609c-2.441,12.44 -26.947,14.639 -24.873,-13.601c1.477,-20.11 20.173,-19.565 24.081,-9.312c1.754,4.6 -2.793,5.156 -4.632,2.974c-0.103,-0.123 -2.516,-5.616 -7.782,-4.098c-5.545,1.6 -5.729,11.802 -5.749,11.944l0.002,0.003Z" style="fill:#34526f;"/><path d="M815.72,326.424c0.609,-0.344 1.145,-0.805 1.754,-1.15c3.616,-2.046 12.847,-2.665 16.195,5.963c1.266,3.263 -1.822,4.035 -2.604,3.844c-2.974,-0.729 -2.938,-4.375 -6.192,-5.293c-12.052,-3.402 -12.109,25.699 -3.029,27.448c5.002,0.964 7.423,-4.707 7.563,-4.902c0.956,-1.333 2.914,-1.089 3.042,-1.037c4.282,1.758 -0.266,8.676 -4.375,10.461c-9.757,4.235 -20.046,-4.335 -18.422,-21.527c1.017,-10.764 6.041,-13.78 6.069,-13.806l-0.002,0Z" style="fill:#385574;"/><path d="M1601.421,351.737c1.626,-0.81 2.068,-0.586 2.362,-2.382c0.3,-1.831 2.242,-13.685 5.261,-22.577c0.921,-2.713 5.193,-2.944 5.326,-0.247c0.025,0.505 -7.711,31.031 -8.854,33.589c-0.946,2.113 -4.866,3.261 -6.859,0.297c-0.305,-0.453 -9.319,-33.841 -9.312,-33.893c0.043,-0.344 0.387,-3.029 3.94,-1.787c1.319,0.461 2.048,2.791 2.136,3.079c2.913,9.322 4.425,19.472 6.001,23.923l0,-0.002Z" style="fill:#365473;"/><path d="M1754.754,346.582c-5.316,-0.02 -10.475,-0.022 -10.698,-0.05c-2.617,-0.337 -2.712,-2.396 -2.762,-3.264c-0.251,-4.317 0,-5.452 4.315,-5.46c2.559,-0.005 28.102,-0.061 31.999,-0.028c4.589,0.038 6.305,-0.647 6.421,3.966c0.073,2.861 -0.068,4.672 -3.352,4.786c-1.937,0.068 -23.85,0.053 -25.923,0.051l0,-0.002Z" style="fill:#395776;"/><path d="M1410.655,335.527c0.372,1.829 1.822,5.817 0.81,12.276c-2.133,13.619 -14.771,12.794 -15.567,-2.967c-0.893,-17.662 9.586,-16.726 12.497,-13.421c1.565,1.777 1.333,1.91 2.26,4.113Z" style="fill:#fafafb;"/><path d="M872.192,340.468c2.385,0.119 2.529,-0.299 3.616,0.576c1.781,1.431 1.484,4.278 -2.016,4.498c-2.322,0.144 -2.295,-0.151 -4.617,0.012c-2.388,0.168 -3.825,0.662 -4.031,3.869c-0.169,2.647 0.48,10.587 -0.815,11.883c-0.305,0.305 -4.647,2.536 -4.889,-2.74c-0.061,-1.338 -0.385,-30.381 0.173,-32.198c0.541,-1.761 3.092,-1.847 3.402,-1.857c1.228,-0.041 13.252,-0.443 15.363,0.28c1.965,0.672 2.914,4.931 -1.577,5.18c-8.907,0.493 -10.499,-1.29 -11.44,2.463c-0.33,1.313 -0.435,6.443 0.971,7.438c1.587,1.124 1.759,0.5 5.858,0.601l0.002,-0.003Z" style="fill:#355370;"/><path d="M1468.03,355.479c-0.123,4.152 0.325,4.295 -0.561,5.573c-0.498,0.719 -5.105,2.718 -5.271,-2.531c-0.173,-5.445 0.461,-25.545 -0.461,-27.234c-0.656,-1.2 -2.483,-1.341 -2.725,-1.361c-0.115,-0.008 -4.421,0.353 -5.21,-1.565c-1.57,-3.815 3.273,-3.88 3.703,-3.887c16.815,-0.222 16.98,-0.166 18.067,0.788c0.221,0.194 2.768,4.285 -2.785,4.579c-2.816,0.149 -4.71,-0.334 -4.771,4.288c-0.027,1.947 0.013,19.64 0.017,21.348l-0.002,0.002Z" style="fill:#375574;"/><path d="M888.028,357.01c0.055,-26.647 -0.098,-26.635 0.045,-28.947c0.32,-5.178 5.054,-3.762 5.656,-1.607c0.148,0.529 0.156,4.26 0.158,4.632c0.005,2.196 0.058,26.371 0.03,27.447c-0.01,0.4 -0.106,3.995 -3.507,3.557c-2.966,-0.383 -2.38,-5.005 -2.382,-5.082Z" style="fill:#335270;"/><path d="M1149.226,343.286c0.053,15.519 0.275,17.17 -1.119,18.32c-0.573,0.473 -3.938,0.953 -4.542,-1.57c-0.269,-1.124 -0.141,-1.142 -0.138,-28.949c0,-0.45 0,-4.806 0.652,-5.585c1.316,-1.572 4.556,-0.651 4.946,1.177c0.188,0.878 0.173,6.157 0.199,16.604l0.002,0.002Z" style="fill:#375471;"/><path d="M848.967,352.427c-0.005,0.601 -0.05,7.228 -0.151,7.505c-1.112,3.074 -4.962,2.471 -5.535,0.106c-0.299,-1.231 -0.173,-32.844 0,-33.506c0.622,-2.38 5.541,-3.23 5.653,1.525c0.045,1.95 -0.071,1.919 0.033,24.371l0,-0.002Z" style="fill:#314f6c;"/><path d="M1622.284,331.09c0.091,-4.177 0.02,-4.159 0.098,-4.511c0.533,-2.406 4.265,-2.773 5.432,0.05c0.123,0.297 0.119,4.106 0.119,4.463c-0.023,25.248 0.032,25.231 -0.012,27.425c-0.095,4.788 -4.418,3.518 -5.08,2.533c-0.481,-0.717 -0.675,-0.792 -0.556,-29.959l-0.002,0Z" style="fill:#345372;"/><path d="M961.718,337.184c0.032,-4.292 -0.023,-4.269 0.033,-4.635c0.085,-0.541 0.588,-3.767 6.388,-2.466c6.799,1.525 7.176,11.599 -1.421,12.087c-5.752,0.325 -4.841,-2.453 -5,-4.984l0,-0.002Z" style="fill:#f6f7f8;"/><path d="M762.472,342.241c-2.581,-0.143 -2.894,0.611 -4.224,-0.851c-0.961,-1.057 -0.782,-5.215 -0.745,-7.261c0.073,-4.049 0.896,-4.595 4.914,-4.245c8.91,0.777 7.536,10.93 1.616,12.182c-0.513,0.108 -1.049,0.066 -1.562,0.176Z" style="fill:#f9f9fa;"/><path d="M1372.197,342.236c-0.257,-0.005 -3.218,-0.065 -3.218,-0.065c-1.947,-0.526 -2.066,-3.09 -2.081,-3.409c-0.314,-6.741 0.164,-7.286 0.576,-7.752c1.724,-1.962 8.096,-1.115 9.549,1.404c2.657,4.609 -0.027,8.73 -3.281,9.579c-0.505,0.131 -1.039,0.111 -1.543,0.244l-0.002,-0.002Z" style="fill:#f7f8f9;"/><path d="M1566.655,337.204c0.007,-0.496 0.078,-5.633 0.524,-6.174c1.487,-1.801 6.089,-1.178 7.935,-0.402c3.777,1.592 4.654,10.462 -3.276,11.099c-6.101,0.49 -4.964,-2.642 -5.181,-4.526l-0.002,0.002Z" style="fill:#f6f7f9;"/><path d="M1431.334,337.197c0.005,-0.483 0.055,-5.367 0.438,-6.024c0.699,-1.198 2.645,-1.285 2.899,-1.296c11.002,-0.485 9.365,10.333 2.964,11.483c-7.291,1.311 -6.18,-3.284 -6.302,-4.162Z" style="fill:#f6f7f8;"/><path d="M1251.312,354.118c-0.056,-0.599 -0.372,-1.155 -0.427,-1.756c-0.227,-2.445 1.688,-6.716 3.976,-6.547c0.71,0.053 1.079,0.08 5.742,6.801c2.669,3.845 -2.581,5.772 -5.938,4.718c-2.314,-0.725 -1.967,-1.23 -3.354,-3.216Z" style="fill:#fbf9f8;"/><path d="M793.979,343.399c0.071,0.624 2.174,5.009 -4.104,4.534c-4.02,-0.304 -2.094,-4.436 -2.015,-4.768c1.907,-7.862 0.973,-10.115 3.474,-8.886c0.09,0.043 0.068,0.07 0.812,2.187c1.197,3.411 0.986,3.439 1.834,6.932Z" style="fill:#f9fafa;"/><path d="M992.222,343.195c1.758,-8.358 1.354,-8.587 1.967,-8.995c1.148,-0.765 1.343,-0.334 1.987,0.868c0.732,1.366 0.521,1.406 0.953,3.661c0.928,4.829 3.489,9.052 -1.467,9.143c-5.239,0.096 -3.902,-2.297 -3.439,-4.677Z" style="fill:#f5f7f8;"/><path d="M1090.164,347.757c-0.5,-0.055 -1.006,0.023 -1.505,-0.032c-3.908,-0.428 -1.817,-4.235 -1.205,-7.405c1.12,-5.784 1.006,-5.857 1.309,-6.053c1.529,-0.989 2.406,1.363 2.489,1.583c0.445,1.188 -0.131,1.321 1.656,7.508c1.422,4.921 -1.301,4.098 -2.747,4.398l0.002,0Z" style="fill:#f4f5f7;"/><path d="M1254.635,332.615c0.687,-2.191 0.229,-2.587 1.593,-3.183c0.229,-0.1 2.016,-0.881 3.128,0.138c2.813,2.576 -0.919,9.194 -3.424,6.532c-1.178,-1.251 -1.241,-3.261 -1.299,-3.489l0.002,0.002Z" style="fill:#fbfaf8;"/><path d="M1166.033,336.11c-0.714,0.4 -1.427,0.798 -2.141,1.198c0.181,-0.392 -0.01,-0.891 0.173,-1.281c0.377,-0.813 0.702,-0.798 0.792,-0.795c0.798,0.033 0.377,0.845 1.177,0.88l0,-0.002Z" style="fill:#7f90a2;"/></g></svg>