<?xml version="1.0" encoding="UTF-8" standalone="no"?><!DOCTYPE svg PUBLIC "-//W3C//DTD SVG 1.1//EN" "http://www.w3.org/Graphics/SVG/1.1/DTD/svg11.dtd"><svg width="100%" height="100%" viewBox="0 0 765 198" version="1.1" xmlns="http://www.w3.org/2000/svg" xmlns:xlink="http://www.w3.org/1999/xlink" xml:space="preserve" xmlns:serif="http://www.serif.com/" style="fill-rule:evenodd;clip-rule:evenodd;stroke-linejoin:round;stroke-miterlimit:2;"><g id="Fondo"><path d="M175.996,0.64c0.523,0.309 0.9,1.238 3.284,1.404c0.376,0.026 0.759,-0.017 1.131,0.047c0.324,0.056 0.613,0.256 0.937,0.312c0.306,0.282 0.38,0.154 0.697,0.446c0.277,0.255 0.147,0.345 0.438,0.599c0.23,0.201 0.538,0.295 0.788,0.471c1.763,1.243 1.857,1.082 2.009,1.19c0.203,0.144 0.242,0.443 0.418,0.618c0.186,0.185 0.476,0.247 0.649,0.444c0.033,0.038 3.348,4.619 3.92,6.05c2.018,5.056 2.078,5.021 2.24,5.465c-0.056,0.598 -0.171,0.559 -0.228,1.166c-0.008,0.087 -0.044,0.465 0.016,1.092c0.036,0.378 0.172,0.744 0.195,1.124c0.021,0.358 -0.087,0.715 -0.066,1.073l0.004,1.085c-0.01,0.351 -0.059,2.197 -0.016,4.392l0.005,1.085c-0.008,0.178 -0.045,4.591 -0.001,5.49l0.003,1.086c-0.01,0.351 -0.06,2.196 -0.001,4.393c0.001,2.553 0.001,5.106 0.002,7.659c-0.009,0.351 -0.055,2.197 -0.006,4.393l0.007,1.086c-0.007,0.351 -0.045,2.197 0.004,4.394l0.004,2.18c-0.011,0.351 -0.068,2.198 -0.022,4.393l0.004,1.087c-0.008,0.351 -0.052,2.196 -0.002,4.393l0.013,2.18c-0.007,0.351 -0.044,2.198 0.001,4.394l0.005,1.085c-0.008,0.351 -0.051,2.197 -0.008,4.393l0.006,1.085c-0.044,1.118 -0.001,1.097 -0.087,2.194c-0.007,0.088 -0.044,0.565 -0.008,1.103c0.075,1.11 0.044,1.093 0.089,2.193l0.005,1.085c-0.008,0.351 -0.049,2.197 -0.002,4.394c0.005,2.553 0.011,5.105 0.016,7.658c-0.009,0.351 -0.055,2.198 -0.009,4.395l0.008,1.084c-0.041,1.114 0.002,1.096 -0.081,2.192c-0.033,0.435 0.062,3.036 0.072,3.3c0.002,2.187 0.005,4.374 0.007,6.56c-0.017,0.439 -0.108,2.802 -0.005,5.493c-0.005,3.298 -0.005,3.272 0.003,6.56c-0.044,1.105 -0.002,1.081 -0.086,2.194c-0.007,0.088 -0.042,0.552 -0.004,1.106c0.076,1.109 0.043,1.095 0.086,2.193c-0.011,3.772 -0.003,3.76 0.002,6.56c-0.01,0.215 -0.044,4.703 -0.01,5.492c0,3.303 0,3.279 0.015,6.56c-0.014,0.439 -0.088,2.794 -0,5.493l0.002,1.084c-0.007,0.352 -0.044,2.197 -0.005,4.395c0.015,13.058 -0.059,13.056 -0.072,13.15c-0.084,0.631 -0.134,0.595 -2.452,7.563c-0.278,0.835 -0.44,0.718 -0.902,1.193c-0.189,0.194 -0.26,0.481 -0.444,0.68c-0.171,0.185 -0.437,0.267 -0.605,0.455c-0.199,0.223 -0.29,0.526 -0.479,0.757c-0.074,0.09 -0.773,0.945 -0.942,1.111c-0.196,0.192 -0.485,0.265 -0.696,0.441c-0.167,0.139 -0.254,0.362 -0.428,0.494c-0.463,0.354 -1.019,0.581 -1.467,0.954c-0.185,0.154 -0.217,0.448 -0.402,0.602c-0.385,0.298 -0.51,-0.007 -0.895,0.291c-0.306,0.237 0.021,0.455 -0.321,0.649c-0.294,0.166 -0.68,0.019 -1.007,0.103c-0.318,0.082 -0.587,0.307 -0.905,0.389l-0.145,0.793c-0.526,-0.035 -0.472,0.235 -1.005,0.2c-0.673,-0.044 -0.596,-0.284 -1.244,-0.348c-0.265,-0.026 -0.357,-0.036 -3.275,0.599c-0.26,0.06 -2.794,0.645 -3.261,0.695c-0.59,0.063 -21.08,0.159 -28.478,0.002c-0.614,-0.132 -0.524,-0.325 -1.144,-0.458c-0.08,-0.017 -0.499,-0.107 -1.027,-0.007c-0.398,0.075 -0.744,0.34 -1.142,0.415c-2.217,0.003 -2.207,-0.283 -4.383,0.018c-2.083,0.288 -2.091,0.202 -26.287,0.097c-3.058,-0.013 -3.023,-0.339 -3.288,-0.34c-0.376,-0.001 -0.732,0.177 -1.104,0.232c-1.008,0.148 -7.423,0.136 -17.516,0.092c-3.024,-0.508 -4.055,-0.535 -4.41,-0.544c-1.239,-0.032 -2.183,0.483 -2.189,0.484c-4.199,0.139 -17.044,0.118 -20.783,0.012c-0.621,-0.127 -0.535,-0.316 -1.149,-0.442c-0.08,-0.016 -0.512,-0.105 -1.025,-0.002c-0.402,0.08 -0.747,0.356 -1.149,0.436c-9.052,0.291 -9.032,-0.24 -9.844,-0.242c-0.376,-0.001 -0.732,0.172 -1.105,0.222c-0.759,0.101 -11.716,0.191 -13.132,-0.012c-1.12,-0.161 -1.104,-0.154 -2.206,0.001c-0.377,0.053 -1.117,0.119 -5.47,0.1c-2.846,-0.013 -2.824,-0.373 -3.266,-0.387c-0.375,-0.011 -0.732,0.223 -1.106,0.2c-0.346,-0.022 -0.651,-0.241 -0.986,-0.332c-1.597,-0.433 -5.872,-0.575 -6.601,-0.954c-0.161,-0.084 -0.185,-0.321 -0.325,-0.436c-0.25,-0.205 -0.564,-0.321 -0.828,-0.508c-1.62,-1.153 -1.654,-1.065 -3.352,-2.095c-3.239,-1.964 -5.858,-7.368 -5.916,-7.426c-0.169,-0.17 -0.509,-0.068 -0.678,-0.238c-0.004,-0.176 -0.046,-2.202 -0.046,-2.202c-0.03,-0.194 -0.079,-0.163 -1.071,-2.215c0.111,-3.308 0.043,-62.433 0.046,-63.552c0.198,-66.555 -0.084,-66.531 -0.054,-72.316c0.143,-27.844 -0.074,-27.88 0.206,-28.444c0.07,-0.142 0.366,-0.055 0.431,-0.2c0.288,-0.64 0.387,-1.35 0.571,-2.027c0.466,-1.709 0.161,-1.744 0.24,-1.872c0.151,-0.245 0.578,-0.154 0.789,-0.35c0.223,-0.207 0.27,-0.549 0.448,-0.797c0.116,-0.163 0.325,-0.25 0.425,-0.423c0.299,-0.52 0.426,-1.131 0.757,-1.631c0.133,-0.201 0.427,-0.237 0.593,-0.411c0.183,-0.192 0.247,-0.477 0.432,-0.667c0.558,-0.573 0.715,-0.349 1.288,-0.909c1.533,-1.499 1.448,-1.569 1.593,-1.685c0.229,-0.183 0.559,-0.203 0.793,-0.381c0.185,-0.14 0.259,-0.392 0.431,-0.548c0.344,-0.313 0.673,-0.68 1.106,-0.852c0.206,-0.082 0.444,0.244 0.647,0.156c0.196,-0.086 0.129,-0.439 0.299,-0.569c0.261,-0.198 0.677,-0.13 0.917,-0.353c0.174,-0.162 0.005,-0.55 0.201,-0.684c0.202,-0.138 3.803,-0.257 5.389,-0.492c1.117,-0.165 2.282,-0.785 4.432,-0.827c3.543,-0.07 48.388,-0.027 52.595,-0.023c93.307,0.089 93.369,-0.439 97.405,0.567c2.624,0.654 3.006,0.071 3.535,0.013Zm-78.625,16.844c0.082,0.327 -0.04,0.683 0.042,1.01c0.021,0.083 0.417,0.083 0.619,2.549c0.03,0.364 0.022,0.729 0.052,1.093c-0.208,0.612 -0.426,0.474 -0.634,1.085c-0.024,0.072 -0.187,0.55 -0.058,0.946c0.051,0.157 0.389,0.07 0.441,0.227c0.207,0.645 0.415,1.289 0.622,1.934c0.095,0.154 0.375,0.118 0.47,0.272c0.181,0.293 0.184,0.665 0.307,0.986c0.165,0.43 0.414,0.827 0.557,1.265c0.078,0.24 0.381,2.637 0.54,3.123c0.141,0.431 0.395,0.82 0.529,1.253c0,0 0.192,1.892 0.209,2.057c-0.109,0.569 -0.246,0.51 -0.357,1.09c-0.015,0.078 -0.12,0.626 -0.042,0.993c0.093,0.438 0.423,0.801 0.516,1.239l0.91,1.2c-0.29,0.396 -0.451,0.877 -0.741,1.273c-0.636,0.868 -1.135,0.784 -0.758,1.743c0.022,0.056 1.115,0.747 1.162,0.736c0.056,-0.012 -0.058,-0.089 0.394,-0.605c0.476,-0.544 0.536,-0.457 1.007,-0.994c0.17,2.153 0.142,2.133 0.223,4.294c0.041,1.088 -0.009,1.086 0.286,2.134c0.285,1.014 0.493,0.891 0.656,1.258c1.489,3.363 1.072,6.891 1.541,8.603c0.254,0.929 0.452,0.822 0.649,1.26c1.781,3.959 0.805,7.156 1.838,9.57c0.761,1.78 1.087,2.031 2.89,1.332c2.598,-1.007 2.638,-0.838 5.318,-1.61c0.598,0.264 0.65,-0.229 1.249,0.035c1.313,0.58 0.96,0.998 1.077,0.992c0.085,-0.005 1.106,-2.342 1.196,-2.548c3.27,-1.166 3.072,-1.743 6.501,-2.278c0.173,-0.015 2.162,-0.187 2.162,-0.187c0.374,0.057 0.706,0.317 1.084,0.34c0.393,0.024 0.83,0.004 1.164,-0.205c0.233,-0.146 0.197,-0.518 0.352,-0.745c0.236,-0.346 0.354,-0.223 0.548,-0.573c0.209,-0.378 0.007,-0.43 0.214,-0.805c0.45,-0.256 0.518,0.004 0.972,-0.255c0.152,-0.087 0.102,-0.394 0.267,-0.452c0.216,-0.076 0.456,0.185 0.676,0.122c0.164,-0.048 0.161,-0.323 0.308,-0.407c0.879,-0.505 1.007,-0.15 1.897,-0.668c0.141,-0.082 0.161,-0.313 0.31,-0.378c0.312,-0.137 0.691,-0.061 1.002,-0.198c0.351,-0.041 0.686,-0.172 1.037,-0.213c1.377,-0.159 2.11,0.371 2.205,0.381c0.393,0.041 0.846,0.04 1.17,-0.185c0.235,-0.162 0.108,-0.577 0.27,-0.813c0.24,-0.349 0.404,-0.15 0.635,-0.506c0.234,-0.36 -0.024,-0.435 0.216,-0.803c0.442,-0.267 0.535,0.042 0.978,-0.226c0.276,-0.167 -0.047,-0.408 0.252,-0.517c0.22,-0.08 0.453,0.239 0.679,0.179c0.173,-0.046 0.154,-0.345 0.305,-0.441c0.28,-0.178 0.628,-0.217 0.934,-0.346c1.019,-0.429 0.856,-0.631 1.216,-0.895c0.373,-0.274 0.771,-0.534 1.209,-0.683c0.654,-0.223 1.378,-0.19 2.03,-0.42c0.172,-0.061 0.632,-0.578 2.245,-1.05c0.322,-0.094 0.647,-0.175 0.969,-0.269c0.372,0.05 0.738,-0.236 1.11,-0.186c0.408,0.055 0.726,0.442 1.136,0.486c0.685,0.074 0.984,-0.194 1.049,-0.252c0.644,-0.576 0.202,-0.866 0.848,-1.443c0.167,-0.143 0.183,-0.417 0.35,-0.559c0.668,-0.569 1.924,-1.201 2.1,-1.29c5.205,-2.621 5.087,-2.829 5.563,-3.002c0.144,-0.052 1.715,-0.624 1.717,0.849c0.001,0.742 -1.705,2.004 -1.888,2.14c-0.175,0.129 -0.418,0.146 -0.589,0.28c-0.247,0.193 -0.413,0.475 -0.645,0.686c-0.571,0.517 -0.582,0.485 -1.155,1.009c-0.589,0.537 -0.494,0.598 -1.085,1.154c-0.172,0.162 -0.437,0.202 -0.61,0.364c-0.217,0.205 -0.311,0.523 -0.538,0.716c-0.189,0.161 -0.496,0.143 -0.674,0.315c-0.208,0.2 -0.24,0.534 -0.431,0.751c-0.154,0.176 -0.432,0.215 -0.579,0.397c-0.193,0.239 -0.242,0.567 -0.408,0.826c-0.071,0.111 -0.076,0.104 -1.472,1.699c-1.937,2.213 -1.857,2.248 -2.032,2.431c-0.173,0.18 -0.442,0.248 -0.613,0.43c-0.185,0.196 -0.247,0.488 -0.435,0.681c-0.181,0.185 -0.473,0.236 -0.647,0.427c-0.193,0.212 -0.245,0.525 -0.425,0.748c-0.145,0.179 -0.391,0.259 -0.532,0.441c-0.182,0.235 -0.243,0.548 -0.42,0.787c-0.58,0.783 -1.48,1.004 -3.029,3.481c-0.653,1.043 -0.871,0.883 -1.082,1.108c-0.19,0.201 -0.252,0.503 -0.447,0.699c-0.179,0.179 -0.48,0.207 -0.648,0.397c-0.192,0.216 -0.206,0.552 -0.392,0.774c-0.152,0.182 -0.444,0.211 -0.588,0.398c-0.189,0.246 -0.208,0.59 -0.372,0.852c-0.11,0.175 -0.31,0.277 -0.437,0.44c-0.182,0.234 -0.273,0.538 -0.485,0.745c-0.207,0.202 -0.521,0.264 -0.741,0.453c-0.618,0.533 -0.163,0.815 -0.737,1.401c-0.199,0.203 -0.6,0.089 -0.802,0.29c-0.207,0.206 -0.132,0.59 -0.312,0.82c-0.152,0.194 -0.468,0.201 -0.633,0.385c-0.194,0.217 -0.222,0.547 -0.403,0.776c-0.143,0.181 -0.406,0.241 -0.545,0.424c-0.182,0.239 -0.222,0.566 -0.397,0.81c-0.138,0.193 -0.368,0.301 -0.525,0.479c-0.948,1.076 -1.07,0.943 -1.144,1.042c-0.346,0.458 -0.46,1.059 -0.779,1.536c-0.131,0.196 -0.388,0.273 -0.548,0.447c-0.183,0.198 -0.282,0.465 -0.471,0.657c-0.179,0.181 -0.441,0.266 -0.619,0.448c-0.189,0.192 -0.273,0.473 -0.467,0.659c-0.185,0.178 -0.479,0.223 -0.65,0.415c-0.195,0.219 -0.226,0.55 -0.41,0.779c-0.141,0.176 -0.409,0.222 -0.541,0.405c-0.183,0.253 -0.21,0.593 -0.372,0.86c-0.393,0.65 -1.833,2.127 -2.003,2.302c-1.411,1.448 -1.436,1.42 -2.51,3.115c-1.051,1.658 -1.325,1.407 -1.399,1.557c-0.121,0.247 -0.077,0.545 -0.086,0.82c-0.025,0.789 -0.007,0.907 0.737,1.111c0.656,0.18 1.344,0.229 1.996,0.424c0.156,0.047 0.254,0.207 0.394,0.291c0.534,0.321 1.128,0.549 1.626,0.924c0.178,0.135 0.164,0.452 0.354,0.569c0.289,0.179 0.687,0.097 0.985,0.259c0.138,0.075 0.093,0.348 0.239,0.408c0.332,0.137 0.724,0.035 1.071,0.131c0.803,0.224 0.716,0.364 1.361,0.891c0.718,0.587 0.852,0.355 1.574,0.919c0.163,0.127 0.182,0.393 0.353,0.509c0.266,0.18 0.633,0.161 0.901,0.338c0.164,0.109 0.155,0.417 0.34,0.484c0.182,0.066 0.376,-0.224 0.557,-0.158c0.189,0.069 0.183,0.384 0.354,0.491c0.275,0.172 0.648,0.137 0.923,0.309c0.229,0.306 0.1,0.364 0.337,0.68c0.408,0.545 0.518,0.426 0.533,0.481c0.088,0.32 -0.181,0.658 -0.13,0.986c0.215,1.367 1.448,1.492 1.625,1.51c0,0 2.931,-0.339 3.186,-0.369c0.482,0.168 0.502,-0.036 0.985,0.133c0.159,0.056 0.233,0.249 0.374,0.342c0.267,0.176 0.594,0.258 0.841,0.46c0.178,0.145 0.202,0.453 0.406,0.558c0.134,0.069 0.297,-0.187 0.435,-0.126c0.184,0.081 0.2,0.368 0.369,0.478c0.272,0.177 0.634,0.178 0.908,0.353c0.159,0.101 0.168,0.384 0.346,0.446c0.182,0.063 0.383,-0.201 0.563,-0.133c0.184,0.07 0.178,0.376 0.345,0.479c0.276,0.17 0.647,0.134 0.923,0.305c0.264,0.257 0.131,0.34 0.388,0.59c0.55,0.536 0.637,0.384 0.668,0.44c0.158,0.284 -0.043,0.684 0.116,0.969c1.006,1.017 0.871,1.505 2.268,1.286c0.407,-0.064 0.718,-0.468 1.129,-0.507c0.355,-0.034 0.672,0.335 1.027,0.301c0.389,0.334 0.777,0.668 1.166,1.002c0.082,0.063 -0.016,0.912 1.119,0.857c0.259,-0.012 0.474,-0.247 0.732,-0.259c0.254,0.171 0.057,0.314 0.317,0.489c0.422,0.284 0.477,0.1 0.937,0.354c0.147,0.081 0.202,0.284 0.352,0.359c0.585,0.293 1.24,0.43 1.822,0.729c0.169,0.087 0.239,0.304 0.396,0.413c0.783,0.546 0.92,0.267 1.683,0.837c0.163,0.122 0.171,0.399 0.347,0.502c0.29,0.169 0.649,0.174 0.971,0.267c1.17,0.339 1.083,0.496 2.163,1.092c1.235,0.681 1.142,0.801 1.252,0.851c0.589,0.262 1.251,0.332 1.845,0.584c0.19,0.081 0.278,0.334 0.474,0.399c0.607,0.202 1.25,0.271 1.879,0.384c0.333,0.06 0.71,-0.028 1.008,0.134c0.126,0.068 1.469,0.799 0.816,1.592c-0.219,0.266 -1.639,0.22 -1.783,0.215c-7.17,-0.234 -7.141,-0.477 -7.763,-0.486c-0.695,-0.009 -1.385,0.156 -2.08,0.147c-0.405,-0.005 -0.796,-0.185 -1.202,-0.19c-0.673,-0.649 -0.257,-0.917 -0.929,-1.566c-0.069,-0.067 -0.654,-0.632 -1.13,-0.422c-0.562,0.247 -0.599,1.183 -1.161,1.43c-0.73,0.266 -0.607,0.795 -3.224,0.799c-2.207,0.003 -2.185,-0.255 -4.38,-0.124c-1.356,0.081 -26.187,0.143 -28.484,0.129c-2.313,-0.014 -2.537,-0.459 -3.286,-0.683c-0.339,-0.155 -0.707,-0.241 -1.047,-0.395c-0.001,-0.001 -2.335,-1.872 -2.684,1.427c-0.289,2.729 0.227,3.19 0.429,3.371c0.223,0.199 0.661,-0.048 0.884,0.151c0.295,0.342 0.199,0.393 0.499,0.741c0.346,0.401 0.414,0.297 0.433,0.337c0.155,0.338 0.23,4.066 0.828,5.132c0.078,0.139 0.299,0.164 0.367,0.308c1.08,2.291 1.412,5.931 1.545,6.416c1.35,4.912 1.23,4.939 1.385,5.353c0.163,0.435 0.355,0.86 0.518,1.295c-0.705,2.018 -1.146,2.006 -0.695,3.17c0.056,0.144 0.351,0.078 0.406,0.222c0.54,0.674 1.079,1.348 1.619,2.022c-0.416,0.602 0.849,0.536 0.438,1.13c-0.646,0.936 -1.209,0.107 -1.905,0.994c-0.278,0.354 -0.169,0.965 0.067,1.349c0.152,0.247 0.222,0.162 2.662,0.759c0.058,0.155 0.281,0.209 0.339,0.364c0.281,0.751 0.337,5.015 0.409,5.325c0.242,1.051 0.942,1.089 1.025,1.175c0.107,0.111 0.749,1.566 0.866,2.164c0.423,2.164 0.256,2.173 0.673,4.35c-1.445,-0.154 -2.887,-0.311 -3.153,-0.529c-0.331,-0.272 -0.023,-0.489 -0.393,-0.689c-0.487,-0.264 -0.563,0.171 -1.054,-0.095c-0.271,-0.159 -0.661,0.019 -0.932,-0.14c-0.944,-0.553 -3.65,-4.477 -3.935,-4.89c-1.951,-2.829 -2.22,-2.6 -2.847,-3.586c-0.762,-1.199 -0.852,-1.101 -0.914,-1.205c-0.162,-0.269 -0.139,-0.633 -0.33,-0.883c-0.146,-0.191 -0.469,-0.178 -0.624,-0.361c-0.19,-0.225 -0.168,-0.584 -0.363,-0.805c-0.171,-0.193 -0.496,-0.19 -0.68,-0.371c-0.198,-0.194 -0.24,-0.509 -0.428,-0.713c-0.166,-0.18 -0.441,-0.234 -0.61,-0.413c-0.193,-0.205 -0.262,-0.505 -0.45,-0.714c-0.158,-0.176 -0.436,-0.228 -0.572,-0.423c-0.328,-0.47 -0.449,-1.067 -0.79,-1.528c-0.153,-0.207 -0.46,-0.243 -0.65,-0.418c-0.198,-0.183 -0.319,-0.435 -0.495,-0.639c-0.517,-0.598 -0.4,-0.656 -0.892,-1.292c-0.144,-0.186 -0.399,-0.262 -0.552,-0.441c-0.185,-0.216 -0.256,-0.515 -0.446,-0.727c-0.259,-0.289 -0.428,-0.122 -1.068,-1.119c-1.354,-2.108 -1.807,-2.18 -2.016,-2.374c-0.194,-0.18 -0.319,-0.422 -0.494,-0.62c-0.534,-0.606 -0.444,-0.65 -0.921,-1.282c-0.136,-0.181 -0.364,-0.278 -0.505,-0.454c-0.563,-0.704 -0.335,-0.832 -0.89,-1.54c-0.133,-0.169 -0.369,-0.236 -0.504,-0.404c-0.179,-0.224 -0.227,-0.537 -0.419,-0.75c-0.173,-0.192 -0.453,-0.259 -0.645,-0.432c-0.089,-0.08 -0.595,-0.535 -1.011,-1.104c-1.312,-1.794 -1.259,-1.828 -1.387,-1.973c-0.341,-0.387 -0.493,-0.239 -1.053,-1.132c-0.407,-0.649 -0.462,-0.58 -0.945,-1.198c-0.175,-0.224 -0.235,-0.528 -0.426,-0.739c-0.184,-0.202 -0.481,-0.273 -0.672,-0.468c-0.292,-0.299 -0.792,-1.959 -1.215,-2.084c-0.403,-0.119 -0.859,0.131 -1.262,0.011c-0.102,0.201 -0.39,0.264 -0.492,0.465c0,0 -0.518,1.679 -0.563,1.825c-0.134,0.203 -0.467,0.212 -0.601,0.415c-0.251,0.381 0.025,0.525 -1.159,2.076c-0.156,0.205 -1.733,2.269 -2.007,2.517c-0.631,0.572 -0.924,0.048 -1.486,0.682c-0.2,0.226 -0.157,0.582 -0.249,0.869c-0.089,0.279 -0.04,0.683 -0.295,0.829c-0.526,0.302 -1.268,0.043 -1.783,0.363c-0.269,0.167 -0.096,0.647 -0.272,0.91c-0.116,0.174 -0.436,0.134 -0.544,0.313c-0.174,0.286 -0.166,0.648 -0.238,0.975c-0.071,0.322 -0.097,0.656 -0.193,0.972c-0.345,1.139 -0.941,0.892 -1.09,1.034c-0.395,0.016 -0.761,-0.285 -1.156,-0.269c-0.18,0.007 -1.331,0.055 -1.579,1.609c-0.044,0.278 0.314,0.522 0.269,0.799c-0.029,0.179 -0.365,0.145 -0.449,0.305c-0.158,0.304 -0.073,0.699 -0.231,1.003c-0.236,0.437 -0.036,0.49 -0.273,0.927c-0.153,0.284 -0.266,0.153 -0.448,0.405c-0.181,0.251 -0.244,0.577 -0.436,0.82c-0.145,0.183 -0.408,0.247 -0.552,0.431c-0.178,0.227 -0.254,0.519 -0.392,0.773c-0.869,1.607 -2.022,2.232 -2.096,2.314c-0.188,0.207 -0.233,0.518 -0.418,0.728c-0.169,0.191 -0.442,0.265 -0.621,0.447c-0.177,0.181 -0.253,0.445 -0.43,0.626c-1.247,0.271 -1.299,0.112 -2.374,0.794c-0.868,0.551 -1.138,0.438 -1.202,1.474c-0.044,0.719 0.229,1.433 0.184,2.152c-0.45,0.599 -0.481,0.546 -0.894,1.188c-0.961,1.498 -1.609,0.959 -1.917,1.323c-0.202,0.238 -0.159,0.604 -0.25,0.902c-0.055,0.182 -0.352,1.162 -1.268,2.01c-0.189,0.175 -0.464,0.247 -0.635,0.44c-0.57,0.645 -0.199,0.849 -0.768,1.478c-0.17,0.188 -0.486,0.197 -0.656,0.385c-0.398,0.041 -0.784,-0.251 -1.182,-0.21c-0.132,0.014 -1.368,0.142 -0.911,1.392c0.14,0.381 0.654,0.543 0.794,0.925c-0.937,1.022 -0.931,1.015 -1.012,1.103c-1.819,1.973 -1.525,2.16 -2.27,3.173c-0.18,0.246 -0.526,0.336 -0.706,0.581c-0.487,-0.454 -0.974,-0.908 -1.46,-1.362c0.477,-1.986 0.451,-1.98 0.515,-2.145c0.855,-2.211 0.858,-2.21 0.873,-2.269c0.789,-3.111 0.995,-3.027 1.061,-3.296c0.173,-0.697 0.148,-1.429 0.25,-2.139c0.048,-0.335 0.075,-0.681 0.202,-0.995c0.174,-0.431 0.515,-0.782 0.688,-1.213c0.063,-0.07 0.711,-0.18 1.02,-1.139c0.027,-0.082 0.168,-0.522 0.208,-1.062c0.027,-0.372 -0.074,-0.746 -0.047,-1.117c0.041,-3.327 0.014,-3.352 1.252,-6.447l0.523,-0.353c0.29,-0.171 0.672,-0.138 0.962,-0.308c0.352,-0.207 0.444,-0.476 0.463,-0.529c0.198,-0.574 -0.075,-0.598 0.123,-1.171c-0.333,-0.706 -0.666,-1.413 -0.998,-2.119c0.105,-0.32 0.082,-0.672 0.187,-0.992c0.048,-0.147 0.46,-0.797 0.825,-2.283c0.289,-1.177 0.391,-1.126 0.778,-2.281c0.098,-0.291 0.451,-4.379 1.524,-6.416c0.072,-0.137 0.261,-0.188 0.331,-0.327c0.525,-1.03 0.821,-4.768 0.941,-5.13c0.06,-0.181 0.522,-1.584 0.881,-2.22c0.084,-0.149 0.314,-0.172 0.402,-0.318c0.538,-0.886 0.078,-1.064 0.674,-1.895c0.115,-0.161 0.429,-0.076 0.544,-0.237c0.029,-0.073 0.522,-0.79 0.812,-2.021c0.045,-0.19 0.423,-1.798 -0.354,-2.414c-0.287,-0.228 -1.956,-0.1 -2.33,0.265c-0.446,0.435 -0.611,1.107 -1.057,1.541c-4.57,0.319 -4.561,0.157 -7.626,0.057c-0.049,-0.108 -0.197,-0.149 -0.246,-0.256c-0.614,-1.352 -0.528,-1.456 -0.864,-1.56c-1.514,-0.47 -1.48,0.128 -2.128,1.561c-0.049,0.108 -0.196,0.149 -0.245,0.257c-1.421,0.045 -4.944,0.28 -10.76,0.001c-0.05,-0.109 -0.2,-0.15 -0.25,-0.259c-0.609,-1.324 -0.522,-1.414 -0.864,-1.546c-1.083,-0.419 -1.107,-0.108 -2.267,-0.012c-1.455,0.121 -1.767,-0.232 -2.12,-0.309c-1.663,-0.364 -1.628,0.445 -3.37,0.322c-0.341,-0.024 -0.677,-0.101 -1.018,-0.12c-1.151,-0.062 -1.127,0.136 -2.265,0.127c-0.345,-0.003 -0.68,-0.145 -1.025,-0.145c-1.973,-0.005 -1.788,0.969 -2.117,1.674c-0.051,0.108 -0.197,0.151 -0.247,0.259c-2.704,0.084 -3.063,0.261 -8.565,0.016c-0.047,-0.112 -0.208,-0.148 -0.255,-0.26c-0.234,-0.556 -0.078,-0.586 -0.331,-1.134c-0.085,-0.184 -0.371,-0.256 -0.404,-0.457c-0.045,-0.269 0.239,-0.524 0.197,-0.793c-0.079,-0.504 -0.468,-0.925 -0.547,-1.429c0.185,-0.08 0.276,-0.311 0.461,-0.392c0.585,-0.254 1.252,-0.303 1.817,-0.599c0.186,-0.098 0.173,-0.403 0.339,-0.532c0.745,-0.58 0.89,-0.306 1.655,-0.861c0.625,-0.454 0.579,-0.504 1.305,-0.79c0.316,-0.125 0.657,-0.194 0.955,-0.356c0.134,-0.073 0.168,-0.285 0.312,-0.335c0.498,-0.172 0.518,0.049 1.017,-0.123c0.376,-0.033 0.751,0.143 1.127,0.111c0.353,-0.031 0.76,-0.056 1.019,-0.297c0.217,-0.203 0.057,-0.617 0.225,-0.862c0.244,-0.357 0.397,-0.14 0.683,-0.467c0.246,-0.281 0.051,-0.372 0.292,-0.647c0.312,0.056 0.565,0.31 0.877,0.366c0.189,0.034 1.428,0.256 2.34,-0.541c0.224,-0.196 0.203,-0.565 0.363,-0.817c0.181,-0.284 0.295,-0.172 0.459,-0.471c0.236,-0.429 0.062,-0.478 0.29,-0.892c2.441,-2.374 4.265,-2.296 4.312,-2.308c2.826,0.491 3.142,0.297 3.372,0.156c0.604,-0.371 1.201,-2.868 1.264,-3.13c0.087,-0.073 1.087,-0.915 1.087,-0.915c0.607,-0.254 1.29,-0.306 1.887,-0.584c0.178,-0.083 0.181,-0.387 0.362,-0.463c0.138,-0.058 0.297,0.196 0.431,0.129c0.154,-0.077 -0.09,-0.374 1.657,-1.382c0.858,-0.495 0.941,-0.282 1.789,-0.766c0.149,-0.085 0.224,-0.27 0.372,-0.357c0.28,-0.165 0.623,-0.208 0.893,-0.387c0.173,-0.115 0.239,-0.349 0.405,-0.473c0.532,-0.397 0.539,-0.347 3.802,-2.064c0.277,-0.146 2.752,-1.449 3.444,-1.863c0.412,-2.01 0.756,-2.163 -0.412,-3.856c-0.139,-0.202 -0.206,-0.139 -2.134,-2.206c-1.183,-1.269 -1.233,-1.224 -1.484,-1.685c-0.284,-0.52 -0.382,-1.137 -0.713,-1.628c-0.141,-0.208 -0.47,-0.208 -0.648,-0.386c-0.188,-0.187 -0.229,-0.49 -0.417,-0.676c-0.189,-0.188 -0.488,-0.234 -0.683,-0.416c-0.191,-0.178 -0.263,-0.458 -0.448,-0.642c-0.188,-0.186 -0.465,-0.263 -0.655,-0.446c-1.234,-1.188 -0.898,-1.484 -3.059,-3.517c-0.855,-0.804 -1.344,-1.718 -1.433,-1.885c-0.917,-1.712 -1.617,-1.06 -2.753,-2.642c-0.308,-0.428 -0.504,-0.93 -0.814,-1.357c-0.514,-0.706 -0.571,-0.631 -1.074,-1.331c-0.731,-1.017 -0.211,-1.235 -0.879,-2.283c-0.157,-0.247 -0.563,-0.164 -0.839,-0.262c-1.015,-0.358 -0.826,-0.605 -1.183,-0.986c-0.215,-0.23 -0.413,-0.043 -1.09,-1.098c-0.42,-0.655 -0.48,-0.591 -0.957,-1.194c-0.175,-0.222 -0.221,-0.534 -0.416,-0.739c-0.183,-0.192 -0.483,-0.237 -0.681,-0.413c-0.362,-0.323 -0.944,-1.013 -1.021,-1.105c-0.77,-0.913 -0.769,-0.882 -1.579,-1.782c-0.153,-0.17 -0.341,-0.31 -0.467,-0.501c-0.905,-1.363 -0.81,-1.415 -1.898,-2.625c-1.151,-1.279 -1.178,-1.23 -1.446,-1.694c-0.294,-0.51 -0.445,-1.101 -0.783,-1.582c-0.142,-0.203 -0.445,-0.236 -0.618,-0.413c-0.189,-0.193 -0.262,-0.48 -0.45,-0.676c-0.176,-0.183 -0.453,-0.25 -0.62,-0.441c-0.202,-0.229 -0.271,-0.554 -0.465,-0.79c-0.134,-0.163 -0.373,-0.218 -0.501,-0.385c-0.189,-0.247 -0.203,-0.613 -0.426,-0.829c-0.181,-0.175 -0.501,-0.123 -0.707,-0.267c-0.221,-0.155 -0.324,-0.441 -0.538,-0.606c-0.209,-0.162 -0.485,-0.217 -0.709,-0.358c-0.106,-0.066 -0.083,-0.081 -1.118,-1.09c0.754,-0.45 1.507,-0.899 2.261,-1.349c1.14,0.515 1.136,0.467 2.254,1.018c1.133,0.558 1.225,0.314 2.301,1.007c1.499,0.966 1.616,0.745 1.727,0.852c0.175,0.169 0.132,0.47 0.224,0.696c0.299,0.735 0.403,0.811 1.178,0.632c0.357,-0.083 0.642,-0.437 1.009,-0.439c0.665,-0.003 2.255,1.028 5.383,2.227c0.214,0.272 0.104,0.311 0.333,0.602c0.461,0.586 0.54,0.486 0.567,0.543c0.134,0.272 0.035,0.614 0.142,0.898c0.076,0.201 0.627,1.654 2.431,1.156c0,0 1.909,-1.01 2.075,-1.097l0.39,0.442c0.048,0.284 0.558,0.332 0.606,0.616c0.066,0.389 -0.322,0.749 -0.308,1.143c0.005,0.161 0.06,1.766 1.62,1.191c0.451,-0.166 0.567,-0.87 1.025,-1.016c0.096,-0.031 0.025,0.244 1.223,0.301c0.438,0.021 0.379,-0.225 0.807,-0.205c0.162,0.085 0.064,0.415 0.226,0.499c0.151,0.079 0.152,-0.018 2.124,0.204c1.162,0.131 1.023,0.466 1.453,0.662c0.135,0.381 -0.172,0.831 -0.037,1.211c0.092,0.259 0.451,0.318 0.648,0.509c0.569,0.553 0.566,0.725 1.329,0.537c0.591,-0.146 0.396,-0.485 0.987,-0.655c0.545,-0.156 0.551,0.215 1.09,0.06c0.419,0.158 0.852,0.277 1.272,0.435c0.638,0.24 1.292,0.448 1.9,0.757c0.173,0.088 0.231,0.338 0.409,0.415c0.245,0.106 0.335,-0.178 3.175,1.025c1.174,0.497 1.129,0.533 2.254,1.085c1.143,0.561 3.884,0.759 5.182,1.681c0.146,0.104 0.289,0.608 2.224,1.126c1.168,0.313 1.149,0.344 2.107,1.084c0.008,0.299 -1.391,3.144 2.342,2.112c2.699,-0.746 1.493,-2.568 1.361,-3.336c-0.264,-8.002 0.683,-7.889 1.778,-11.025c0.304,-0.873 0.188,-0.883 0.349,-2.115c0.232,-1.769 0.846,-1.795 1.01,-2.143c0.173,-0.172 0.479,-0.159 0.651,-0.331c0.116,-0.115 0.761,-0.756 0.468,-1.981c-0.043,-0.181 -0.072,-0.156 -0.977,-2.111c0.082,-0.262 0.788,-2.508 0.962,-3.297c0.299,-1.355 0.48,-1.264 0.892,-2.248c0.135,-0.322 0.113,-0.695 0.248,-1.017c0.077,-0.17 0.448,-0.022 0.525,-0.192c0.284,-0.624 0.068,-0.651 -0.489,-3.129c0.253,-1.721 0.256,-1.7 0.807,-3.328c0.346,-1.022 0.141,-1.056 0.485,-2.06c0.148,-0.43 0.422,-0.809 0.567,-1.24c0.327,-0.98 0.064,-5.075 1.221,-6.531c0.14,-0.176 0.582,-0.083 0.601,-0.307c0.026,-0.308 -0.451,-0.47 -0.509,-0.774c-0.129,-0.68 0.607,-3.137 0.687,-3.403c0.461,-1.538 0.288,-1.554 0.395,-3.169c0.189,-0.188 0.529,-0.164 0.719,-0.351c0.183,-0.182 0.116,-0.566 0.339,-0.696c0.427,-0.249 1.015,-0.093 1.442,-0.342Zm30.361,150.198c0.491,0.266 0.567,-0.169 1.054,0.095c0.369,0.2 0.062,0.418 0.393,0.689c0.265,0.218 1.708,0.375 3.153,0.529c0.277,0.515 0.52,0.381 1.109,2.061c1.455,4.151 1.527,4.121 1.623,4.491c0.365,1.407 -0.618,1.431 -0.747,1.434c-0.983,0.024 -0.92,-0.202 -1.495,-1.017c-0.07,-0.099 -0.504,-0.466 -0.943,-1.393c-1.202,-2.537 -3.916,-4.463 -4.138,-5.696c-0.071,-0.391 0.062,-0.802 -0.008,-1.193Zm-94.414,-45.276c0.051,-0.108 0.197,-0.151 0.247,-0.259c0.329,-0.705 0.144,-1.678 2.117,-1.674c0.345,0.001 0.68,0.143 1.025,0.145c1.139,0.009 1.114,-0.189 2.265,-0.127c0.341,0.018 0.677,0.096 1.018,0.12c1.742,0.123 1.707,-0.686 3.37,-0.322c0.353,0.077 0.665,0.43 2.12,0.309c1.16,-0.096 1.184,-0.407 2.267,0.012c0.342,0.132 0.255,0.223 0.864,1.546c0.05,0.109 0.2,0.15 0.25,0.259c-4.439,0.017 -4.413,-0.008 -8.87,0.015c-2.706,0.014 -6.138,-0.018 -6.672,-0.024Zm-9.905,-4.057c0.079,0.504 0.468,0.925 0.547,1.429c0.042,0.269 -0.241,0.524 -0.197,0.793c0.033,0.2 0.319,0.272 0.404,0.457c0.253,0.547 0.097,0.578 0.331,1.134c0.047,0.112 0.208,0.148 0.255,0.26c-2.798,-0.049 -2.776,0.184 -5.527,0.292c-0.951,0.037 -2.731,0.452 -3.115,0.028c-1.107,-1.22 0.898,-1.732 1.058,-1.773c0.319,-0.081 0.653,-0.09 0.975,-0.155c1.214,-0.247 1.088,-0.501 2.177,-1.065c1.52,-0.788 1.47,-0.861 3.091,-1.4Zm73.958,-100.865c-0.427,0.249 -1.015,0.093 -1.442,0.342c-0.223,0.13 -0.156,0.515 -0.339,0.696c-0.189,0.188 -0.529,0.164 -0.719,0.351c-0.027,-2.186 -0.088,-2.176 0.132,-4.341c0.018,-0.175 0.257,-2.523 1.908,-1.103c0.28,0.241 0.444,3.729 0.459,4.055Zm44.402,84.854c1.136,0.319 1.808,0.107 3.658,1.469c1.398,1.029 1.228,1.18 1.893,1.82c-0.255,0.029 -3.186,0.369 -3.186,0.369c-0.177,-0.018 -1.41,-0.143 -1.625,-1.51c-0.052,-0.327 0.218,-0.666 0.13,-0.986c-0.015,-0.055 -0.125,0.064 -0.533,-0.481c-0.237,-0.317 -0.108,-0.374 -0.337,-0.68Zm-18.502,19.495c-1.823,1.162 -1.856,1.101 -1.966,1.253c-0.047,0.065 -0.317,0.439 -0.329,0.948c-0.009,0.363 0.301,0.689 0.282,1.051c-0.024,0.454 -0.381,0.849 -0.405,1.303c-0.223,-0.199 -0.661,0.048 -0.884,-0.151c-0.203,-0.181 -0.718,-0.642 -0.429,-3.371c0.349,-3.3 2.683,-1.428 2.684,-1.427c0.339,0.155 0.707,0.241 1.047,0.395Zm-38.072,-52.559c0.132,0.768 1.338,2.59 -1.361,3.336c-3.732,1.032 -2.334,-1.813 -2.342,-2.112c0.639,-0.031 0.605,-0.15 1.235,-0.18c1.039,-0.05 1.038,0.103 1.121,0.068c0.536,-0.227 0.811,-0.885 1.347,-1.111Zm-14.471,53.081c0.446,-0.435 0.611,-1.107 1.057,-1.541c0.374,-0.364 2.043,-0.492 2.33,-0.265c0.777,0.617 0.399,2.224 0.354,2.414c-0.29,1.231 -0.782,1.948 -0.812,2.021c-0.202,-0.255 -0.156,-0.651 -0.358,-0.906c-0.26,-0.328 -0.707,-0.467 -0.981,-0.783c-0.247,-0.287 -0.225,-0.8 -0.55,-0.993c-0.299,-0.177 -0.742,0.229 -1.041,0.052Zm-26.488,-67.067c0.273,0.06 2.994,0.653 3.373,0.925c0.424,0.304 0.679,0.827 1.139,1.075c0.306,0.165 0.732,-0.064 1.037,0.101c-0.166,0.088 -2.075,1.097 -2.075,1.097c-1.805,0.497 -2.355,-0.955 -2.431,-1.156c-0.107,-0.283 -0.008,-0.626 -0.142,-0.898c-0.028,-0.056 -0.106,0.043 -0.567,-0.543c-0.229,-0.291 -0.119,-0.33 -0.333,-0.602Zm3.655,49.273c-0.063,0.263 -0.659,2.759 -1.264,3.13c-0.23,0.141 -0.546,0.335 -3.372,-0.156c0.151,-0.16 0.073,-0.461 0.225,-0.62c0.228,-0.241 0.616,-0.283 0.851,-0.517c0.156,-0.155 0.116,-0.446 0.273,-0.6c0.224,-0.221 0.509,-0.405 0.816,-0.474c0.36,-0.081 0.764,0.177 1.107,0.04c0.346,-0.139 -0.021,-0.415 0.308,-0.608c0.478,-0.281 0.575,0.089 1.057,-0.194Zm-17.731,-55.265c-0.754,0.45 -1.507,0.899 -2.261,1.349c-2.111,-1.911 -2.114,-1.973 -2.126,-2.219c-0.008,-0.168 0.885,-1.218 1.052,-1.237c0.505,-0.059 2.935,1.482 3.14,1.674c0.115,0.108 0.08,0.324 0.195,0.433Zm20.016,8.535c0.202,0.019 0.364,-0.244 0.566,-0.225c0.438,0.042 2.046,0.664 2.313,0.873c0.413,0.324 0.684,0.814 1.122,1.103c0.281,0.186 0.691,0.093 0.972,0.279c-0.428,-0.02 -0.37,0.225 -0.807,0.205c-1.198,-0.057 -1.127,-0.332 -1.223,-0.301c-0.459,0.146 -0.574,0.85 -1.025,1.016c-1.561,0.575 -1.615,-1.03 -1.62,-1.191c-0.013,-0.394 0.374,-0.754 0.308,-1.143c-0.048,-0.284 -0.558,-0.332 -0.606,-0.616Zm103.639,51.09c0.259,0.097 3.236,1.215 3.236,1.215c0.154,0.083 0.142,0.334 0.276,0.446c0,0 1.917,1.304 2.084,1.418c-0.355,0.034 -0.672,-0.335 -1.027,-0.301c-0.411,0.039 -0.721,0.443 -1.129,0.507c-1.397,0.22 -1.262,-0.268 -2.268,-1.286c-0.158,-0.284 0.043,-0.684 -0.116,-0.969c-0.031,-0.056 -0.118,0.096 -0.668,-0.44c-0.256,-0.25 -0.124,-0.333 -0.388,-0.59Zm-21.713,-46.096c-0.207,0.375 -0.005,0.427 -0.214,0.805c-0.194,0.351 -0.311,0.227 -0.548,0.573c-0.155,0.227 -0.119,0.599 -0.352,0.745c-0.334,0.209 -0.771,0.229 -1.164,0.205c-0.378,-0.023 -0.71,-0.283 -1.084,-0.34c0,0 -1.989,0.172 -2.162,0.187c3.22,-1.747 3.083,-1.939 3.37,-2.074c0,0 1.982,-0.094 2.155,-0.102Zm-93.159,47.018c-0.228,0.414 -0.054,0.463 -0.29,0.892c-0.164,0.299 -0.277,0.186 -0.459,0.471c-0.16,0.251 -0.139,0.62 -0.363,0.817c-0.912,0.797 -2.151,0.575 -2.34,0.541c-0.312,-0.056 -0.565,-0.31 -0.877,-0.366c0.4,-0.336 0.689,-0.792 1.089,-1.128c0.243,-0.204 0.568,-0.288 0.823,-0.476c0.157,-0.116 0.217,-0.358 0.399,-0.427c0.153,-0.058 0.149,-0.024 2.017,-0.323Zm45.869,34.874c-0.124,0.333 0.027,0.729 -0.097,1.062c-0.084,0.224 -0.339,0.339 -0.493,0.523c-1.271,1.519 -1.483,1.237 -2.555,1.862c0.158,-0.304 0.073,-0.699 0.231,-1.003c0.083,-0.16 0.42,-0.127 0.449,-0.305c0.045,-0.277 -0.314,-0.521 -0.269,-0.799c0.248,-1.554 1.399,-1.601 1.579,-1.609c0.395,-0.016 0.761,0.285 1.156,0.269Zm58.257,-86.267c-0.239,0.368 0.018,0.443 -0.216,0.803c-0.231,0.356 -0.396,0.157 -0.635,0.506c-0.162,0.235 -0.035,0.65 -0.27,0.813c-0.325,0.225 -0.778,0.225 -1.17,0.185c-0.095,-0.01 -0.828,-0.54 -2.205,-0.381c-0.351,0.041 -0.686,0.172 -1.037,0.213c0.849,-0.418 3.444,-2.034 4.445,-2.137c0.361,-0.037 0.727,0.036 1.088,-0.001Zm-15.314,92.935c1.002,2.001 1.085,1.993 1.262,4.233c-2.44,-0.597 -2.51,-0.512 -2.662,-0.759c-0.235,-0.384 -0.345,-0.995 -0.067,-1.349c0.696,-0.887 1.259,-0.058 1.905,-0.994c0.41,-0.594 -0.854,-0.528 -0.438,-1.13Zm-25.664,-111.578c0.355,0.718 0.71,1.436 1.064,2.153c-0.471,0.538 -0.531,0.451 -1.007,0.994c-0.452,0.515 -0.338,0.592 -0.394,0.605c-0.047,0.01 -1.141,-0.681 -1.162,-0.736c-0.377,-0.959 0.122,-0.875 0.758,-1.743c0.29,-0.396 0.451,-0.877 0.741,-1.273Zm-42.615,133.579c0.487,0.454 0.974,0.908 1.46,1.362c-0.144,0.399 0.025,0.418 -0.114,0.803c-0.02,0.055 -0.122,0.337 -0.397,0.611c-0.883,0.88 -1.528,0.358 -1.631,0.274c-0.776,-0.628 -0.178,-1.848 -0.108,-1.991c0.194,-0.396 0.596,-0.664 0.79,-1.059Zm-0.524,-112.159c2.585,0.784 2.58,0.748 2.791,0.846c0.676,0.314 0.548,0.501 1.226,0.816c-0.54,0.155 -0.545,-0.216 -1.09,-0.06c-0.592,0.169 -0.397,0.509 -0.987,0.655c-0.762,0.188 -0.76,0.016 -1.329,-0.537c-0.197,-0.191 -0.556,-0.25 -0.648,-0.509c-0.135,-0.381 0.172,-0.831 0.037,-1.211Zm0.664,61.187c0.049,-0.108 0.196,-0.149 0.245,-0.257c0.648,-1.433 0.614,-2.031 2.128,-1.561c0.335,0.104 0.25,0.208 0.864,1.56c0.049,0.108 0.197,0.149 0.246,0.256c-1.161,0.001 -2.322,0.001 -3.483,0.002Zm103.026,-0.701c0.562,-0.247 0.599,-1.183 1.161,-1.43c0.476,-0.209 1.061,0.355 1.13,0.422c0.672,0.649 0.256,0.916 0.929,1.566c-0.559,0.043 -0.386,-0.499 -0.947,-0.456c-0.668,0.051 -0.434,0.644 -1.112,0.614c-0.454,-0.02 -0.707,-0.695 -1.161,-0.716Zm-42.565,-54.433c-0.09,0.206 -1.11,2.544 -1.196,2.548c-0.117,0.006 0.236,-0.412 -1.077,-0.992c-0.599,-0.264 -0.651,0.229 -1.249,-0.035c0.655,-0.236 0.572,-0.366 1.238,-0.606c0.917,-0.33 0.933,-0.156 1.002,-0.2c0.177,-0.111 0.061,-0.476 0.243,-0.578c0.304,-0.17 0.733,0.032 1.037,-0.138Z" style="fill:#5cc9e3;fill-opacity:0.99;"/><path d="M310.651,52.95c-0.198,0.196 -0.636,-0.153 -0.834,0.042c-0.31,0.306 0.16,0.491 -1.606,5.202c-0.05,0.134 -10.618,22.245 -11.025,22.95c-0.255,0.442 -0.156,0.482 -2.729,5.759c-1.327,2.723 -2.714,5.739 -2.945,6.241c-1.365,2.969 -4.119,2.298 -4.986,2.32c-9.466,0.244 -9.875,-0.003 -10.601,-0.442c-0.955,-0.577 -4.237,-7.872 -5.009,-9.192c-0.198,-0.338 0.001,-0.432 -2.132,-4.403c-0.186,-0.346 -0.07,-0.395 -2.192,-4.385c-1.17,-2.2 -5.269,-11.283 -7.11,-14.549c-0.269,-0.478 -0.183,-0.513 -2.803,-6.258c-1.038,-2.276 -0.837,-3.686 -1.915,-3.727c-1.907,-0.072 -0.222,2.304 -0.586,15.65c-0.003,0.111 0.007,18.14 0.008,19.718c0.002,3.905 0.678,7.166 -1.64,7.579c-0.654,0.116 -14.173,0.007 -14.217,0.001c-0.84,-0.117 -0.837,-0.157 -1.438,-0.764c-0.555,-0.56 -0.365,-0.7 -0.369,-14.485c-0.011,-33.453 -0.098,-56.317 0.151,-56.789c0.652,-1.235 1.039,-1.083 14.792,-1.034c3.864,0.014 5.2,-0.169 6.663,0.749c1.061,0.666 7.95,15.784 8.978,17.455c1.292,2.101 0.93,2.281 2.218,4.37c0.144,0.234 5.435,10.604 9.419,18.876c2.265,4.702 2.353,4.855 2.588,5.26c0.967,1.666 0.63,1.839 0.982,2.192c1.396,1.402 2.177,-0.614 2.246,-0.792c0.186,-0.479 7.632,-16.42 8.851,-18.62c0.656,-1.183 2.571,-5.259 2.787,-5.72c0.606,-1.29 0.457,-1.337 1.445,-3.107c4.085,-7.322 8.416,-18.416 10.577,-20.132c0.888,-0.705 1.025,-0.571 16.659,-0.548c0.289,0 3.111,0.005 3.593,0.325c1.329,0.885 1.09,1.124 1.107,2.722c0.056,5.26 -0.026,5.256 -0.002,65.749c0,0.268 0.001,2.868 -0.175,3.351c-0.387,1.063 -2.126,1.066 -2.332,1.067c-14.665,0.027 -15.068,0.14 -15.565,-1.004c-0.422,-0.973 -0.203,-1.026 -0.24,-32.996c-0.005,-4.34 0.307,-4.316 0.286,-8.665c-0.3,0.011 -0.6,0.023 -0.899,0.034Z" style="fill:#171717;fill-opacity:0.99;"/><path d="M580.259,22.741c3.01,0.694 4.405,0.804 6.987,3.258c4.534,4.31 4.153,8.186 4.068,24.626c-0.036,6.984 0.25,10.505 -4.168,14.67c-5.273,4.972 -11.542,3.337 -12.328,4.094c-0.724,0.698 -0.042,1.827 0.039,1.962c0.004,0.006 6.671,8.33 7.251,9.054c0.351,0.438 0.388,0.397 4.481,5.405c4.692,5.741 4.622,5.774 6.071,7.303c2.412,2.545 -1.291,2.479 -1.523,2.475c-16.777,-0.298 -17.51,0.639 -19.264,-1.5c-0.2,-0.243 -0.07,-0.336 -2.348,-3.155c-2.859,-3.54 -3.144,-4.386 -8.104,-10.626c-2.539,-3.194 -6.77,-10.636 -9.733,-11.056c-0.222,-0.031 -13.427,-0.225 -14.252,-0.035c-1.415,0.326 -1.498,1.974 -1.509,2.187c-0.026,0.515 0.145,22.217 -0.052,22.909c-0.344,1.21 -2.568,1.239 -2.814,1.242c-1.136,0.014 -13.03,0.165 -14.2,-0.138c-1.755,-0.454 -1.259,-1.589 -1.282,-15.207c-0.008,-4.472 -0.094,-55.111 0.011,-55.9c0.266,-2.014 2.014,-1.962 2.337,-1.974c0.753,-0.026 55.463,-0.056 56.951,0.016c1.58,0.077 1.549,0.138 3.381,0.389Zm-44.306,23.5c0.009,-5.339 -0.03,-8.429 0.093,-8.866c0.462,-1.644 2.222,-1.372 10.165,-1.362c23.176,0.029 23.55,-0.274 25.217,1.446c2.293,2.366 1.642,13.865 0.474,15.642c-1.273,1.936 -2.27,1.772 -9.256,1.75c-24.038,-0.077 -25.102,0.219 -25.961,-0.33c-0.965,-0.618 -0.743,-3.356 -0.732,-8.28Z" style="fill:#161617;fill-opacity:0.99;"/><path d="M665.641,43.454c-0.612,0.015 -6.725,0.165 -7.65,0.085c-2.648,-0.227 -2.089,-1.197 -2.475,-3.826c-0.655,-4.461 -4.713,-3.687 -11.789,-3.694c-22.363,-0.023 -22.538,-0.122 -23.712,0.83c-1.832,1.485 -1.885,4.574 -1.892,5.002c-0.127,7.398 -0.395,10.097 4.784,10.162c14.487,0.181 36.462,-0.387 40.602,0.496c3.707,0.791 8.202,2.439 9.993,10.123c0.339,1.455 0.422,1.81 0.265,18.677c-0.055,5.88 -2.679,13.517 -11.425,14.039c-3.412,0.204 -8.585,0.513 -42.72,0.302c-8.877,-0.055 -12.989,-0.186 -16.716,-5.395c-0.631,-0.881 -2.673,-3.735 -2.279,-13.353c0.129,-3.152 1.956,-2.506 8.035,-2.538c6.639,-0.034 8.726,-0.423 9.203,1.312c0.129,0.468 -0.091,3.092 1.422,4.813c1.205,1.371 1.459,1.223 10.194,1.425c1.402,0.032 1.392,-0.009 17.534,-0.013c6.473,-0.001 8.414,0.555 8.836,-4.976c0.146,-1.917 0.154,-7.52 -0.809,-8.971c-1.255,-1.893 -1.723,-1.674 -17.888,-1.672c-24.006,0.002 -24.081,0.189 -27.224,-0.834c-5.285,-1.719 -6.657,-4.611 -7.624,-6.185c-1.886,-3.071 -1.644,-5.08 -1.617,-22.884c0.002,-1.213 -0.981,-12.413 11.307,-13.85c3.083,-0.36 47.191,-0.403 50.295,0.036c8.741,1.235 10.116,6.556 11.208,11.583c0.301,1.387 0.602,7.942 -0.205,8.79c-0.364,0.382 -1.285,0.732 -7.653,0.516Z" style="fill:#151616;fill-opacity:0.99;"/><path d="M406.628,86.982c-2.251,-5.119 -2.484,-5.335 -2.857,-5.681c-0.93,-0.863 -1.454,-0.754 -13.151,-0.741c-24.919,0.027 -25.028,-0.241 -26.457,0.544c-0.864,0.474 -4.072,8.624 -5.706,12.084c-1.239,2.625 -2.188,2.324 -9.475,2.351c-9.985,0.037 -10.076,0.233 -10.784,-0.261c-1.24,-0.865 0.48,-3.191 0.89,-4.128c1.19,-2.719 1.405,-2.594 2.173,-4.391c0.965,-2.256 1.18,-2.133 2.164,-4.396c0.297,-0.683 3.094,-7.116 3.825,-8.482c2.513,-4.695 13.482,-28.415 14.147,-29.648c1.823,-3.378 4.575,-9.766 4.818,-10.198c0.236,-0.418 2.385,-4.848 2.59,-5.271c1.073,-2.212 0.982,-2.23 2.046,-4.461c0.872,-1.828 1.49,-2.011 9.903,-1.966c13.297,0.07 14.386,-0.507 15.491,1.916c10.668,23.396 11.147,23.169 11.966,25.249c1.022,2.593 1.382,2.68 2.122,4.412c0.107,0.251 0.938,2.195 1.466,3.081c0.914,1.532 3.536,7.318 3.828,7.962c0.243,0.537 2.335,5.153 3.208,6.636c0.569,0.967 5.4,11.665 9.945,20.754c0.119,0.238 1.53,3.06 -0.909,3.202c-1.683,0.098 -13.104,-0.028 -14.244,-0.04c-4.065,-0.045 -3.766,-1.92 -7.002,-8.527Zm-25.496,-44.947c1.244,-2.913 1.003,-2.981 1.128,-3.224c0.623,-1.219 1.433,-0.875 1.563,-0.82c0.302,0.128 0.226,0.202 0.744,1.21c2.518,4.899 6.421,13.601 6.957,14.794c2.226,4.962 2.303,4.919 2.472,5.359c1.07,2.779 3.624,6.426 1.904,7.323c-0.325,0.17 -2.84,0.138 -3.087,0.135c-19.129,-0.239 -19.126,0.171 -20.786,0.067c-2.271,-0.143 -0.866,-2.719 -0.751,-2.932c1.108,-2.033 1.824,-4.304 2.335,-5.415c6.983,-15.177 6.891,-15.192 7.52,-16.498Z" style="fill:#161616;fill-opacity:0.99;"/><path d="M468.414,51.22c0.074,-0.002 18.619,-0.213 25.201,-0c3.782,0.122 5.547,-1.107 5.59,2.69c0.008,0.702 0.091,8.102 0.049,8.782c-0.012,0.187 -0.099,1.59 -1.328,1.928c-0.371,0.102 -2.957,0.109 -3.214,0.11c-4.801,0.013 -21.688,-0.038 -21.914,-0.037c-17.392,0.049 -17.563,-0.341 -18.435,0.399c-0.857,0.727 -0.802,0.911 -0.629,14.03c0.047,3.557 2.082,2.71 7.013,2.705c3.425,-0.003 42.038,-0.036 42.816,0.097c1.309,0.224 1.465,0.298 1.702,1.618c0.127,0.704 0.007,1.43 0.007,2.145c-0.002,7.046 0.039,7.038 0.023,7.65c-0.006,0.227 -0.051,1.931 -1.822,2.174c-0.371,0.051 -60.826,0.071 -64.64,-0.005c-1.428,-0.028 -2.431,-0.149 -2.626,-2.1c-0.065,-0.65 0.012,-24.241 0.019,-26.349c0.128,-39.369 -0.282,-39.375 -0.017,-42.787c0.015,-0.197 0.131,-1.683 1.568,-1.906c0.675,-0.105 64.772,-0.06 65.68,-0.001c0.158,0.01 1.368,0.088 1.686,1.046c0.125,0.378 0.122,2.863 0.122,3.112c-0.011,7.731 0.267,8.193 -0.5,8.956c-0.696,0.692 -0.863,0.535 -19.911,0.539c-29.357,0.005 -29.359,0.005 -29.662,0.08c-1.727,0.429 -1.494,1.773 -1.458,10.15c0.015,3.463 -0.8,4.923 2.644,4.979c0.963,0.016 0.946,-0.033 12.038,-0.004Z" style="fill:#161616;fill-opacity:0.99;"/><path d="M713.695,43.867c2.497,-1.749 4.226,-3.414 9.027,-7.355c1.796,-1.474 1.727,-1.523 3.527,-3.003c4.829,-3.971 4.812,-3.955 9.599,-7.986c4.52,-3.806 4.936,-3.199 8.682,-3.198c15.125,0.008 15.117,-0.204 16.431,-0.166c1.098,0.031 1.463,-0.03 1.421,1.072c-0.021,0.538 -0.802,1.065 -1.797,1.73c-1.399,0.936 -3.027,2.024 -16.376,13.216c-4.452,3.732 -14.147,11.462 -17.471,14.326c-4.617,3.977 -5.826,3.7 -5.136,5.751c0.157,0.466 0.209,0.448 4.535,4.144c10.91,9.32 10.959,9.233 11.886,10.066c4.527,4.065 17.929,15.039 18.472,15.517c0.22,0.194 5.087,4.366 6.703,5.34c1.12,0.675 1.677,2.445 -1.125,2.337c-7.676,-0.296 -7.663,-0.074 -15.351,-0.139c-4.603,-0.038 -4.891,0.217 -8.875,-3.125c-7.125,-5.977 -7.082,-6.003 -7.708,-6.513c-7.757,-6.326 -7.654,-6.441 -8.923,-7.488c-9.375,-7.733 -9.174,-7.952 -10.011,-8.595c-5.801,-4.456 -5.441,-4.957 -6.057,-5.106c-1.838,-0.445 -1.767,0.443 -1.609,2.332c0.061,0.729 0.068,3.058 0.069,3.324c0.006,1.839 0.067,21.399 0.024,22.993c-0.076,2.782 -1.856,2.215 -12.791,2.193c-2.995,-0.006 -4.795,0.75 -4.79,-3.269c0.002,-22.282 0.004,-44.564 0.006,-66.846c-0.001,-2.479 0.136,-3.076 2.598,-3.103c13.514,-0.149 13.673,-0.112 14.482,0.719c0.843,0.866 0.392,1.077 0.449,17.73c0.032,9.445 -0.544,9.598 0.019,10.188c0.703,0.735 0.914,0.789 1.641,0.078c2.156,-2.111 6.312,-5.253 8.449,-7.162Z" style="fill:#161717;fill-opacity:0.99;"/><path d="M364.764,142.663c0.004,0.636 0.03,29.374 -0.023,29.666c-0.325,1.779 -0.8,1.603 -2.621,1.688c-5.626,0.262 -5.948,-0.424 -8.302,-3.246c-6.462,-7.746 -6.463,-7.718 -6.976,-8.428c-1.284,-1.778 -5.596,-6.176 -13.086,-15.388c-0.529,-0.651 -6.505,-7.799 -7.522,-9.125c-0.496,-0.647 -0.541,-0.661 -1.344,-0.612c-0.884,0.053 -0.532,0.469 -0.514,0.734c0.24,3.636 0.138,30.542 0.128,33.198c-0.009,2.474 -0.448,2.769 -2.92,2.86c-5.099,0.187 -6.127,-0.233 -6.301,-1.799c-0.048,-0.432 -0.001,-14.277 -0.021,-31.739c-0.019,-15.932 -0.091,-16.21 0.71,-16.615c1.075,-0.543 9.166,-1.054 10.673,0.596c0.23,0.252 4.502,5.602 4.892,6.09c3.78,4.734 8.77,9.964 13.53,16.118c0.453,0.585 0.758,0.323 5.988,7.047c2.662,3.422 2.513,3.528 2.753,3.817c0.527,0.634 1.83,0.502 2.025,-0.494c0.221,-1.128 -0.255,-1.128 -0.229,-14.368c0.03,-14.854 -0.389,-18.302 0.892,-18.866c0.413,-0.182 0.428,-0.188 5.628,-0.401c2.558,-0.105 2.621,1.487 2.642,2.814c0.019,1.192 -0.002,15.137 -0.004,16.453Z" style="fill:#161616;fill-opacity:0.99;"/><path d="M401.576,144.34c17.69,0.016 17.899,-0.162 18.517,0.599c0.487,0.6 0.386,3.968 0.376,4.314c-0.081,2.702 -1.415,2.585 -3.546,2.594c-20.811,0.081 -24.152,-0.416 -24.992,0.818c-0.704,1.034 -0.43,12.358 -0.114,12.958c0.686,1.298 1.129,1.027 22.908,1.049c7.794,0.008 9.763,-0.363 10.487,1.315c0.027,0.062 0.414,4.642 -0.487,5.509c-0.757,0.729 -0.931,0.463 -31.917,0.517c-8.63,0.015 -10.438,0.358 -10.726,-1.798c-0.007,-0.053 0.024,-43.673 0.023,-43.797c-0.018,-3.628 -0.588,-5.064 3.037,-5.047c8.774,0.043 8.759,0.005 17.528,0.021c18.152,0.032 18.14,-0.043 19.717,0.012c2.95,0.103 2.894,0.96 2.859,3.917c-0.003,0.279 0.352,3.079 -1.731,3.448c-0.269,0.048 -29.126,-0.014 -29.598,0.005c-0.184,0.008 -1.561,0.064 -2.073,0.997c-0.574,1.046 -0.266,10.854 -0.252,10.917c0.417,1.892 1.956,1.655 9.982,1.651Z" style="fill:#161515;fill-opacity:0.98;"/><path d="M236.483,173.241c0.005,-0.343 -0.114,-0.679 -0.11,-1.022c0.008,-0.596 0.187,-0.588 0.168,-7.645c-0.004,-1.595 -0.02,-39.348 -0.01,-39.385c0.5,-1.851 0.946,-1.681 2.873,-1.694c4.29,-0.03 5.59,-0.281 6.402,0.666c0.635,0.741 0.313,0.895 0.421,20.692c0.109,20.046 -0.291,20.231 0.537,21.111c0.921,0.979 1.174,0.601 18.946,0.698c8.813,0.048 10.101,-0.614 10.334,2.247c0.424,5.195 -1.229,4.896 -1.405,4.944c-1.151,0.319 -15.644,0.079 -26.461,0.168c-0.278,0.002 -9.71,-0.006 -9.813,-0.03c-0.158,-0.037 -0.139,-0.056 -1.882,-0.751Z" style="fill:#161616;fill-opacity:0.98;"/><path d="M297.999,170.055c0.006,0.172 0.069,2.145 0.069,2.145c-0.409,1.872 -0.85,1.75 -2.78,1.827c-0.428,0.017 -4.659,0.184 -5.35,-0.089c-1.202,-0.475 -1.298,-1.507 -1.314,-1.677c-0.048,-0.509 0.122,-33.723 0.004,-41.65c-0.075,-5.014 -0.012,-6.564 0.98,-6.929c0.908,-0.334 2.165,-0.114 5.687,-0.259c2.924,-0.12 2.591,0.991 2.702,3.899c0.147,3.866 -0.001,42.145 0.002,42.733Z" style="fill:#171617;fill-opacity:0.99;"/><path d="M97.371,17.484c-0.427,0.249 -1.015,0.093 -1.442,0.342c-0.223,0.13 -0.156,0.515 -0.339,0.696c-0.189,0.188 -0.529,0.164 -0.719,0.351c-0.027,-2.186 -0.088,-2.176 0.132,-4.341c0.018,-0.175 0.257,-2.523 1.908,-1.103c0.28,0.241 0.444,3.729 0.459,4.055Z" style="fill:#489db0;fill-opacity:0.16;"/><path d="M141.773,102.338c1.136,0.319 1.808,0.107 3.658,1.469c1.398,1.029 1.228,1.18 1.893,1.82c-0.255,0.029 -3.186,0.369 -3.186,0.369c-0.177,-0.018 -1.41,-0.143 -1.625,-1.51c-0.052,-0.327 0.218,-0.666 0.13,-0.986c-0.015,-0.055 -0.125,0.064 -0.533,-0.481c-0.237,-0.317 -0.108,-0.374 -0.337,-0.68Z" style="fill:#57b5c9;fill-opacity:0.06;"/><path d="M123.272,121.833c-1.823,1.162 -1.856,1.101 -1.966,1.253c-0.047,0.065 -0.317,0.439 -0.329,0.948c-0.009,0.363 0.301,0.689 0.282,1.051c-0.024,0.454 -0.381,0.849 -0.405,1.303c-0.223,-0.199 -0.661,0.048 -0.884,-0.151c-0.203,-0.181 -0.718,-0.642 -0.429,-3.371c0.349,-3.3 2.683,-1.428 2.684,-1.427c0.339,0.155 0.707,0.241 1.047,0.395Z" style="fill:#5cbfd3;fill-opacity:0.09;"/><path d="M85.2,69.274c0.132,0.768 1.338,2.59 -1.361,3.336c-3.732,1.032 -2.334,-1.813 -2.342,-2.112c0.639,-0.031 0.605,-0.15 1.235,-0.18c1.039,-0.05 1.038,0.103 1.121,0.068c0.536,-0.227 0.811,-0.885 1.347,-1.111Z" style="fill:#5ec2d7;fill-opacity:0.04;"/><path d="M70.729,122.355c0.446,-0.435 0.611,-1.107 1.057,-1.541c0.374,-0.364 2.043,-0.492 2.33,-0.265c0.777,0.617 0.399,2.224 0.354,2.414c-0.29,1.231 -0.782,1.948 -0.812,2.021c-0.202,-0.255 -0.156,-0.651 -0.358,-0.906c-0.26,-0.328 -0.707,-0.467 -0.981,-0.783c-0.247,-0.287 -0.225,-0.8 -0.55,-0.993c-0.299,-0.177 -0.742,0.229 -1.041,0.052Z" style="fill:#4ea5b9;fill-opacity:0.11;"/><path d="M44.241,55.288c0.273,0.06 2.994,0.653 3.373,0.925c0.424,0.304 0.679,0.827 1.139,1.075c0.306,0.165 0.732,-0.064 1.037,0.101c-0.166,0.088 -2.075,1.097 -2.075,1.097c-1.805,0.497 -2.355,-0.955 -2.431,-1.156c-0.107,-0.283 -0.008,-0.626 -0.142,-0.898c-0.028,-0.056 -0.106,0.043 -0.567,-0.543c-0.229,-0.291 -0.119,-0.33 -0.333,-0.602Z" style="fill:#52abc0;fill-opacity:0.08;"/><path d="M47.896,104.56c-0.063,0.263 -0.659,2.759 -1.264,3.13c-0.23,0.141 -0.546,0.335 -3.372,-0.156c0.151,-0.16 0.073,-0.461 0.225,-0.62c0.228,-0.241 0.616,-0.283 0.851,-0.517c0.156,-0.155 0.116,-0.446 0.273,-0.6c0.224,-0.221 0.509,-0.405 0.816,-0.474c0.36,-0.081 0.764,0.177 1.107,0.04c0.346,-0.139 -0.021,-0.415 0.308,-0.608c0.478,-0.281 0.575,0.089 1.057,-0.194Z" style="fill:#52aabe;fill-opacity:0.04;"/><path d="M174.748,195.754c2.919,-0.635 3.01,-0.626 3.275,-0.599c0.648,0.065 0.571,0.304 1.244,0.348c0.532,0.035 0.478,-0.235 1.005,-0.2c-0.258,0.288 0.063,0.592 -1.051,1.174c-0.303,0.158 -0.648,0.234 -0.94,0.411c-0.138,0.083 -0.19,0.271 -0.328,0.355c-1.373,0.841 -1.988,0.363 -2.124,0.258c-0.219,-0.17 0.041,-0.59 -0.107,-0.825c-0.057,-0.091 -0.072,-0.068 -0.975,-0.923Z" style="fill:#57abbe;fill-opacity:0.09;"/><path d="M30.164,49.295c-0.754,0.45 -1.507,0.899 -2.261,1.349c-2.111,-1.911 -2.114,-1.973 -2.126,-2.219c-0.008,-0.168 0.885,-1.218 1.052,-1.237c0.505,-0.059 2.935,1.482 3.14,1.674c0.115,0.108 0.08,0.324 0.195,0.433Z" style="fill:#52b8cf;fill-opacity:0.17;"/><path d="M50.18,57.831c0.202,0.019 0.364,-0.244 0.566,-0.225c0.438,0.042 2.046,0.664 2.313,0.873c0.413,0.324 0.684,0.814 1.122,1.103c0.281,0.186 0.691,0.093 0.972,0.279c-0.428,-0.02 -0.37,0.225 -0.807,0.205c-1.198,-0.057 -1.127,-0.332 -1.223,-0.301c-0.459,0.146 -0.574,0.85 -1.025,1.016c-1.561,0.575 -1.615,-1.03 -1.62,-1.191c-0.013,-0.394 0.374,-0.754 0.308,-1.143c-0.048,-0.284 -0.558,-0.332 -0.606,-0.616Z" style="fill:#4aa0b4;fill-opacity:0.11;"/><path d="M76.006,155.636c-0.324,0.357 0.041,0.516 -0.285,0.875c-0.308,0.34 -0.539,-0.092 -0.77,0.288c-0.141,0.232 0.416,0.465 -0.503,1.55c-1.059,1.249 -1.175,1.094 -1.834,1.707c0.044,-0.719 -0.229,-1.433 -0.184,-2.152c0.064,-1.036 0.334,-0.923 1.202,-1.474c1.075,-0.682 1.126,-0.523 2.374,-0.794Z" style="fill:#54b2c6;fill-opacity:0.07;"/><path d="M153.819,108.921c0.259,0.097 3.236,1.215 3.236,1.215c0.154,0.083 0.142,0.334 0.276,0.446c0,0 1.917,1.304 2.084,1.418c-0.355,0.034 -0.672,-0.335 -1.027,-0.301c-0.411,0.039 -0.721,0.443 -1.129,0.507c-1.397,0.22 -1.262,-0.268 -2.268,-1.286c-0.158,-0.284 0.043,-0.684 -0.116,-0.969c-0.031,-0.056 -0.118,0.096 -0.668,-0.44c-0.256,-0.25 -0.124,-0.333 -0.388,-0.59Z" style="fill:#4b9db0;fill-opacity:0.13;"/><path d="M132.106,62.825c-0.207,0.375 -0.005,0.427 -0.214,0.805c-0.194,0.351 -0.311,0.227 -0.548,0.573c-0.155,0.227 -0.119,0.599 -0.352,0.745c-0.334,0.209 -0.771,0.229 -1.164,0.205c-0.378,-0.023 -0.71,-0.283 -1.084,-0.34c0,0 -1.989,0.172 -2.162,0.187c3.22,-1.747 3.083,-1.939 3.37,-2.074c0,0 1.982,-0.094 2.155,-0.102Z" style="fill:#4da4b7;fill-opacity:0.08;"/><path d="M38.947,109.843c-0.228,0.414 -0.054,0.463 -0.29,0.892c-0.164,0.299 -0.277,0.186 -0.459,0.471c-0.16,0.251 -0.139,0.62 -0.363,0.817c-0.912,0.797 -2.151,0.575 -2.34,0.541c-0.312,-0.056 -0.565,-0.31 -0.877,-0.366c0.4,-0.336 0.689,-0.792 1.089,-1.128c0.243,-0.204 0.568,-0.288 0.823,-0.476c0.157,-0.116 0.217,-0.358 0.399,-0.427c0.153,-0.058 0.149,-0.024 2.017,-0.323Z" style="fill:#57b5ca;fill-opacity:0.07;"/><path d="M84.816,144.716c-0.124,0.333 0.027,0.729 -0.097,1.062c-0.084,0.224 -0.339,0.339 -0.493,0.523c-1.271,1.519 -1.483,1.237 -2.555,1.862c0.158,-0.304 0.073,-0.699 0.231,-1.003c0.083,-0.16 0.42,-0.127 0.449,-0.305c0.045,-0.277 -0.314,-0.521 -0.269,-0.799c0.248,-1.554 1.399,-1.601 1.579,-1.609c0.395,-0.016 0.761,0.285 1.156,0.269Z" style="fill:#50afc4;fill-opacity:0.09;"/><path d="M143.073,58.449c-0.239,0.368 0.018,0.443 -0.216,0.803c-0.231,0.356 -0.396,0.157 -0.635,0.506c-0.162,0.235 -0.035,0.65 -0.27,0.813c-0.325,0.225 -0.778,0.225 -1.17,0.185c-0.095,-0.01 -0.828,-0.54 -2.205,-0.381c-0.351,0.041 -0.686,0.172 -1.037,0.213c0.849,-0.418 3.444,-2.034 4.445,-2.137c0.361,-0.037 0.727,0.036 1.088,-0.001Z" style="fill:#4b9eb1;fill-opacity:0.11;"/><path d="M127.759,151.385c1.002,2.001 1.085,1.993 1.262,4.233c-2.44,-0.597 -2.51,-0.512 -2.662,-0.759c-0.235,-0.384 -0.345,-0.995 -0.067,-1.349c0.696,-0.887 1.259,-0.058 1.905,-0.994c0.41,-0.594 -0.854,-0.528 -0.438,-1.13Z" style="fill:#53aabc;fill-opacity:0.08;"/><path d="M175.996,0.64c1.911,-0.406 1.895,-0.447 2.064,-0.438c0.932,0.045 1.193,0.824 1.203,0.83c0.283,0.189 0.663,0.164 0.98,0.289c1.056,0.418 0.965,0.945 1.106,1.082c-0.324,-0.056 -0.613,-0.256 -0.937,-0.312c-0.372,-0.065 -0.755,-0.021 -1.131,-0.047c-2.384,-0.166 -2.761,-1.094 -3.284,-1.404Z" style="fill:#4c9fb1;fill-opacity:0.11;"/><path d="M59.48,173.385c0.487,0.454 0.974,0.908 1.46,1.362c-0.144,0.399 0.025,0.418 -0.114,0.803c-0.02,0.055 -0.122,0.337 -0.397,0.611c-0.883,0.88 -1.528,0.358 -1.631,0.274c-0.776,-0.628 -0.178,-1.848 -0.108,-1.991c0.194,-0.396 0.596,-0.664 0.79,-1.059Z" style="fill:#59bfd6;fill-opacity:0.12;"/><path d="M58.956,61.227c2.585,0.784 2.58,0.748 2.791,0.846c0.676,0.314 0.548,0.501 1.226,0.816c-0.54,0.155 -0.545,-0.216 -1.09,-0.06c-0.592,0.169 -0.397,0.509 -0.987,0.655c-0.762,0.188 -0.76,0.016 -1.329,-0.537c-0.197,-0.191 -0.556,-0.25 -0.648,-0.509c-0.135,-0.381 0.172,-0.831 0.037,-1.211Z" style="fill:#5abcd1;fill-opacity:0.11;"/><path d="M59.62,122.413c0.049,-0.108 0.196,-0.149 0.245,-0.257c0.648,-1.433 0.614,-2.031 2.128,-1.561c0.335,0.104 0.25,0.208 0.864,1.56c0.049,0.108 0.197,0.149 0.246,0.256c-1.161,0.001 -2.322,0.001 -3.483,0.002Z" style="fill:#4da4b4;fill-opacity:0.13;"/><path d="M0.482,179.919c0.992,2.051 1.041,2.02 1.071,2.215c0,0 0.043,2.026 0.046,2.202c-0.295,-0.286 -0.616,0.033 -1.129,-1.093c-0.042,-0.092 -0.46,-1.011 -0.47,-1.173c0,-0 0.443,-1.978 0.482,-2.15Z" style="fill:#50a2b4;fill-opacity:0.09;"/><path d="M88.479,49.569c0.905,1.955 0.934,1.93 0.977,2.111c0.293,1.226 -0.353,1.867 -0.468,1.981c-0.173,0.172 -0.479,0.159 -0.651,0.331c-0.026,-0.182 -0.32,-2.274 -0.32,-2.274c0.011,-0.092 0.142,-0.03 0.371,-1.096c0.112,-0.521 -0.024,-0.52 0.091,-1.053Z" style="fill:#4da3b5;fill-opacity:0.05;"/><path d="M34.619,112.197c-0.241,0.275 -0.046,0.366 -0.292,0.647c-0.286,0.327 -0.439,0.11 -0.683,0.467c-0.167,0.245 -0.007,0.66 -0.225,0.862c-0.259,0.241 -0.667,0.266 -1.019,0.297c-0.376,0.033 -0.751,-0.143 -1.127,-0.111c0.176,-0.217 0.023,-0.597 0.199,-0.814c0.031,-0.039 2.024,-1.104 2.197,-1.17c0.301,-0.114 0.649,-0.065 0.95,-0.179Z" style="fill:#4fa9bf;fill-opacity:0.12;"/><path d="M162.646,121.713c0.562,-0.247 0.599,-1.183 1.161,-1.43c0.476,-0.209 1.061,0.355 1.13,0.422c0.672,0.649 0.256,0.916 0.929,1.566c-0.559,0.043 -0.386,-0.499 -0.947,-0.456c-0.668,0.051 -0.434,0.644 -1.112,0.614c-0.454,-0.02 -0.707,-0.695 -1.161,-0.716Z" style="fill:#60cadf;fill-opacity:0.06;"/><path d="M192.416,28.704c0.238,0.768 0.788,1.416 1.026,2.185c0.29,0.934 -0.963,3.167 -1.028,3.305c-0.044,-0.899 -0.007,-5.312 0.001,-5.49Z" style="fill:#458c9c;fill-opacity:0.15;"/><path d="M192.432,142.656c0.235,0.768 0.782,1.416 1.017,2.184c0.281,0.917 -0.92,3.08 -1.027,3.308c-0.034,-0.789 -0.001,-5.277 0.01,-5.492Z" style="fill:#448c9b;fill-opacity:0.15;"/><path d="M192.424,82.393c0.238,0.768 0.788,1.415 1.025,2.183c0.284,0.919 -0.925,3.083 -1.031,3.307c-0.045,-1.1 -0.014,-1.083 -0.089,-2.193c-0.037,-0.538 0.001,-1.015 0.008,-1.103c0.086,-1.097 0.043,-1.076 0.087,-2.194Z" style="fill:#438c9c;fill-opacity:0.15;"/><path d="M192.435,130.603c0.236,0.768 0.785,1.415 1.021,2.183c0.286,0.928 -0.942,3.133 -1.025,3.31c-0.043,-1.099 -0.01,-1.084 -0.086,-2.193c-0.038,-0.554 -0.003,-1.018 0.004,-1.106c0.084,-1.112 0.043,-1.088 0.086,-2.194Z" style="fill:#448c9c;fill-opacity:0.15;"/><path d="M192.436,118.551c0.235,0.767 0.781,1.416 1.016,2.183c0.284,0.927 -0.926,3.106 -1.021,3.309c-0.104,-2.691 -0.012,-5.054 0.005,-5.493Z" style="fill:#448c9c;fill-opacity:0.15;"/><path d="M192.437,106.498c0.233,0.768 0.777,1.417 1.01,2.184c0.274,0.902 -0.891,3.033 -1.019,3.308c-0.01,-0.264 -0.105,-2.866 -0.072,-3.3c0.083,-1.096 0.04,-1.078 0.081,-2.192Z" style="fill:#438c9c;fill-opacity:0.15;"/><path d="M192.506,17.686c0.042,0.049 0.791,0.149 0.971,1.141c0.19,1.048 -0.699,2.562 -1.054,3.314c-0.021,-0.358 0.087,-0.715 0.066,-1.073c-0.022,-0.379 -0.159,-0.745 -0.195,-1.124c-0.06,-0.627 -0.024,-1.005 -0.016,-1.092c0.057,-0.607 0.172,-0.568 0.228,-1.166Z" style="fill:#4b96a5;fill-opacity:0.1;"/><path d="M192.438,154.708c0.355,1.176 0.651,1.033 1,2.188c0.026,0.086 0.168,0.557 -0.001,1.118c-0.232,0.767 -0.767,1.42 -0.999,2.187c-0.088,-2.699 -0.014,-5.054 0,-5.493Z" style="fill:#448b9b;fill-opacity:0.15;"/><path d="M66.572,147.083c0.333,0.706 0.666,1.413 0.998,2.119c-0.516,0.669 -1.031,1.339 -1.547,2.008l-0.523,0.353c0.044,-0.188 0.549,-2.354 0.549,-2.354c0.133,-0.37 0.396,-0.691 0.49,-1.073c0.084,-0.341 -0.051,-0.712 0.032,-1.053Z" style="fill:#408d9f;fill-opacity:0.22;"/><path d="M120.081,67.279c-0.09,0.206 -1.11,2.544 -1.196,2.548c-0.117,0.006 0.236,-0.412 -1.077,-0.992c-0.599,-0.264 -0.651,0.229 -1.249,-0.035c0.655,-0.236 0.572,-0.366 1.238,-0.606c0.917,-0.33 0.933,-0.156 1.002,-0.2c0.177,-0.111 0.061,-0.476 0.243,-0.578c0.304,-0.17 0.733,0.032 1.037,-0.138Z" style="fill:#428794;fill-opacity:0.06;"/><path d="M126.488,147.046c0.023,0.056 0.86,0.802 0.905,2.251c0.012,0.384 -0.113,0.773 -0.047,1.152c0.059,0.336 0.354,0.6 0.413,0.936c-0.54,-0.674 -1.079,-1.348 -1.619,-2.022c0.116,-0.772 0.232,-1.545 0.347,-2.317Z" style="fill:#4ba5b7;fill-opacity:0.2;"/><path d="M66.227,167.782c-0.433,0.702 -0.866,1.405 -1.299,2.107c-0.14,-0.381 -0.654,-0.543 -0.794,-0.925c-0.457,-1.25 0.779,-1.378 0.911,-1.392c0.398,-0.041 0.784,0.251 1.182,0.21Z" style="fill:#4fb2c9;fill-opacity:0.07;"/><path d="M158.032,52.387c-0.646,0.577 -0.204,0.868 -0.848,1.443c-0.064,0.057 -0.364,0.325 -1.049,0.252c-0.41,-0.044 -0.728,-0.432 -1.136,-0.486c-0.372,-0.05 -0.738,0.236 -1.11,0.186c2.044,-1.031 2.011,-1.087 2.207,-1.113c0.583,-0.079 0.553,0.25 1.15,0.163c0.298,-0.043 0.488,-0.401 0.786,-0.445Z" style="fill:#4595a7;fill-opacity:0.15;"/><path d="M98.084,22.136c0.095,0.326 0.65,0.564 0.662,2.279c0.009,1.351 -0.2,1.315 -0.29,1.913c-0.207,-0.645 -0.415,-1.289 -0.622,-1.934c0.084,-0.753 0.167,-1.505 0.251,-2.258Z" style="fill:#4ba2b6;fill-opacity:0.23;"/><path d="M183.545,193.08c-0.188,0.231 -0.155,0.595 -0.343,0.826c-0.112,0.138 -0.962,1.183 -1.968,1.041c-0.306,-0.043 -0.511,-0.393 -0.817,-0.436c0.318,-0.082 0.587,-0.307 0.905,-0.389c0.327,-0.084 0.714,0.063 1.007,-0.103c0.342,-0.193 0.015,-0.412 0.321,-0.649c0.385,-0.297 0.509,0.007 0.895,-0.291Z" style="fill:#3f808e;fill-opacity:0.13;"/><path d="M126.429,145.971l0.059,1.075c-0.116,0.772 -0.232,1.545 -0.347,2.317c-0.056,-0.144 -0.351,-0.078 -0.406,-0.222c-0.451,-1.164 -0.01,-1.152 0.695,-3.17Z" style="fill:#3f8a9a;fill-opacity:0.08;"/><path d="M64.25,158.009c-0.027,0.372 0.074,0.746 0.047,1.117c-0.04,0.54 -0.182,0.98 -0.208,1.062c-0.309,0.959 -0.957,1.069 -1.02,1.139c0.037,-0.167 0.458,-2.092 0.458,-2.092c0.166,-0.445 0.557,-0.782 0.723,-1.226Z" style="fill:#418b9c;fill-opacity:0.18;"/><path d="M90.618,39.685c0.556,2.478 0.773,2.505 0.489,3.129c-0.077,0.17 -0.448,0.022 -0.525,0.192c-0.002,-0.148 -0.25,-0.139 0.037,-3.321Z" style="fill:#4393a4;fill-opacity:0.18;"/><path d="M192.421,52.81c0.077,0.355 0.477,0.548 0.479,2.196c0.001,1.65 -0.398,1.841 -0.475,2.197c-0.049,-2.197 -0.011,-4.042 -0.004,-4.394Z" style="fill:#3f8392;fill-opacity:0.25;"/><path d="M192.418,35.28c0.095,0.656 0.362,0.563 0.459,1.233c0.022,0.152 0.139,0.959 -0.002,1.925c-0.063,0.435 -0.395,0.8 -0.458,1.235c-0.059,-2.197 -0.009,-4.042 0.001,-4.393Z" style="fill:#3f8493;fill-opacity:0.25;"/><path d="M192.428,59.384c0.097,0.473 0.459,0.413 0.448,2.195c-0.01,1.773 -0.372,1.736 -0.471,2.198c-0.045,-2.195 0.012,-4.042 0.022,-4.393Z" style="fill:#3f8493;fill-opacity:0.25;"/><path d="M192.42,47.331c0.095,0.453 0.464,0.436 0.459,2.197c-0.005,1.76 -0.37,1.745 -0.466,2.197c-0.049,-2.196 -0.002,-4.042 0.006,-4.393Z" style="fill:#3f8493;fill-opacity:0.25;"/><path d="M192.409,64.864c0.095,0.658 0.364,0.564 0.461,1.235c0.022,0.152 0.139,0.955 -0.003,1.92c-0.064,0.435 -0.396,0.802 -0.46,1.237c-0.05,-2.196 -0.006,-4.041 0.002,-4.393Z" style="fill:#3f8492;fill-opacity:0.26;"/><path d="M192.438,101.02c0.082,0.394 0.465,0.506 0.46,2.197c-0.005,1.687 -0.386,1.808 -0.469,2.198c-0.046,-2.196 0,-4.043 0.009,-4.395Z" style="fill:#3f8494;fill-opacity:0.25;"/><path d="M192.426,76.916c0.087,0.416 0.468,0.478 0.462,2.195c-0.006,1.712 -0.382,1.787 -0.47,2.197c-0.043,-2.196 -0,-4.041 0.008,-4.393Z" style="fill:#3f8393;fill-opacity:0.25;"/><path d="M192.427,23.227c0.092,0.448 0.458,0.443 0.451,2.195c-0.007,1.743 -0.374,1.76 -0.467,2.198c-0.043,-2.196 0.007,-4.041 0.016,-4.392Z" style="fill:#408493;fill-opacity:0.25;"/><path d="M192.424,88.969c0.097,0.467 0.459,0.42 0.455,2.196c-0.003,1.773 -0.361,1.735 -0.458,2.198c-0.047,-2.197 -0.006,-4.042 0.002,-4.394Z" style="fill:#3f8493;fill-opacity:0.25;"/><path d="M192.42,71.436c0.093,0.445 0.463,0.446 0.461,2.197c-0.002,1.755 -0.366,1.748 -0.46,2.197c-0.045,-2.197 -0.008,-4.043 -0.001,-4.394Z" style="fill:#3f8593;fill-opacity:0.25;"/><path d="M192.44,161.284c0.078,0.378 0.46,0.526 0.455,2.196c-0.005,1.663 -0.383,1.827 -0.461,2.199c-0.038,-2.198 -0.002,-4.043 0.005,-4.395Z" style="fill:#3f8493;fill-opacity:0.25;"/><path d="M101.067,35.284c0.104,2.574 0.115,2.566 0.118,3.322c-0.093,-0.438 -0.423,-0.801 -0.516,-1.239c-0.078,-0.367 0.027,-0.915 0.042,-0.993c0.111,-0.581 0.248,-0.522 0.357,-1.09Z" style="fill:#4595a6;fill-opacity:0.2;"/><path d="M98.084,22.136c-0.084,0.753 -0.167,1.505 -0.251,2.258c-0.051,-0.157 -0.389,-0.07 -0.441,-0.227c-0.129,-0.397 0.033,-0.875 0.058,-0.946c0.208,-0.61 0.425,-0.473 0.634,-1.085Z" style="fill:#4fa8bc;fill-opacity:0.1;"/><path d="M95.789,130.471c-0.236,1.716 -0.167,1.727 -0.254,1.848c-0.28,0.393 -0.519,0.044 -0.802,0.442c0.045,-0.146 0.563,-1.825 0.563,-1.825c0.102,-0.201 0.39,-0.264 0.492,-0.465Z" style="fill:#27545c;fill-opacity:0.13;"/><path d="M160.581,113.001c0.617,0.199 1.234,0.399 1.851,0.598c-0.259,0.012 -0.474,0.247 -0.732,0.259c-1.135,0.055 -1.038,-0.795 -1.119,-0.857Z" style="fill:#3e8696;fill-opacity:0.12;"/></g></svg>