<?xml version="1.0" encoding="UTF-8" standalone="no"?><!DOCTYPE svg PUBLIC "-//W3C//DTD SVG 1.1//EN" "http://www.w3.org/Graphics/SVG/1.1/DTD/svg11.dtd"><svg width="100%" height="100%" viewBox="0 0 2010 562" version="1.1" xmlns="http://www.w3.org/2000/svg" xmlns:xlink="http://www.w3.org/1999/xlink" xml:space="preserve" xmlns:serif="http://www.serif.com/" style="fill-rule:evenodd;clip-rule:evenodd;stroke-linejoin:round;stroke-miterlimit:2;"><g id="Fondo"><path d="M187.49,393.098c0.813,44.87 25.966,43 23.099,55.138c-14.493,61.36 -12.544,64.247 -17.441,64.372c-1.839,0.047 -109.756,0.057 -110.128,-0.013c-2.918,-0.55 -1.989,-2.007 -62.98,-195.309c-0.597,-1.891 -0.648,-1.837 -7.712,-23.55c-1.012,-3.11 -12.504,-38.433 -12.326,-38.979c0.754,-2.305 2.116,-0.412 76.424,48.3c4.613,3.024 40.165,26.33 57.594,37.897c5.856,3.886 11.77,7.032 10.816,9.065c-2.033,4.332 -14.657,24.223 -15.976,26.302c-3.174,5.002 -4.508,2.098 -9.539,-1.018c-4.347,-2.692 -51.051,-33.334 -51.083,-33.331c-2.603,0.22 -0.206,1.762 8.473,31.539c0.056,0.192 16.444,51.64 23.159,74.789c1.434,4.944 2.638,-0.441 10.492,-12.042c24.353,-35.975 81.146,-130.863 115.33,-185.556c6.645,-10.631 7.987,-11.277 4.542,-18.224c-10.586,-21.343 -9.992,-22.536 -9.063,-24.4c11.031,-22.148 12.858,-21.05 24.12,-43.09c1.404,-2.748 2.162,-4.44 3.817,-1.872c3.243,5.03 21.042,37.829 22.838,41.138c4.339,7.995 1.932,8.551 -3.818,21.165c-5.87,12.879 -6.035,13.274 -4.697,15.53c1.833,3.09 66.88,108.582 72.7,118.021c4.479,7.263 53.197,86.274 56.735,90.323c1.546,1.77 2.345,-0.88 2.406,-1.082c2.521,-8.361 22.42,-74.347 32.548,-104.198c1.203,-3.545 -3.195,-0.489 -3.421,-0.332c-4.087,2.84 -4.39,2.351 -52.136,33.954c-5.448,3.606 -5.399,-0.557 -15.597,-17.251c-5.188,-8.493 -9.091,-10.479 -3.38,-14.272c11.342,-7.532 140.197,-92.505 141.091,-92.444c1.705,0.116 0.498,1.208 -8.163,29.319c-24.009,77.922 -25.038,77.522 -49.11,155.477c-1.783,5.773 -15.995,51.8 -22.507,72.093c-0.865,2.694 -2.109,2.057 -69.591,2.077c-44.31,0.013 -45.26,0.349 -46.216,-2.11c-0.186,-0.479 -14.661,-64.738 -14.472,-65.971c0.559,-3.647 20.588,-12.963 23.437,-45.397c3.682,-41.914 -46.165,-83.243 -92.247,-54.601c-24.948,15.506 -27.605,44.08 -28.02,48.545Z" style="fill:#c59123;"/><path d="M255.66,41.07c-4.035,-0.174 -66.335,-6.76 -99.491,55.516c-12.64,23.742 -10.968,27.103 -10.97,153.207c-0.001,54.686 1.977,59.225 -2.01,57.005c-0.249,-0.139 -29.747,-19.426 -32.333,-21.116c-6.308,-4.125 -5.704,-5.052 -5.7,-12.62c0.07,-143.163 -2.087,-157.148 11.327,-185.931c65.582,-140.727 255.492,-98.828 272.68,38.969c1.802,14.45 0.973,68.805 0.579,69.454c-1.406,2.311 -34.458,0.999 -37.453,0.881c-2.627,-0.104 -2.235,-1.625 -2.232,-49.508c0,-5.294 0.002,-38.589 -18.871,-63.424c-30.152,-39.675 -65.696,-41.302 -75.526,-42.433Z" style="fill:#191919;"/><path d="M2002.432,358.208c-31.918,76.609 -94,66.56 -197.693,67.916c-10.609,0.139 0.94,-5.113 1.337,-5.293c9.163,-4.167 7.655,-7.236 7.757,-105.314c0.096,-92.362 0.212,-93.664 -5.468,-98.103c-0.204,-0.16 -12.134,-5.137 -5.781,-6.794c2.014,-0.525 71.383,0.102 77.59,0.158c107.248,0.97 144.69,66.788 122.257,147.429Z" style="fill:#191818;"/><path d="M832.979,323.397c7.785,4.438 27.683,12.269 31.141,42.337c6.529,56.762 -75.026,59.632 -83.225,59.92c-5.641,0.198 -121.659,0.252 -121.834,0.2c-8.936,-2.627 10.968,-3.062 11.503,-17.616c0.636,-17.281 0.087,-158.178 0.033,-171.932c-0.053,-13.732 -0.388,-17.362 -11.296,-21.437c-2.556,-0.955 -2.797,-4.342 1.688,-4.331c113.376,0.28 170.735,-4.735 181.088,47.128c5.394,27.018 -17.455,49.007 -32.62,53.083c-7.727,2.077 -11.465,0.926 -8.878,4.394c1.599,2.144 3.584,-4.028 32.4,8.254Z" style="fill:#181818;"/><path d="M1116.945,305.772c-28.544,33.336 -59.9,19.251 -48.572,29.345c18.895,16.837 44.56,78.515 77.444,85.532c0.634,0.135 13.221,2.821 6.171,5.254c-0.528,0.182 -35.194,0.386 -42.466,-1.172c-29.167,-6.25 -35.032,-28.319 -69.545,-74.588c-8.697,-11.659 -9.163,-16.745 -19.522,-16.789c-34.877,-0.147 -36.645,-0.118 -36.79,3.401c-0.036,0.876 -0.137,66.631 0.046,71.497c0.599,15.91 19.936,14.518 11.784,17.598c-4.211,1.591 -4.409,-0.397 -56.271,0.298c-10.784,0.144 1.038,-5.074 1.436,-5.249c10.241,-4.52 8.289,-8.02 8.353,-103.449c0.064,-94.355 1.356,-97.638 -8.249,-101.622c-16.772,-6.956 6.799,-5.036 44.913,-4.937c35.091,0.091 147.735,-11.42 142.528,65.95c-0.895,13.3 -9.888,26.862 -11.261,28.932Z" style="fill:#191918;"/><path d="M321.738,529.582c90.334,0.405 91.901,-0.809 92.28,1.728c0.236,1.578 0.316,27.386 0.031,28.452c-0.767,2.868 -2.128,1.4 -48.222,1.737c-15.519,0.114 -247.86,-0.001 -269.413,-0.012c-11.226,-0.006 -15.104,0.793 -15.263,-3.058c-1.13,-27.272 -0.559,-28.033 1.658,-28.616c1.451,-0.382 225.389,-0.146 238.929,-0.23Z" style="fill:#c69325;"/><path d="M204.518,390.668c8.485,-51.211 73.073,-48.768 84.837,-7.234c9.844,34.758 -23.4,52.465 -23.527,52.692c-1.081,1.922 15.227,70.037 15.662,74.514c0.193,1.987 -5.757,1.996 -6.285,1.997c-60.754,0.101 -60.844,-0.339 -61.184,-0.811c-1.108,-1.538 15.572,-68.89 15.665,-74.657c0.072,-4.426 -27.863,-11.303 -25.168,-46.502Z" style="fill:#191a19;"/><path d="M1951.182,246.391c5.261,6.971 34.797,46.109 18.882,107.518c-18.452,71.195 -86.001,64.635 -116.944,64.066c-5.703,-0.105 -4.248,-3.4 -4.435,-75.408c-0.025,-9.748 -0.313,-120.229 0.207,-121.844c1.124,-3.497 39.601,-3.787 60.061,0.953c26.464,6.13 37.523,19.821 42.23,24.716Z" style="fill:#fdfdfd;"/><path d="M1384.312,375.084c-4.065,-8.618 -5.113,-11.082 -8.359,-11.412c-2.457,-0.249 -99.846,-0.085 -100.493,-0.009c-3.718,0.439 -4.132,1.127 -22.604,40.975c-7.727,16.669 10.733,16.282 8.273,20.46c-0.401,0.682 -61.319,4.087 -31.937,-5.062c11.225,-3.495 13.033,-12.219 76.073,-142.762c30.966,-64.126 30.823,-69.235 35.614,-65.664c1.08,0.805 68.833,136.56 93.925,190.407c9.104,19.536 20.445,19.341 22.042,20.096c8.912,4.217 -10.404,3.763 -11.36,3.74c-23.859,-0.562 -59.127,2.3 -51.504,-3.486c12.624,-9.582 6.676,-13.224 -9.669,-47.284Z" style="fill:#181818;"/><path d="M1548.829,248.2c1.957,20.215 -1.268,158.319 1.802,165.498c3.859,9.023 18.197,9.805 10.917,12.181c-2.37,0.773 -2.451,-0.225 -31.158,0.285c-10.844,0.193 1.118,-5.061 1.517,-5.236c11.338,-4.98 9.341,-8.668 9.4,-88.024c0.082,-109.177 -0.095,-110.42 -5.687,-115.123c-1.074,-0.903 -14.005,-5.276 -7.366,-7.12c6.518,-1.81 32.299,0.04 35.099,0.24c5.005,0.359 4.365,2.294 140.386,155.44c1.394,1.569 4.122,6.803 6.29,5.074c0.675,-0.539 0.563,-141.968 -0.18,-144.707c-4.055,-14.946 -18.499,-9.676 -13.295,-15.601c0.276,-0.314 35.192,-1.329 36.086,0.486c1.865,3.79 -13.717,3.971 -14.34,17.036c-0.821,17.225 1.164,193.929 -1.16,196.237c-6.712,6.666 -21.641,-15.738 -38.219,-33.719c-14.234,-15.44 -82.512,-94.212 -117.208,-131.942c-8.715,-9.477 -7.94,-11.705 -12.885,-11.006Z" style="fill:#191919;"/><path d="M794.734,324.287c3.569,1.398 24.025,6.3 32.06,30.016c2.637,7.781 12.244,61.247 -59.424,63.602c-4.857,0.16 -57.64,1.894 -60.733,-1.083c-1.744,-1.678 -1.909,-94.319 0.195,-96.175c0.119,-0.105 60.092,-5.443 87.901,3.639Z" style="fill:#fdfcfd;"/><path d="M1043.562,219.549c70.308,11.516 55.175,84.487 21.046,99.22c-19.087,8.239 -28.623,6.914 -75.069,7.01c-1.916,0.004 -5.868,0.53 -5.925,-4.457c-0.091,-8.035 -1.093,-96.086 0.207,-100.447c1.357,-4.554 49.151,-2.224 59.742,-1.325Z" style="fill:#fcfcfc;"/><path d="M807.39,265.291c-4.733,41.77 -22.251,47.908 -97.963,46.206c-5.34,-0.12 -3.544,-3.404 -3.967,-86.782c-0.047,-9.32 4.285,-6.266 13.607,-6.265c54.432,0.007 82.909,-0.746 88.322,46.84Z" style="fill:#fcfcfc;"/><path d="M1298.571,309.675c1.904,-3.989 1.9,-3.93 23.918,-49.811c1.942,-4.046 3.899,-2.973 5.779,1.21c4.181,9.304 45.664,91.213 44.948,92.887c-0.72,1.686 -11.713,1.672 -12.741,1.671c-80.357,-0.104 -80.709,0.481 -81.908,-0.713c-2.635,-2.623 -0.303,-3.063 4.25,-12.54c14.535,-30.256 14.497,-30.086 15.754,-32.704Z" style="fill:#fcfcfc;"/><path d="M1623.224,503.483c40.047,5.762 27.158,40.792 21.133,47.624c-22.12,25.085 -61.382,-3.327 -47.811,-30.643c9.026,-18.168 23.844,-16.562 26.677,-16.981Z" style="fill:#c79229;"/><path d="M1718.171,536.169c-11.345,7.3 8.539,16.992 6.574,22.462c-3.679,10.24 -16.492,-9.341 -17.386,-10.708c-4.326,-6.611 -4.656,-7.26 -12.705,-7.034c-8.457,0.238 -0.596,19.094 -9.606,18.971c-6.524,-0.089 -4.458,-12.112 -4.495,-39.536c-0.017,-12.36 -1.462,-12.848 1.049,-14.949c0.619,-0.518 48.529,-8.754 43.073,20.584c-1.369,7.36 -6.486,10.193 -6.505,10.21Z" style="fill:#c8962f;"/><path d="M664.978,536.093c-5.431,-0.266 -7.636,1.338 -7.944,-4.19c-0.027,-0.484 -0.27,-4.847 2.209,-5.649c5.13,-1.659 151.023,-0.385 164.155,-0.271c11.229,0.098 18.297,-2.237 14.245,8.206c-1.217,3.135 -5.49,1.438 -172.665,1.903Z" style="fill:#c59221;"/><path d="M1885.968,536.056c-45.117,0.002 -49.715,1.526 -48.845,-6.158c0.564,-4.98 3.175,-3.9 62.368,-3.923c107.448,-0.043 107.98,0.157 108.686,1.745c3.686,8.299 -3.598,8.335 -4.35,8.339c-1.844,0.009 -108.43,-0.002 -117.859,-0.002Z" style="fill:#c49323;"/><path d="M1789.573,537.967c-16.333,9.148 -25.145,-0.293 -25.553,7.413c-0.571,10.776 2.411,13.297 -3.507,14.428c-7.709,1.473 -6.172,-7.578 -6.092,-39.504c0.003,-1.25 0.037,-14.739 2.097,-15.478c1.038,-0.373 22.425,-1.399 29.229,1.327c10.892,4.365 17.082,20.023 3.826,31.813Z" style="fill:#c69327;"/><path d="M1168.85,547.639c-18.459,-23.949 -18.428,-24.117 -18.834,-24.165c-3.313,-0.391 -1.67,1.883 -1.865,31.611c-0.048,7.297 -8.896,5.636 -9.509,1.864c-0.029,-0.178 -0.114,-49.104 0.087,-50.062c3.332,-15.882 33.544,30.44 34.855,32.218c5.328,7.223 3.575,-16.03 3.698,-30.38c0.029,-3.338 0.202,-3.892 3.485,-4.237c6.712,-0.705 5.792,4.69 5.786,6.155c-0.179,43.656 0.602,47.648 -1.629,48.688c-6.171,2.877 -9.608,-2.9 -16.075,-11.693Z" style="fill:#c79228;"/><path d="M1377.165,524.163c0.034,25.531 2.297,38.398 -7.205,35.38c-6.377,-2.025 -32.619,-48.211 -31.657,-33.686c2.159,32.601 -0.092,33.19 -2.723,33.877c-8.413,2.199 -6.3,-6.937 -6.396,-39.419c-0.004,-1.263 -0.044,-14.925 2.253,-15.631c7.029,-2.159 10.627,4.926 24.091,22.697c9.638,12.722 12.436,17.188 12.592,12.216c0.105,-3.349 -2.724,-33.633 2.004,-34.8c0.898,-0.222 4.497,-0.259 5.558,0.433c1.474,0.961 1.483,17.414 1.484,18.933Z" style="fill:#c79328;"/><path d="M1416.656,554.889c-27.027,-27.436 2.87,-63.883 34.072,-47.164c6,3.215 3.277,11.878 -5.617,7.512c-17.791,-8.733 -25.979,5.771 -26.525,7.08c-12.273,29.45 25.13,34.897 28.905,25.066c5.317,-13.849 -13.324,-6.173 -13.658,-13.554c-0.302,-6.699 15.894,-4.656 19.463,-4.556c5.737,0.162 4.052,14.747 3.932,20.021c-0.149,6.553 -20.222,19.039 -40.571,5.595Z" style="fill:#c69228;"/><path d="M1101.596,513.034c-15.848,0.121 -23.762,-6.562 -23.86,9.212c-0.072,11.495 27.244,0.171 27.476,9.658c0.176,7.183 -19.389,3.926 -24.738,4.45c-3.129,0.306 -2.779,10.181 -2.746,11.094c0.202,5.675 12.515,3.786 25.8,3.822c7.492,0.02 7.153,8.866 -0.005,8.752c-20.211,-0.323 -32.704,0.822 -34.466,-1.321c-1.711,-2.081 -0.644,-51.854 -0.585,-52.031c1.082,-3.3 38.515,-3.855 40.072,0.274c2.173,5.766 -0.939,5.258 -6.946,6.091Z" style="fill:#c5942c;"/><path d="M1641.034,533.874c-8.981,40.786 -53.583,4.569 -30.704,-16.817c8.076,-7.549 30.52,-7.692 30.704,16.817Z" style="fill:#fcfcfa;"/><path d="M1242.404,528.707c1.503,0.66 15.151,3.404 14.505,16.741c-1.337,27.607 -54.903,9.837 -37.691,1.536c2.404,-1.159 23.144,11.194 27.559,0.501c5.678,-13.75 -39.498,-8.721 -28.306,-34.432c7.413,-17.03 45.39,-7.19 33.173,2.632c-1.718,1.382 -27.438,-9.417 -24.763,4.675c0.713,3.757 14.176,7.929 15.523,8.347Z" style="fill:#c79329;"/><path d="M1530.195,555.485c-27.611,-23.667 -0.946,-62.677 29.529,-49.328c13.631,5.971 4.274,13.131 -0.432,10.588c-27.517,-14.873 -33.506,13.815 -28.27,24.561c9.897,20.311 29.739,4.309 32.608,5.257c11.191,3.7 -8.952,23.415 -33.436,8.922Z" style="fill:#c59228;"/><path d="M1018.514,503.482c1.641,0.25 28.021,4.265 15.769,13.478c-2.004,1.507 -23.95,-12.791 -32.431,5.572c-7.034,15.23 5.518,39.249 28.397,25.026c6.036,-3.752 11.953,4.794 1.887,9.616c-41.959,20.099 -63.845,-49.46 -13.622,-53.692Z" style="fill:#c69329;"/><path d="M891.73,528.034c0.005,9.897 -2.419,23.167 5.079,23.222c8.853,0.066 25.542,-2.596 23.722,5.886c-0.537,2.503 -1.448,3.311 -33.34,2.917c-4.124,-0.051 -6.683,-1.762 -4.879,-51.325c0.023,-0.635 0.214,-5.885 6.828,-4.069c3.723,1.022 2.556,15.003 2.59,23.369Z" style="fill:#c5942c;"/><path d="M1286.676,537.684c0.145,-24.491 -2.025,-34.477 6.237,-33.173c3.373,0.533 3.493,2.075 3.215,50.56c-0.009,1.528 -0.028,5.417 -5.281,4.781c-6.076,-0.735 -4.154,-12.459 -4.171,-22.169Z" style="fill:#c79427;"/><path d="M958.642,528.031c-0.02,18.835 2.21,33.107 -5.728,31.936c-4.034,-0.595 -3.563,-4.02 -3.571,-4.896c-0.452,-50.069 1.5,-49.963 1.656,-50.055c1.04,-0.611 5.563,-0.919 6.805,0.567c0.967,1.158 0.814,7.618 0.838,22.448Z" style="fill:#c8972f;"/><path d="M1696.663,513.192c1.388,0.061 14.384,0.629 17.002,3.549c3.396,3.788 1.169,8.897 0.861,9.604c-4.342,9.962 -20.032,6.076 -21.779,5.643c-3.4,-0.842 -2.689,-14.453 -2.623,-15.727c0.169,-3.229 1.618,-2.004 6.538,-3.07Z" style="fill:#fcfcfa;"/><path d="M1770.074,513.182c2.535,0.143 5.082,-0.062 7.617,0.081c16.575,0.933 10.081,25.175 -11.32,19.942c-3.126,-0.764 -2.412,-15.449 -2.346,-16.805c0.144,-2.969 1.479,-1.963 6.048,-3.218Z" style="fill:#fdfcfa;"/></g></svg>