<?xml version="1.0" encoding="UTF-8" standalone="no"?><!DOCTYPE svg PUBLIC "-//W3C//DTD SVG 1.1//EN" "http://www.w3.org/Graphics/SVG/1.1/DTD/svg11.dtd"><svg width="100%" height="100%" viewBox="0 0 1150 443" version="1.1" xmlns="http://www.w3.org/2000/svg" xmlns:xlink="http://www.w3.org/1999/xlink" xml:space="preserve" xmlns:serif="http://www.serif.com/" style="fill-rule:evenodd;clip-rule:evenodd;stroke-linejoin:round;stroke-miterlimit:2;"><g id="Fondo"><path d="M554.101,320.08c0.659,-0.013 7.241,-0.142 8.199,0.823c5.435,5.469 -12.322,6.672 -42.265,16.221c-44.678,14.248 -120.069,48.857 -111.511,3.29c0.694,-3.695 1.514,-3.35 2.223,-6.975c0.828,-4.235 -21.403,16.524 -53.387,27.583c-73.349,25.361 -172.567,-0.104 -182.001,9.274c-86.659,86.143 -157.014,73.875 -165.427,68.718c-36.053,-22.104 32.992,-68.123 95.984,-77.031c45.077,-6.375 45.323,-2.805 63.544,-4.843c7.932,-0.887 58.407,-70.614 82.519,-115.467c4.931,-9.172 15.031,-23.063 6.801,-16.849c-20.61,15.56 -72.17,43.967 -89.216,48.001c-12.631,2.99 -14.069,-7.667 -5.594,-9.573c31.531,-7.092 95.928,-50.679 109.756,-60.55c5.063,-3.614 56.756,-117.705 100.648,-165.058c2.473,-2.668 33.836,-39.563 59.525,-37.565c5.619,0.437 34.212,4.968 -9.037,69.863c-41.422,62.153 -122.36,124.742 -135.535,134.192c-9.005,6.459 -17.695,34.297 -62.52,101.897c-33.034,49.818 -41.323,47.979 -37.542,51.388c0.226,0.204 0.152,0.112 9.898,0.552c87.795,3.966 131.133,9.947 186.995,-22.726c39.498,-23.102 42.106,-35.949 51.207,-48.091c4.587,-6.12 11.649,-4.319 12.967,1.051c1.431,5.832 -26.87,35.203 -29.592,54.964c-4.081,29.632 66.101,-15.764 133.361,-23.089Z" style="fill:#042dd0;"/><path d="M763.684,273.168c-4.179,4.324 -1.895,6.085 -47.575,58.189c-33.615,38.342 -50.465,43.93 -55.954,45.75c-7.523,2.495 -25.33,2.017 -21.567,-24.033c9.941,-68.819 134.127,-241.172 106.332,-232.228c-28.424,9.146 -88.569,54.204 -119.345,106.049c-2.962,4.989 -9.891,2.739 -5.75,-6.399c22.834,-50.386 133.551,-143.311 141.505,-100.572c5.102,27.41 -97.851,164.981 -110.513,236.125c-5.79,32.531 53.792,-18.027 132.944,-128.344c12.801,-17.841 15.997,-24.234 22.468,-17.795c7.793,7.755 -3.971,7.623 -30.384,70.99c-11.032,26.466 -23.169,72.862 15.711,64.636c83.621,-17.693 219.916,-250.04 171.343,-261.534c-2.793,-0.661 -13.889,1.156 -11.53,-5.245c2.624,-7.12 58.135,-13.339 17.417,80.805c-56.216,129.975 -176.67,235.742 -210.474,186.124c-14.028,-20.591 4.078,-63.865 6.217,-68.976c0.88,-2.103 1.217,-2.577 -0.846,-3.541Z" style="fill:#032cd0;"/><path d="M1039.057,337.021c-2.018,0.218 -38.56,9.634 -33.163,-23.374c0.34,-2.08 5.509,-12.089 -2.146,-5.835c-30.664,25.051 -108.21,63.885 -109.607,18.459c-0.934,-30.378 69.752,-91.283 86.542,-63.361c9.476,15.758 -31.213,50.284 -67.286,59.468c-7.077,1.802 -9.077,2.982 -5.964,9.651c9.642,20.652 100.396,-31.867 117.117,-55.6c1.934,-2.745 13.581,-25.11 21.578,-15.145c5.814,7.245 -9.984,12.773 -26.063,49.099c-18.488,41.767 60.356,-4.975 119.561,-13.289c12.798,-1.797 9.412,4.959 8.004,5.868c-3.956,2.556 -4.992,-0.517 -56.214,17.483c-48.793,17.146 -49.17,15.802 -52.359,16.575Z" style="fill:#042dd0;"/><path d="M428.115,11.777c2.746,-0.436 2.619,-0.561 4.398,-0.538c2.226,0.028 10.867,1.071 -1.869,27.759c-18.701,39.188 -71.425,94.598 -105.001,122.499c-24.143,20.062 -24.498,21.28 -25.504,20.096c-1.194,-1.405 0.174,-1.377 5.706,-11.994c52.338,-100.453 87.494,-145.753 122.27,-157.822Z" style="fill:#fcfcfd;"/><path d="M107.328,373.279c3.939,-0.584 31.505,-4.674 49.538,-4.913c4.747,-0.063 -2.913,6.078 -5.839,8.703c-69.963,62.781 -157.122,66.274 -135.332,38.526c22.141,-28.196 83.72,-40.708 91.633,-42.316Z" style="fill:#fcfcfd;"/><path d="M952.898,271.134c17.402,-8.244 18.166,-2.886 18.213,-1.425c0.186,5.828 -11.408,15.721 -12.69,16.815c-18.879,16.11 -50.362,30.497 -45.32,22.704c16.94,-26.186 34.38,-34.68 39.797,-38.093Z" style="fill:#f9fafd;"/><path d="M464.907,251.905c-13.164,-4.904 -6.145,-17.288 -0.928,-19.683c16.811,-7.715 21.644,21.732 0.928,19.683Z" style="fill:#032dd0;"/><path d="M1071.563,223.886c-23.282,0.73 -5.043,-33.001 8.011,-17.326c3.292,3.953 1.653,8.5 1.401,9.2c-1.941,5.385 -8.478,7.783 -9.412,8.126Z" style="fill:#032bcf;"/></g></svg>